{"glyphs":{"0":{"ha":754,"x_min":63,"x_max":692,"o":"m 378 833 q 332 833 378 833 q 217 735 285 833 q 150 456 150 636 q 215 174 150 276 q 379 72 281 72 q 541 172 478 72 q 604 456 604 272 q 538 736 604 639 q 378 833 472 833 m 149 117 q 106 182 149 117 q 63 457 63 246 q 150 792 63 668 q 376 917 238 917 q 603 793 515 917 q 692 458 692 669 q 608 117 692 246 q 380 -11 525 -11 q 149 117 235 -11 z "},"1":{"ha":428,"x_min":28,"x_max":317,"o":"m 317 908 l 317 0 l 232 0 l 232 815 l 28 688 l 28 783 l 232 908 l 317 908 z "},"2":{"ha":683,"x_min":56,"x_max":621,"o":"m 621 76 l 621 0 l 56 0 l 56 76 q 500 643 500 417 q 447 787 500 738 q 296 836 393 836 q 89 756 199 836 l 89 842 q 303 917 183 917 q 506 847 422 917 q 589 647 589 776 q 176 76 589 406 l 621 76 z "},"3":{"ha":640,"x_min":56,"x_max":564,"o":"m 81 867 q 275 917 156 917 q 465 849 394 917 q 536 682 536 781 q 392 461 536 524 q 517 388 469 443 q 564 250 564 332 q 489 65 564 139 q 283 -8 414 -8 q 56 38 151 -8 l 56 124 q 263 72 154 72 q 424 122 371 72 q 476 253 476 172 q 418 378 476 335 q 258 421 360 421 l 197 421 l 197 497 l 258 497 q 392 545 336 497 q 447 674 447 593 q 398 795 447 754 q 257 836 349 836 q 81 781 165 836 l 81 867 z "},"4":{"ha":742,"x_min":63,"x_max":707,"o":"m 707 304 l 707 228 l 567 228 l 567 0 l 483 0 l 483 228 l 63 228 l 63 304 l 426 908 l 567 908 l 567 304 l 707 304 m 483 304 l 483 860 l 150 304 l 483 304 z "},"5":{"ha":711,"x_min":90,"x_max":642,"o":"m 222 832 l 222 529 q 343 544 290 544 q 560 472 478 544 q 642 272 642 400 q 556 67 642 144 q 328 -11 469 -11 q 90 35 188 -11 l 90 121 q 307 69 179 69 q 553 282 553 69 q 494 417 553 369 q 341 464 436 464 q 136 415 246 464 l 136 908 l 578 908 l 578 832 l 222 832 z "},"6":{"ha":726,"x_min":79,"x_max":672,"o":"m 485 857 q 264 750 346 857 q 167 483 182 643 q 275 558 211 531 q 403 585 339 585 q 601 506 529 585 q 672 292 672 426 q 596 73 672 157 q 396 -11 519 -11 q 162 106 244 -11 q 79 410 79 222 q 261 864 79 722 q 486 938 356 938 q 610 917 551 938 l 610 831 q 485 857 553 857 m 163 394 q 229 152 165 236 q 388 68 293 68 q 533 132 482 68 q 583 294 583 196 q 533 449 583 393 q 407 504 482 504 q 268 473 332 504 q 163 394 204 442 z "},"7":{"ha":615,"x_min":14,"x_max":601,"o":"m 14 908 l 601 908 l 601 832 l 219 0 l 128 0 l 511 832 l 14 832 l 14 908 z "},"8":{"ha":740,"x_min":76,"x_max":664,"o":"m 664 232 q 578 56 664 122 q 368 -11 492 -11 q 160 53 244 -11 q 76 225 76 118 q 124 369 76 311 q 254 451 172 428 q 135 531 178 475 q 92 665 92 588 q 174 850 92 783 q 367 917 257 917 q 558 851 476 917 q 640 663 640 785 q 598 533 640 589 q 481 454 556 478 q 615 376 567 432 q 664 232 664 321 m 367 836 q 324 836 367 836 q 230 787 281 836 q 179 658 179 738 q 233 536 179 579 q 369 493 286 493 q 502 539 451 493 q 553 663 553 585 q 503 788 553 740 q 367 836 454 836 m 164 235 q 164 199 164 235 q 217 116 164 163 q 369 69 269 69 q 522 120 468 69 q 576 243 576 171 q 524 365 576 315 q 369 413 472 414 q 215 359 265 411 q 164 235 164 307 z "},"9":{"ha":689,"x_min":56,"x_max":628,"o":"m 243 69 q 539 414 506 69 q 328 328 467 328 q 138 409 219 328 q 56 621 56 490 q 130 835 56 751 q 332 919 204 919 q 555 807 482 919 q 628 528 628 694 q 534 134 628 279 q 243 -11 440 -11 q 88 15 163 -11 l 88 101 q 243 69 161 69 m 544 528 q 503 738 544 649 q 437 812 481 785 q 333 839 393 839 q 196 781 247 839 q 144 622 144 724 q 199 463 144 519 q 349 407 254 407 q 544 501 469 407 l 544 528 z "},"\u0000":{"ha":0,"x_min":0,"x_max":0,"o":""},"\r":{"ha":0,"x_min":0,"x_max":0,"o":""}," ":{"ha":336,"x_min":0,"x_max":0,"o":""},"!":{"ha":335,"x_min":96,"x_max":238,"o":"m 165 -11 q 150 -11 165 -11 q 115 8 135 -11 q 96 58 96 28 q 116 108 96 88 q 166 129 136 129 q 217 108 196 129 q 238 58 238 88 q 217 8 238 28 q 165 -11 196 -11 m 125 272 l 125 936 l 210 936 l 210 272 l 125 272 z "},"\"":{"ha":376,"x_min":63,"x_max":314,"o":"m 235 626 l 235 946 l 314 946 l 314 626 l 235 626 m 63 626 l 63 946 l 142 946 l 142 626 l 63 626 z "},"#":{"ha":968,"x_min":76,"x_max":892,"o":"m 892 624 l 736 624 l 671 313 l 813 313 l 813 242 l 656 242 l 606 0 l 524 0 l 575 242 l 311 242 l 260 0 l 181 0 l 231 242 l 76 242 l 76 313 l 246 313 l 311 624 l 158 624 l 158 694 l 326 694 l 376 936 l 458 936 l 407 694 l 671 694 l 722 936 l 801 936 l 751 694 l 892 694 l 892 624 m 590 313 l 656 624 l 392 624 l 326 313 l 590 313 z "},"$":{"ha":697,"x_min":81,"x_max":621,"o":"m 374 860 q 225 816 281 860 q 169 700 169 772 q 232 581 169 625 q 335 524 282 546 q 417 488 388 501 q 480 456 447 475 q 549 408 513 438 q 621 237 621 347 q 547 62 621 126 q 354 -10 472 -3 l 354 -149 l 278 -149 l 278 -7 q 83 51 168 1 l 83 147 q 191 94 125 115 q 340 74 257 74 q 478 117 424 74 q 533 240 533 160 q 469 358 533 315 q 328 432 421 393 q 321 435 324 433 q 314 438 318 436 q 283 451 310 439 q 223 481 256 463 q 153 529 190 499 q 81 699 81 590 q 158 872 81 807 q 349 944 235 938 l 349 1085 l 425 1085 l 425 942 q 567 903 510 932 l 567 807 q 479 844 533 829 q 374 860 425 860 z "},"%":{"ha":1131,"x_min":69,"x_max":1061,"o":"m 760 291 q 741 272 760 291 q 722 199 722 253 q 760 106 722 144 q 853 68 799 68 q 945 106 907 68 q 983 199 983 144 q 945 291 983 253 q 853 329 907 329 q 760 291 799 329 m 185 801 q 166 782 185 801 q 147 708 147 763 q 185 616 147 654 q 278 578 224 578 q 370 616 332 578 q 408 708 408 654 q 370 801 408 763 q 278 839 332 839 q 185 801 224 839 m 131 561 q 100 592 131 561 q 69 708 69 622 q 131 856 69 794 q 278 917 192 917 q 425 856 364 917 q 486 708 486 794 q 425 561 486 622 q 278 500 364 500 q 131 561 192 500 m 706 51 q 675 82 706 51 q 644 199 644 113 q 706 346 644 285 q 853 407 767 407 q 1000 345 939 407 q 1061 198 1061 283 q 1000 51 1061 113 q 853 -10 939 -10 q 706 51 767 -10 m 278 -1 l 767 908 l 853 908 l 363 -1 l 278 -1 z "},"&":{"ha":963,"x_min":96,"x_max":961,"o":"m 433 -11 q 190 59 285 -11 q 96 242 96 129 q 153 381 96 324 q 319 483 210 438 q 216 617 246 561 q 186 733 186 672 q 253 897 186 833 q 433 960 321 960 q 616 891 546 960 q 686 733 686 822 q 633 581 686 644 q 457 463 581 517 q 721 221 535 392 q 763 360 754 279 l 847 360 q 783 164 835 247 l 961 0 l 839 0 l 732 100 q 433 -11 624 -11 m 597 725 q 597 757 597 725 q 555 833 597 789 q 438 876 513 876 q 320 838 364 876 q 276 742 276 800 q 300 640 276 685 q 397 519 324 596 q 549 614 501 567 q 597 725 597 661 m 429 72 q 671 157 579 72 q 378 426 393 411 q 233 344 281 385 q 185 234 185 304 q 253 118 185 164 q 429 72 322 72 z "},"'":{"ha":204,"x_min":63,"x_max":142,"o":"m 63 626 l 63 946 l 142 946 l 142 626 l 63 626 z "},"(":{"ha":421,"x_min":111,"x_max":431,"o":"m 111 364 q 168 692 111 529 q 322 982 225 854 l 421 982 q 201 355 201 681 q 431 -272 201 29 l 333 -272 q 111 364 111 11 z "},")":{"ha":421,"x_min":-10,"x_max":310,"o":"m 310 364 q 88 -272 310 11 l -10 -272 q 219 355 219 29 q 0 982 219 681 l 99 982 q 253 692 196 854 q 310 364 310 529 z "},"*":{"ha":529,"x_min":40,"x_max":488,"o":"m 314 700 l 303 700 q 346 661 325 690 l 424 553 l 368 511 l 289 619 q 264 674 268 647 q 240 618 261 647 l 161 511 l 104 551 l 183 660 q 228 700 203 686 q 205 699 222 699 q 167 706 188 699 l 40 747 l 61 814 l 189 772 q 240 744 218 763 q 228 803 228 765 l 228 936 l 297 936 l 297 803 q 288 746 297 772 q 338 775 304 764 l 465 815 l 488 750 l 360 707 q 314 700 339 700 z "},"+":{"ha":756,"x_min":83,"x_max":672,"o":"m 672 511 l 672 433 l 411 433 l 411 167 l 332 167 l 332 433 l 83 433 l 83 511 l 332 511 l 332 778 l 411 778 l 411 511 l 672 511 z "},",":{"ha":288,"x_min":-11,"x_max":240,"o":"m -11 -169 l 115 128 l 240 128 l 64 -169 l -11 -169 z "},"-":{"ha":479,"x_min":83,"x_max":396,"o":"m 83 338 l 83 414 l 396 414 l 396 338 l 83 338 z "},".":{"ha":197,"x_min":28,"x_max":169,"o":"m 48 9 q 38 19 48 9 q 28 60 28 29 q 48 110 28 90 q 99 131 68 131 q 149 110 129 131 q 169 60 169 90 q 149 9 169 29 q 99 -11 129 -11 q 48 9 68 -11 z "},"/":{"ha":538,"x_min":-15,"x_max":579,"o":"m -15 -142 l 493 982 l 579 982 l 69 -142 l -15 -142 z "},":":{"ha":308,"x_min":83,"x_max":225,"o":"m 153 -1 q 138 -1 153 -1 q 103 18 122 -1 q 83 67 83 38 q 103 118 83 97 q 153 139 124 139 q 204 118 183 139 q 225 67 225 97 q 204 18 225 38 q 153 -1 183 -1 m 153 443 q 138 443 153 443 q 103 463 122 443 q 83 512 83 482 q 103 563 83 542 q 153 583 124 583 q 204 563 183 583 q 225 512 225 542 q 204 463 225 482 q 153 443 183 443 z "},";":{"ha":288,"x_min":-11,"x_max":240,"o":"m -11 -169 l 115 128 l 240 128 l 64 -169 l -11 -169 m 165 442 q 150 442 165 442 q 115 461 135 442 q 96 510 96 481 q 116 561 96 540 q 166 582 136 582 q 217 561 196 582 q 238 510 238 540 q 217 461 238 481 q 165 442 196 442 z "},"<":{"ha":708,"x_min":83,"x_max":639,"o":"m 83 432 l 83 515 l 639 781 l 639 690 q 176 475 307 538 l 639 257 l 639 167 l 83 432 z "},"=":{"ha":756,"x_min":83,"x_max":672,"o":"m 83 299 l 83 376 l 672 376 l 672 299 l 83 299 m 83 569 l 83 646 l 672 646 l 672 569 l 83 569 z "},">":{"ha":708,"x_min":69,"x_max":625,"o":"m 625 515 l 625 432 l 69 167 l 69 257 q 532 475 399 410 l 69 690 l 69 781 l 625 515 z "},"?":{"ha":625,"x_min":56,"x_max":569,"o":"m 240 -11 q 225 -11 240 -11 q 190 8 210 -11 q 171 58 171 28 q 191 108 171 88 q 241 129 211 129 q 292 108 271 129 q 313 58 313 88 q 292 8 313 28 q 240 -11 271 -11 m 279 947 q 491 881 413 947 q 569 694 569 814 q 487 510 569 575 q 285 433 404 444 l 285 272 l 200 272 l 200 508 q 406 555 331 508 q 481 686 481 601 q 431 819 481 771 q 274 867 381 867 q 56 796 167 867 l 56 886 q 155 929 93 911 q 279 947 217 947 z "},"@":{"ha":1231,"x_min":90,"x_max":1161,"o":"m 556 -215 q 216 -80 342 -215 q 90 271 90 56 q 260 671 90 513 q 672 829 429 829 q 1020 701 879 829 q 1161 361 1161 574 q 1088 119 1161 203 q 925 36 1015 36 q 774 147 806 36 q 571 32 697 32 q 413 101 471 32 q 356 283 356 171 q 431 481 356 396 q 618 565 506 565 q 783 479 731 565 q 788 557 785 511 l 861 557 l 836 322 q 832 246 832 283 q 931 107 832 107 q 1038 178 994 107 q 1082 357 1082 249 q 965 649 1082 543 q 661 756 849 756 q 325 619 474 756 q 176 278 176 482 q 288 -33 176 74 q 549 -139 400 -139 q 797 -81 699 -139 l 792 -171 q 556 -215 708 -215 m 440 278 q 440 238 440 278 q 478 152 440 197 q 576 107 515 107 q 689 147 636 107 q 767 260 742 188 q 772 336 767 278 q 725 450 761 411 q 613 489 689 489 q 489 424 538 489 q 440 278 440 360 z "},"A":{"ha":885,"x_min":53,"x_max":832,"o":"m 739 0 l 650 260 l 236 260 l 146 0 l 53 0 l 383 936 l 508 936 l 832 0 l 739 0 m 263 336 l 625 336 l 446 864 q 263 336 393 703 z "},"B":{"ha":781,"x_min":111,"x_max":718,"o":"m 111 936 l 372 936 q 602 872 514 936 q 690 693 690 807 q 644 551 690 610 q 524 476 597 492 q 660 408 603 467 q 718 243 718 350 q 645 68 718 136 q 436 0 572 0 l 111 0 l 111 936 m 197 860 l 197 511 l 365 511 q 543 563 486 511 q 600 690 600 615 q 545 813 600 765 q 382 860 490 860 l 197 860 m 197 76 l 436 76 q 577 122 526 76 q 628 253 628 167 q 570 387 628 339 q 410 435 513 435 l 197 435 l 197 76 z "},"C":{"ha":832,"x_min":69,"x_max":776,"o":"m 535 867 q 266 758 374 867 q 158 469 158 649 q 265 181 158 290 q 547 71 371 71 q 776 143 685 71 l 776 49 q 543 -11 692 -11 q 200 118 331 -11 q 69 466 69 247 q 204 817 69 685 q 538 949 339 949 q 774 899 675 949 l 774 808 q 665 853 713 840 q 535 867 618 867 z "},"D":{"ha":910,"x_min":111,"x_max":847,"o":"m 111 936 l 378 936 q 715 808 583 936 q 847 474 847 681 q 642 69 847 200 q 385 0 535 0 l 111 0 l 111 936 m 197 79 l 385 79 q 554 113 481 79 q 671 203 628 146 q 757 475 757 317 q 651 745 757 633 q 378 857 544 857 l 197 857 l 197 79 z "},"E":{"ha":681,"x_min":111,"x_max":618,"o":"m 197 79 l 618 79 l 618 0 l 111 0 l 111 936 l 610 936 l 610 857 l 197 857 l 197 507 l 561 507 l 561 428 l 197 428 l 197 79 z "},"F":{"ha":672,"x_min":111,"x_max":610,"o":"m 610 857 l 197 857 l 197 500 l 561 500 l 561 421 l 197 421 l 197 0 l 111 0 l 111 936 l 610 936 l 610 857 z "},"G":{"ha":918,"x_min":69,"x_max":821,"o":"m 821 515 l 821 69 q 543 -11 711 -11 q 199 117 329 -11 q 69 463 69 246 q 197 817 69 681 q 518 953 324 953 q 790 888 683 953 l 790 792 q 524 867 683 867 q 262 758 365 867 q 158 467 158 649 q 261 180 158 285 q 544 75 364 75 q 735 118 651 75 l 735 439 l 514 439 l 514 515 l 821 515 z "},"H":{"ha":878,"x_min":111,"x_max":767,"o":"m 681 936 l 767 936 l 767 0 l 681 0 l 681 438 l 197 438 l 197 0 l 111 0 l 111 936 l 197 936 l 197 517 l 681 517 l 681 936 z "},"I":{"ha":322,"x_min":118,"x_max":204,"o":"m 118 0 l 118 936 l 204 936 l 204 0 l 118 0 z "},"J":{"ha":485,"x_min":42,"x_max":374,"o":"m 161 82 q 288 215 288 82 l 288 936 l 374 936 l 374 229 q 169 0 374 0 q 42 32 94 0 l 42 119 q 161 82 97 82 z "},"K":{"ha":763,"x_min":111,"x_max":721,"o":"m 332 461 l 721 0 l 607 0 l 222 461 l 593 936 l 701 936 l 332 461 m 111 0 l 111 936 l 197 936 l 197 0 l 111 0 z "},"L":{"ha":658,"x_min":111,"x_max":610,"o":"m 197 79 l 610 79 l 610 0 l 111 0 l 111 936 l 197 936 l 197 79 z "},"M":{"ha":1178,"x_min":104,"x_max":1075,"o":"m 104 0 l 169 936 l 288 936 l 410 593 l 575 117 q 878 936 671 379 l 996 936 l 1075 0 l 989 0 l 919 824 q 625 24 831 575 l 524 24 l 246 814 q 190 0 233 610 l 104 0 z "},"N":{"ha":926,"x_min":111,"x_max":815,"o":"m 111 0 l 111 936 l 229 936 l 732 101 q 729 539 729 246 l 729 936 l 815 936 l 815 0 l 697 0 l 194 835 q 197 396 197 685 l 197 0 l 111 0 z "},"O":{"ha":960,"x_min":69,"x_max":890,"o":"m 481 872 q 405 872 481 872 q 244 766 329 872 q 158 474 158 660 q 247 180 158 288 q 485 72 335 72 q 718 178 635 72 q 801 473 801 285 q 717 767 801 661 q 481 872 633 872 m 483 -11 q 390 -11 483 -11 q 183 121 296 -11 q 69 473 69 253 q 180 824 69 693 q 482 956 290 956 q 782 826 674 956 q 890 473 890 696 q 781 119 890 250 q 483 -11 671 -11 z "},"P":{"ha":750,"x_min":111,"x_max":688,"o":"m 111 936 l 336 936 q 594 853 500 936 q 688 645 688 771 q 597 438 688 519 q 351 356 506 356 l 197 356 l 197 0 l 111 0 l 111 936 m 197 432 l 361 432 q 535 490 471 432 q 600 644 600 549 q 533 799 600 739 q 346 860 467 860 l 197 860 l 197 432 z "},"Q":{"ha":974,"x_min":69,"x_max":928,"o":"m 482 -11 q 183 121 296 -11 q 69 473 69 253 q 180 824 69 693 q 482 956 290 956 q 782 826 674 956 q 890 472 890 696 q 828 190 890 307 q 653 24 765 74 l 928 -154 l 838 -193 l 557 -6 q 482 -11 525 -11 m 481 872 q 405 872 481 872 q 244 766 329 872 q 158 474 158 660 q 247 180 158 288 q 485 72 335 72 q 718 178 635 72 q 801 473 801 285 q 717 767 801 661 q 481 872 633 872 z "},"R":{"ha":738,"x_min":111,"x_max":703,"o":"m 365 381 l 197 381 l 197 0 l 111 0 l 111 936 l 322 936 q 567 862 486 936 q 649 651 649 788 q 596 489 646 557 q 454 396 546 421 l 703 0 l 600 0 l 365 381 m 197 457 l 349 457 q 507 514 451 457 q 563 656 563 571 q 332 860 563 860 l 197 860 l 197 457 z "},"S":{"ha":732,"x_min":101,"x_max":642,"o":"m 394 860 q 246 816 301 860 q 190 700 190 772 q 254 581 190 625 q 374 515 306 543 q 467 474 442 486 q 531 438 492 463 q 589 389 569 413 q 642 242 642 325 q 560 55 642 119 q 342 -10 478 -10 q 104 51 206 -10 l 104 147 q 212 94 146 115 q 361 74 278 74 q 499 117 444 74 q 554 231 554 160 q 513 339 554 301 q 343 433 467 381 q 205 503 228 483 q 160 543 182 522 q 128 585 138 564 q 101 694 101 642 q 186 878 101 813 q 390 944 271 944 q 588 903 510 944 l 588 807 q 500 844 554 829 q 394 860 446 860 z "},"T":{"ha":646,"x_min":21,"x_max":625,"o":"m 625 936 l 625 857 l 365 857 l 365 0 l 279 0 l 279 857 l 21 857 l 21 936 l 625 936 z "},"U":{"ha":888,"x_min":111,"x_max":776,"o":"m 690 351 l 690 936 l 776 936 l 776 354 q 689 81 776 174 q 443 -11 601 -11 q 198 79 285 -11 q 111 343 111 169 l 111 936 l 197 936 l 197 344 q 263 138 197 204 q 442 72 329 72 q 690 351 690 72 z "},"V":{"ha":876,"x_min":56,"x_max":821,"o":"m 821 936 l 492 0 l 374 0 l 56 936 l 149 936 l 433 76 l 728 936 l 821 936 z "},"W":{"ha":1290,"x_min":56,"x_max":1235,"o":"m 600 922 l 701 922 l 961 82 q 1149 936 1029 396 l 1235 936 l 1022 0 l 904 0 l 653 810 q 417 0 607 644 l 299 0 l 56 936 l 146 936 l 360 88 q 600 922 439 368 z "},"X":{"ha":833,"x_min":58,"x_max":775,"o":"m 361 472 l 76 936 l 176 936 l 408 550 l 640 936 l 740 936 l 457 472 l 775 0 l 675 0 l 410 399 l 158 0 l 58 0 l 361 472 z "},"Y":{"ha":806,"x_min":42,"x_max":764,"o":"m 444 0 l 358 0 l 358 350 l 42 936 l 140 936 l 214 799 l 401 438 q 665 936 413 464 l 764 936 l 444 350 l 444 0 z "},"Z":{"ha":771,"x_min":69,"x_max":701,"o":"m 681 936 l 681 860 l 167 76 l 701 76 l 701 0 l 69 0 l 69 76 l 583 860 l 75 860 l 75 936 l 681 936 z "},"[":{"ha":411,"x_min":111,"x_max":411,"o":"m 411 906 l 197 906 l 197 -171 l 411 -171 l 411 -249 l 111 -249 l 111 982 l 411 982 l 411 906 z "},"\\":{"ha":536,"x_min":-42,"x_max":553,"o":"m 44 982 l 553 -143 l 467 -143 l -42 982 l 44 982 z "},"]":{"ha":411,"x_min":0,"x_max":300,"o":"m 300 982 l 300 -249 l 0 -249 l 0 -171 l 214 -171 l 214 906 l 0 906 l 0 982 l 300 982 z "},"^":{"ha":629,"x_min":67,"x_max":563,"o":"m 563 461 l 474 461 l 317 775 l 156 461 l 67 461 l 261 825 l 375 825 l 563 461 z "},"_":{"ha":785,"x_min":42,"x_max":743,"o":"m 42 -114 l 42 -37 l 743 -37 l 743 -114 l 42 -114 z "},"`":{"ha":556,"x_min":153,"x_max":407,"o":"m 265 1108 l 407 900 l 331 900 l 153 1108 l 265 1108 z "},"a":{"ha":675,"x_min":69,"x_max":578,"o":"m 319 715 q 578 444 578 715 l 578 0 l 493 0 l 493 82 q 290 -7 435 -7 q 131 51 193 -7 q 69 204 69 108 q 148 356 69 300 q 356 413 226 413 l 493 413 l 493 444 q 453 587 493 539 q 310 635 413 635 q 121 575 208 635 l 121 667 q 319 715 201 715 m 493 335 l 356 335 q 208 297 257 335 q 160 201 160 258 q 198 107 160 143 q 315 71 236 71 q 443 117 393 71 q 493 233 493 163 l 493 335 z "},"b":{"ha":776,"x_min":111,"x_max":714,"o":"m 196 982 l 196 599 q 409 715 274 715 q 629 612 544 715 q 714 352 714 508 q 635 92 714 196 q 413 -11 556 -11 q 196 103 269 -11 l 196 0 l 111 0 l 111 982 l 196 982 m 261 135 q 294 102 261 135 q 417 69 326 69 q 566 146 507 69 q 625 353 625 222 q 564 559 625 483 q 408 635 503 635 q 272 578 338 635 q 217 491 239 549 q 196 356 196 433 q 261 135 196 201 z "},"c":{"ha":656,"x_min":63,"x_max":579,"o":"m 433 635 q 228 551 304 635 q 151 348 151 467 q 225 147 151 229 q 435 65 299 65 q 579 110 519 65 l 579 24 q 425 -17 519 -17 q 158 91 254 -17 q 63 348 63 199 q 160 607 63 497 q 425 717 258 717 q 579 679 511 717 l 579 593 q 433 635 517 635 z "},"d":{"ha":771,"x_min":63,"x_max":665,"o":"m 581 982 l 665 982 l 665 0 l 581 0 l 581 103 q 364 -11 507 -11 q 142 92 221 -11 q 63 352 63 196 q 147 612 63 508 q 367 715 232 715 q 581 599 503 715 l 581 982 m 210 146 q 240 108 210 146 q 360 69 269 69 q 515 135 450 69 q 581 356 581 201 q 559 491 581 433 q 503 578 538 549 q 368 635 439 635 q 213 559 274 635 q 151 353 151 483 q 210 146 151 222 z "},"e":{"ha":721,"x_min":63,"x_max":654,"o":"m 415 -7 q 160 91 258 -7 q 63 353 63 189 q 149 615 63 518 q 368 713 235 713 q 578 628 501 713 q 654 389 654 543 q 649 314 654 342 l 151 314 q 232 135 161 197 q 421 74 303 74 q 610 121 539 74 l 610 35 q 415 -7 526 -7 m 567 392 l 567 424 q 513 576 567 519 q 370 633 460 633 q 221 571 281 633 q 151 392 161 508 l 567 392 z "},"f":{"ha":451,"x_min":42,"x_max":418,"o":"m 418 897 q 352 908 389 908 q 285 876 315 908 q 256 778 256 843 l 256 704 l 417 704 l 417 632 l 256 632 l 256 0 l 171 0 l 171 632 l 42 632 l 42 704 l 171 704 l 171 779 q 221 932 171 875 q 361 989 271 989 q 418 981 388 989 l 418 897 z "},"g":{"ha":749,"x_min":63,"x_max":651,"o":"m 567 704 l 651 704 l 651 54 q 565 -185 651 -106 q 351 -265 479 -265 q 138 -225 222 -265 l 138 -142 q 333 -185 224 -185 q 504 -127 442 -185 q 567 54 567 -69 l 567 146 q 356 17 496 17 q 148 107 233 17 q 63 353 63 197 q 141 613 63 510 q 347 715 219 715 q 567 581 499 715 l 567 704 m 151 354 q 151 292 151 354 q 215 163 151 229 q 358 97 279 97 q 501 159 436 97 q 567 358 567 221 q 504 565 567 494 q 364 635 442 635 q 208 557 265 635 q 151 354 151 479 z "},"h":{"ha":735,"x_min":106,"x_max":638,"o":"m 190 982 l 190 583 q 414 715 254 715 q 576 653 515 715 q 638 492 638 590 l 638 0 l 553 0 l 553 465 q 511 590 553 547 q 392 633 469 633 q 253 567 315 633 q 190 389 190 501 l 190 0 l 106 0 l 106 982 l 190 982 z "},"i":{"ha":307,"x_min":94,"x_max":213,"o":"m 111 888 q 103 896 111 888 q 94 929 94 904 q 111 972 94 954 q 153 989 128 989 q 195 972 178 989 q 213 929 213 954 q 195 888 213 904 q 153 871 178 871 q 111 888 128 871 m 111 0 l 111 704 l 196 704 l 196 0 l 111 0 z "},"j":{"ha":300,"x_min":-65,"x_max":211,"o":"m 110 888 q 101 896 110 888 q 93 929 93 904 q 110 972 93 954 q 151 989 126 989 q 194 972 176 989 q 211 929 211 954 q 194 888 211 904 q 151 871 176 871 q 110 888 126 871 m 32 -189 q 111 -86 111 -189 l 111 704 l 196 704 l 196 -89 q 152 -222 196 -175 q 31 -269 108 -269 q -65 -250 -15 -269 l -65 -167 q 32 -189 -17 -189 z "},"k":{"ha":642,"x_min":106,"x_max":611,"o":"m 314 369 l 611 0 l 506 0 l 211 369 l 497 704 l 601 704 l 314 369 m 106 0 l 106 982 l 190 982 l 190 0 l 106 0 z "},"l":{"ha":307,"x_min":111,"x_max":196,"o":"m 111 0 l 111 982 l 196 982 l 196 0 l 111 0 z "},"m":{"ha":1121,"x_min":106,"x_max":1024,"o":"m 190 704 l 190 589 q 388 715 250 715 q 596 576 557 715 q 804 715 661 715 q 969 653 915 715 q 1024 492 1024 592 l 1024 0 l 939 0 l 939 465 q 792 633 939 633 q 663 567 719 633 q 607 389 607 500 l 607 0 l 522 0 l 522 465 q 375 633 522 633 q 247 567 303 633 q 190 389 190 500 l 190 0 l 106 0 l 106 704 l 190 704 z "},"n":{"ha":735,"x_min":106,"x_max":638,"o":"m 190 704 l 190 583 q 414 715 256 715 q 576 653 515 715 q 638 492 638 590 l 638 0 l 553 0 l 553 465 q 511 590 553 547 q 392 633 469 633 q 253 567 315 633 q 190 389 190 501 l 190 0 l 106 0 l 106 704 l 190 704 z "},"o":{"ha":779,"x_min":63,"x_max":717,"o":"m 628 351 q 628 411 628 351 q 568 552 628 471 q 392 633 508 633 q 214 550 276 633 q 151 350 151 467 q 216 151 151 233 q 391 68 281 68 q 565 149 501 68 q 628 351 628 231 m 717 349 q 717 270 717 349 q 628 90 717 192 q 389 -12 540 -12 q 150 90 238 -12 q 63 348 63 193 q 153 608 63 503 q 393 714 243 714 q 630 610 543 714 q 717 349 717 507 z "},"p":{"ha":771,"x_min":106,"x_max":708,"o":"m 190 704 l 190 601 q 407 715 264 715 q 629 612 550 715 q 708 352 708 508 q 624 92 708 196 q 403 -11 539 -11 q 190 106 268 -11 l 190 -278 l 106 -278 l 106 704 l 190 704 m 403 69 q 558 145 497 69 q 619 351 619 221 q 560 558 619 482 q 411 635 501 635 q 256 569 321 635 q 190 349 190 503 q 212 213 190 271 q 267 125 233 156 q 403 69 332 69 z "},"q":{"ha":771,"x_min":63,"x_max":665,"o":"m 581 704 l 665 704 l 665 -278 l 581 -278 l 581 106 q 367 -11 503 -11 q 147 92 232 -11 q 63 352 63 196 q 142 612 63 508 q 364 715 221 715 q 581 601 507 715 l 581 704 m 368 69 q 503 125 439 69 q 559 213 538 156 q 581 349 581 271 q 515 569 581 503 q 360 635 450 635 q 210 558 269 635 q 151 351 151 482 q 213 145 151 221 q 368 69 274 69 z "},"r":{"ha":436,"x_min":106,"x_max":422,"o":"m 190 704 l 190 585 q 388 713 249 713 q 422 710 397 713 l 422 624 q 367 632 394 632 q 241 558 292 632 q 190 393 190 483 l 190 0 l 106 0 l 106 704 l 190 704 z "},"s":{"ha":564,"x_min":79,"x_max":515,"o":"m 297 632 q 201 603 236 632 q 165 538 165 575 q 176 481 165 501 q 211 442 186 460 q 328 387 244 421 q 463 306 411 353 q 515 176 515 260 q 455 42 515 93 q 278 -8 394 -8 q 83 33 161 -8 l 83 121 q 283 68 176 68 q 391 97 354 68 q 428 178 428 126 q 390 260 428 229 q 265 324 351 290 q 129 403 179 358 q 79 528 79 447 q 142 660 79 610 q 308 711 204 711 q 474 679 413 711 l 474 594 q 297 632 408 632 z "},"t":{"ha":506,"x_min":35,"x_max":443,"o":"m 236 632 l 236 194 q 349 74 236 74 q 443 106 404 74 l 443 19 q 350 -7 403 -7 q 150 199 150 -7 l 150 632 l 35 632 l 35 704 l 150 704 l 150 881 l 236 881 l 236 704 l 438 704 l 438 632 l 236 632 z "},"u":{"ha":735,"x_min":97,"x_max":629,"o":"m 544 704 l 629 704 l 629 0 l 544 0 l 544 126 q 321 -10 489 -10 q 158 52 218 -10 q 97 215 97 114 l 97 704 l 182 704 l 182 239 q 224 115 182 158 q 336 72 267 72 q 487 139 429 72 q 544 313 544 206 l 544 704 z "},"v":{"ha":690,"x_min":42,"x_max":649,"o":"m 285 0 l 42 704 l 131 704 l 342 68 q 560 704 351 106 l 649 704 l 399 0 l 285 0 z "},"w":{"ha":1094,"x_min":42,"x_max":1053,"o":"m 257 0 l 42 704 l 135 704 q 313 85 282 208 q 490 704 319 110 l 590 704 l 774 82 q 964 704 797 168 l 1053 704 l 831 0 l 717 0 l 540 606 q 371 0 500 454 l 257 0 z "},"x":{"ha":646,"x_min":38,"x_max":608,"o":"m 372 361 l 608 0 l 507 0 l 322 296 l 133 0 l 38 0 l 269 363 l 51 706 l 151 706 l 324 428 l 494 706 l 593 706 l 372 361 z "},"y":{"ha":669,"x_min":13,"x_max":643,"o":"m 99 -233 q 46 -226 71 -233 l 46 -143 q 93 -150 71 -150 q 300 19 242 -150 l 13 704 l 110 704 l 342 129 q 549 704 356 175 l 643 704 l 388 18 q 263 -179 335 -125 q 99 -233 190 -233 z "},"z":{"ha":619,"x_min":63,"x_max":557,"o":"m 538 704 l 538 640 l 163 83 l 557 83 l 557 0 l 63 0 l 63 71 l 432 622 l 76 622 l 76 704 l 538 704 z "},"{":{"ha":447,"x_min":69,"x_max":433,"o":"m 326 171 q 310 53 326 128 q 294 -67 294 -22 q 317 -142 294 -111 q 386 -174 340 -174 q 433 -161 411 -174 l 433 -247 q 375 -257 406 -257 q 255 -204 304 -257 q 206 -61 206 -151 q 222 47 206 -22 q 238 149 238 115 q 114 322 238 292 q 69 325 103 325 l 69 410 q 206 469 165 410 q 238 583 238 517 q 222 685 238 617 q 206 793 206 754 q 255 936 206 883 q 375 989 304 989 q 433 979 406 989 l 433 893 q 386 906 410 906 q 317 874 340 906 q 294 799 294 843 q 310 679 294 754 q 326 561 326 604 q 284 433 326 486 q 156 367 242 381 q 284 299 242 353 q 326 171 326 246 z "},"|":{"ha":297,"x_min":111,"x_max":186,"o":"m 111 -269 l 111 965 l 186 965 l 186 -269 l 111 -269 z "},"}":{"ha":447,"x_min":14,"x_max":378,"o":"m 121 561 q 137 679 121 604 q 153 799 153 754 q 130 874 153 843 q 61 906 107 906 q 14 893 36 906 l 14 979 q 72 989 42 989 q 192 936 143 989 q 242 793 242 883 q 226 685 242 754 q 210 583 210 617 q 242 469 210 517 q 378 410 282 410 l 378 325 q 333 322 344 325 q 210 149 210 292 q 226 47 210 115 q 242 -61 242 -22 q 192 -204 242 -151 q 72 -257 143 -257 q 14 -247 42 -257 l 14 -161 q 61 -174 36 -174 q 130 -142 107 -174 q 153 -67 153 -111 q 137 53 153 -22 q 121 171 121 128 q 163 299 121 246 q 292 367 206 353 q 163 433 206 381 q 121 561 121 486 z "},"~":{"ha":813,"x_min":53,"x_max":758,"o":"m 571 271 q 409 327 508 271 q 274 383 310 383 q 108 283 176 383 l 53 335 q 264 461 143 461 q 428 406 333 461 q 571 350 524 350 q 693 433 649 350 l 758 389 q 571 271 685 271 z "}," ":{"ha":336,"x_min":0,"x_max":0,"o":""},"¡":{"ha":335,"x_min":96,"x_max":238,"o":"m 125 -229 l 125 435 l 210 435 l 210 -229 l 125 -229 m 166 578 q 151 578 166 578 q 116 599 136 578 q 96 649 96 619 q 115 699 96 679 q 165 718 135 718 q 217 699 196 718 q 238 649 238 679 q 217 599 238 619 q 166 578 196 578 z "},"¢":{"ha":618,"x_min":69,"x_max":563,"o":"m 440 629 q 235 547 311 629 q 158 348 158 465 q 232 151 158 231 q 442 71 306 71 q 563 101 508 71 l 563 15 q 454 -10 506 -8 l 454 -154 l 378 -154 l 378 -8 q 151 111 232 10 q 69 348 69 213 q 152 587 69 483 q 378 708 235 690 l 378 853 l 454 853 l 454 710 q 563 683 506 707 l 563 597 q 440 629 503 629 z "},"£":{"ha":718,"x_min":90,"x_max":663,"o":"m 663 76 l 663 0 l 90 0 l 90 72 q 207 169 176 111 q 238 346 238 228 q 233 415 238 378 l 100 415 l 100 486 l 226 486 q 214 635 214 606 q 286 843 214 771 q 486 915 358 915 q 626 882 560 915 l 626 796 q 488 833 558 833 q 297 643 297 833 q 310 486 297 608 l 565 486 l 565 415 l 318 415 q 321 347 321 368 q 290 168 321 226 q 204 76 258 110 l 663 76 z "},"¤":{"ha":744,"x_min":50,"x_max":694,"o":"m 213 595 q 181 564 213 595 q 150 435 150 532 q 213 274 150 338 q 372 211 275 211 q 532 274 469 211 q 594 433 594 336 q 532 594 594 531 q 372 658 469 658 q 213 595 275 658 m 131 249 q 75 428 75 324 q 135 613 75 533 l 50 699 l 107 756 l 192 669 q 376 731 272 731 q 557 675 479 731 l 638 756 l 694 699 l 614 618 q 669 438 669 540 q 607 254 669 335 l 694 168 l 638 111 l 550 197 q 367 139 472 139 q 189 193 263 139 l 107 111 l 50 168 l 131 249 z "},"¥":{"ha":794,"x_min":56,"x_max":733,"o":"m 685 503 l 685 433 l 481 433 l 436 350 l 436 301 l 685 301 l 685 232 l 436 232 l 436 0 l 350 0 l 350 232 l 101 232 l 101 301 l 350 301 l 350 350 l 306 433 l 101 433 l 101 503 l 269 503 l 56 908 l 150 908 l 393 432 l 639 908 l 733 908 l 518 503 l 685 503 z "},"¦":{"ha":297,"x_min":111,"x_max":186,"o":"m 186 -269 l 111 -269 l 111 188 l 186 188 l 186 -269 m 186 508 l 111 508 l 111 965 l 186 965 l 186 508 z "},"§":{"ha":679,"x_min":69,"x_max":610,"o":"m 363 860 q 213 822 267 860 q 158 714 158 785 q 186 635 158 665 q 244 595 211 608 q 310 569 278 582 q 376 542 342 557 q 435 516 410 528 q 499 479 460 504 q 558 431 538 454 q 610 274 610 367 q 550 118 610 182 q 610 -36 610 56 q 528 -223 610 -158 q 310 -287 446 -287 q 72 -226 174 -287 l 72 -131 q 180 -183 114 -162 q 329 -204 246 -204 q 467 -161 413 -204 q 522 -47 522 -118 q 481 61 522 24 q 311 156 435 103 q 173 225 196 206 q 128 265 150 244 q 96 307 106 286 q 69 417 69 364 q 125 574 69 510 q 69 708 69 626 q 153 885 69 825 q 357 944 236 944 q 556 903 478 944 l 556 807 q 468 844 522 829 q 363 860 414 860 m 156 419 q 244 283 156 335 q 365 225 285 260 q 483 168 444 190 q 525 278 525 213 q 482 383 525 344 q 360 457 439 422 q 283 488 340 465 q 196 525 225 511 q 156 419 156 485 z "},"¨":{"ha":556,"x_min":90,"x_max":465,"o":"m 406 949 q 393 949 406 949 q 363 966 381 949 q 346 1009 346 983 q 363 1051 346 1035 q 406 1068 381 1068 q 449 1051 432 1068 q 465 1009 465 1035 q 449 966 465 983 q 406 949 432 949 m 149 949 q 136 949 149 949 q 107 966 124 949 q 90 1009 90 983 q 107 1051 90 1035 q 149 1068 124 1068 q 192 1051 175 1068 q 210 1009 210 1035 q 192 966 210 983 q 149 949 175 949 z "},"©":{"ha":1083,"x_min":63,"x_max":1021,"o":"m 583 660 q 444 604 497 660 q 392 465 392 549 q 444 325 392 381 q 574 269 497 269 q 690 304 650 269 l 690 225 q 578 194 649 194 q 382 274 453 194 q 311 463 311 353 q 383 653 311 572 q 578 735 454 735 q 690 707 642 735 l 690 628 q 583 660 643 660 m 262 749 q 203 690 262 749 q 144 467 144 631 q 262 185 144 303 q 543 68 379 68 q 824 185 707 68 q 942 467 942 303 q 824 749 942 631 q 543 867 707 867 q 262 749 379 867 m 204 129 q 133 200 204 129 q 63 467 63 271 q 204 805 63 663 q 542 947 346 947 q 879 805 738 947 q 1021 467 1021 663 q 879 129 1021 271 q 542 -12 738 -12 q 204 129 346 -12 z "},"ª":{"ha":468,"x_min":0,"x_max":426,"o":"m 210 1146 q 426 918 426 1146 l 426 544 l 356 544 l 356 619 q 196 539 289 539 q 51 585 103 539 q 0 715 0 632 q 66 845 0 797 q 243 893 132 893 l 356 893 l 356 918 q 322 1038 356 997 q 202 1079 289 1079 q 43 1029 115 1079 l 43 1103 q 210 1146 113 1146 m 356 824 l 260 824 q 74 713 74 824 q 107 636 74 665 q 203 607 140 607 q 311 644 267 607 q 356 732 356 682 l 356 824 z "},"«":{"ha":625,"x_min":38,"x_max":589,"o":"m 589 576 l 385 351 l 589 126 l 492 126 l 283 351 l 492 576 l 589 576 m 343 576 l 139 351 l 343 126 l 246 126 l 38 351 l 246 576 l 343 576 z "},"¬":{"ha":743,"x_min":28,"x_max":694,"o":"m 694 231 l 610 231 l 610 490 l 28 490 l 28 572 l 694 572 l 694 231 z "},"­":{"ha":479,"x_min":83,"x_max":396,"o":"m 83 338 l 83 414 l 396 414 l 396 338 l 83 338 z "},"®":{"ha":608,"x_min":14,"x_max":594,"o":"m 96 1013 q 137 1053 96 1013 q 304 1094 178 1094 q 513 1013 431 1094 q 594 804 594 931 q 513 597 594 678 q 304 515 431 515 q 96 597 178 515 q 14 804 14 678 q 96 1013 14 931 m 76 804 q 76 753 76 804 q 139 638 76 701 q 305 575 201 575 q 472 638 408 575 q 535 804 535 701 q 472 971 535 907 q 305 1035 408 1035 q 139 971 201 1035 q 76 804 76 907 m 215 958 l 297 958 q 407 867 407 958 q 358 786 407 807 l 431 669 l 364 669 l 301 775 l 272 775 l 272 669 l 215 669 l 215 958 m 272 911 l 272 821 l 308 821 q 350 866 350 821 q 304 911 350 911 l 272 911 z "},"¯":{"ha":556,"x_min":94,"x_max":460,"o":"m 460 978 l 94 978 l 94 1040 l 460 1040 l 460 978 z "},"°":{"ha":461,"x_min":42,"x_max":419,"o":"m 228 871 q 203 871 228 871 q 147 837 178 871 q 115 752 115 803 q 149 667 115 701 q 233 632 183 632 q 315 666 283 632 q 346 751 346 700 q 312 836 346 801 q 228 871 278 871 m 93 617 q 67 642 93 617 q 42 749 42 667 q 96 883 42 831 q 233 936 150 936 q 368 886 317 936 q 419 754 419 836 q 365 619 419 672 q 228 567 311 567 q 93 617 144 567 z "},"±":{"ha":756,"x_min":83,"x_max":672,"o":"m 411 539 l 672 539 l 672 461 l 411 461 l 411 215 l 332 215 l 332 461 l 83 461 l 83 539 l 332 539 l 332 785 l 411 785 l 411 539 m 83 43 l 83 121 l 672 121 l 672 43 l 83 43 z "},"²":{"ha":507,"x_min":69,"x_max":451,"o":"m 69 544 l 69 601 q 354 964 354 818 q 323 1051 354 1022 q 242 1079 292 1079 q 90 1018 167 1079 l 90 1100 q 241 1146 165 1146 q 374 1099 317 1146 q 431 969 431 1053 q 360 791 431 886 q 178 608 290 696 l 451 608 l 451 544 l 69 544 z "},"³":{"ha":442,"x_min":49,"x_max":393,"o":"m 140 878 l 178 878 q 263 906 228 878 q 299 983 299 935 q 190 1079 299 1079 q 64 1036 131 1079 l 64 1110 q 200 1146 121 1146 q 326 1101 279 1146 q 374 988 374 1056 q 265 849 374 876 q 355 803 317 844 q 393 697 393 763 q 343 585 393 631 q 206 539 293 539 q 49 572 118 539 l 49 643 q 186 606 118 606 q 318 706 318 606 q 281 785 318 757 q 178 814 243 814 l 140 814 l 140 878 z "},"´":{"ha":556,"x_min":153,"x_max":407,"o":"m 153 900 l 294 1108 l 407 1108 l 229 900 l 153 900 z "},"µ":{"ha":743,"x_min":106,"x_max":638,"o":"m 553 704 l 638 704 l 638 0 l 553 0 l 553 113 q 357 -10 503 -10 q 190 56 251 -10 l 190 -249 l 106 -249 l 106 704 l 190 704 l 190 239 q 244 116 190 160 q 376 72 299 72 q 503 139 454 72 q 553 313 553 206 l 553 704 z "},"¶":{"ha":740,"x_min":42,"x_max":635,"o":"m 551 -206 l 551 936 l 635 936 l 635 -206 l 551 -206 m 383 936 l 383 -206 l 300 -206 l 300 482 q 110 545 178 482 q 42 703 42 608 q 110 867 42 797 q 299 936 179 936 l 383 936 z "},"·":{"ha":308,"x_min":83,"x_max":225,"o":"m 103 417 q 93 427 103 417 q 83 468 83 438 q 103 519 83 499 q 154 539 124 539 q 205 519 185 539 q 225 468 225 499 q 205 417 225 438 q 154 397 185 397 q 103 417 124 397 z "},"¸":{"ha":556,"x_min":178,"x_max":376,"o":"m 351 -71 q 376 -174 376 -107 q 325 -290 376 -240 q 178 -344 274 -340 l 178 -276 q 299 -175 299 -264 q 267 -71 299 -124 l 351 -71 z "},"¹":{"ha":336,"x_min":14,"x_max":231,"o":"m 231 1140 l 231 544 l 158 544 l 158 1053 l 14 972 l 14 1051 l 171 1140 l 231 1140 z "},"º":{"ha":497,"x_min":-14,"x_max":511,"o":"m 436 842 q 436 894 436 842 q 390 1014 436 946 q 251 1082 344 1082 q 109 1011 158 1082 q 60 841 60 940 q 111 672 60 742 q 250 603 163 603 q 387 671 338 603 q 436 842 436 739 m 511 842 q 511 775 511 842 q 441 622 511 708 q 248 536 371 536 q 56 623 125 536 q -14 840 -14 710 q 58 1060 -14 971 q 251 1149 129 1149 q 442 1062 374 1149 q 511 842 511 975 z "},"»":{"ha":629,"x_min":36,"x_max":588,"o":"m 379 576 l 588 351 l 379 126 l 282 126 l 486 351 l 282 576 l 379 576 m 133 576 l 342 351 l 133 126 l 36 126 l 240 351 l 36 576 l 133 576 z "},"¿":{"ha":625,"x_min":56,"x_max":569,"o":"m 385 718 q 400 718 385 718 q 435 699 415 718 q 454 649 454 679 q 434 599 454 619 q 384 578 414 578 q 333 599 354 578 q 313 649 313 619 q 333 699 313 679 q 385 718 354 718 m 346 -240 q 134 -174 213 -240 q 56 13 56 -107 q 138 197 56 132 q 340 274 221 263 l 340 435 l 425 435 l 425 199 q 219 152 294 199 q 144 21 144 106 q 194 -112 144 -64 q 351 -160 244 -160 q 569 -89 458 -160 l 569 -179 q 470 -222 532 -204 q 346 -240 408 -240 z "},"À":{"ha":885,"x_min":53,"x_max":832,"o":"m 739 0 l 650 260 l 236 260 l 146 0 l 53 0 l 383 936 l 508 936 l 832 0 l 739 0 m 263 336 l 625 336 l 446 864 q 263 336 393 703 m 474 1013 l 397 1013 l 219 1221 l 332 1221 l 474 1013 z "},"Á":{"ha":885,"x_min":53,"x_max":832,"o":"m 739 0 l 650 260 l 236 260 l 146 0 l 53 0 l 383 936 l 508 936 l 832 0 l 739 0 m 263 336 l 625 336 l 446 864 q 263 336 393 703 m 671 1221 l 493 1013 l 417 1013 l 558 1221 l 671 1221 z "},"Â":{"ha":885,"x_min":53,"x_max":832,"o":"m 739 0 l 650 260 l 236 260 l 146 0 l 53 0 l 383 936 l 508 936 l 832 0 l 739 0 m 263 336 l 625 336 l 446 864 q 263 336 393 703 m 446 1161 l 326 1013 l 238 1013 l 403 1221 l 490 1221 l 656 1013 l 567 1013 l 446 1161 z "},"Ã":{"ha":885,"x_min":53,"x_max":832,"o":"m 739 0 l 650 260 l 236 260 l 146 0 l 53 0 l 383 936 l 508 936 l 832 0 l 739 0 m 263 336 l 625 336 l 446 864 q 263 336 393 703 m 546 1058 q 449 1090 511 1058 q 365 1122 388 1122 q 272 1054 307 1122 l 222 1096 q 277 1163 240 1136 q 355 1190 314 1190 q 456 1158 396 1190 q 542 1126 517 1126 q 611 1186 583 1126 l 669 1147 q 546 1058 628 1058 z "},"Ä":{"ha":885,"x_min":53,"x_max":832,"o":"m 739 0 l 650 260 l 236 260 l 146 0 l 53 0 l 383 936 l 508 936 l 832 0 l 739 0 m 263 336 l 625 336 l 446 864 q 263 336 393 703 m 378 1119 q 378 1106 378 1119 q 360 1076 378 1093 q 317 1058 343 1058 q 275 1076 292 1058 q 258 1119 258 1093 q 275 1161 258 1144 q 317 1178 292 1178 q 360 1161 343 1178 q 378 1119 378 1144 m 633 1119 q 633 1106 633 1119 q 617 1076 633 1093 q 574 1058 600 1058 q 531 1076 549 1058 q 514 1119 514 1093 q 531 1161 514 1144 q 574 1178 549 1178 q 617 1161 600 1178 q 633 1119 633 1144 z "},"Å":{"ha":885,"x_min":53,"x_max":832,"o":"m 739 0 l 650 260 l 236 260 l 146 0 l 53 0 l 383 936 l 508 936 l 832 0 l 739 0 m 263 336 l 625 336 l 446 864 q 263 336 393 703 m 543 1038 q 523 1018 543 1038 q 446 999 503 999 q 349 1038 389 999 q 310 1135 310 1078 q 349 1232 310 1192 q 446 1272 389 1272 q 543 1232 503 1272 q 583 1135 583 1192 q 543 1038 583 1078 m 521 1135 q 521 1151 521 1135 q 499 1188 521 1167 q 447 1210 478 1210 q 394 1188 415 1210 q 372 1135 372 1165 q 394 1083 372 1104 q 446 1061 415 1061 q 499 1083 476 1061 q 521 1135 521 1104 z "},"Æ":{"ha":1199,"x_min":38,"x_max":1136,"o":"m 715 79 l 1136 79 l 1136 0 l 629 0 l 629 260 l 285 260 l 131 0 l 38 0 l 590 936 l 1128 936 l 1128 857 l 715 857 l 715 507 l 1079 507 l 1079 428 l 715 428 l 715 79 m 629 336 l 629 850 q 331 336 538 683 l 629 336 z "},"Ç":{"ha":832,"x_min":69,"x_max":776,"o":"m 535 867 q 266 758 374 867 q 158 469 158 649 q 265 181 158 290 q 547 71 371 71 q 776 143 685 71 l 776 49 q 543 -11 692 -11 q 200 118 331 -11 q 69 466 69 247 q 204 817 69 685 q 538 949 339 949 q 774 899 675 949 l 774 808 q 665 853 713 840 q 535 867 618 867 m 551 -71 q 576 -174 576 -107 q 525 -290 576 -240 q 378 -344 474 -340 l 378 -276 q 499 -175 499 -264 q 467 -71 499 -124 l 551 -71 z "},"È":{"ha":681,"x_min":111,"x_max":618,"o":"m 197 79 l 618 79 l 618 0 l 111 0 l 111 936 l 610 936 l 610 857 l 197 857 l 197 507 l 561 507 l 561 428 l 197 428 l 197 79 m 435 1011 l 358 1011 l 181 1219 l 293 1219 l 435 1011 z "},"É":{"ha":681,"x_min":111,"x_max":618,"o":"m 197 79 l 618 79 l 618 0 l 111 0 l 111 936 l 610 936 l 610 857 l 197 857 l 197 507 l 561 507 l 561 428 l 197 428 l 197 79 m 601 1221 l 424 1013 l 347 1013 l 489 1221 l 601 1221 z "},"Ê":{"ha":681,"x_min":111,"x_max":618,"o":"m 197 79 l 618 79 l 618 0 l 111 0 l 111 936 l 610 936 l 610 857 l 197 857 l 197 507 l 561 507 l 561 428 l 197 428 l 197 79 m 379 1161 l 260 1013 l 171 1013 l 336 1221 l 424 1221 l 589 1013 l 500 1013 l 379 1161 z "},"Ë":{"ha":681,"x_min":111,"x_max":618,"o":"m 197 79 l 618 79 l 618 0 l 111 0 l 111 936 l 610 936 l 610 857 l 197 857 l 197 507 l 561 507 l 561 428 l 197 428 l 197 79 m 303 1116 q 303 1103 303 1116 q 285 1073 303 1090 q 242 1056 268 1056 q 200 1073 217 1056 q 183 1116 183 1090 q 200 1158 183 1142 q 242 1175 217 1175 q 285 1158 268 1175 q 303 1116 303 1142 m 558 1116 q 558 1103 558 1116 q 542 1073 558 1090 q 499 1056 525 1056 q 456 1073 474 1056 q 439 1116 439 1090 q 456 1158 439 1142 q 499 1175 474 1175 q 542 1158 525 1175 q 558 1116 558 1142 z "},"Ì":{"ha":322,"x_min":-61,"x_max":204,"o":"m 51 1221 l 193 1013 l 117 1013 l -61 1221 l 51 1221 m 118 0 l 118 936 l 204 936 l 204 0 l 118 0 z "},"Í":{"ha":322,"x_min":118,"x_max":383,"o":"m 129 1013 l 271 1221 l 383 1221 l 206 1013 l 129 1013 m 118 0 l 118 936 l 204 936 l 204 0 l 118 0 z "},"Î":{"ha":322,"x_min":-47,"x_max":371,"o":"m 118 0 l 118 936 l 204 936 l 204 0 l 118 0 m 118 1221 l 206 1221 l 371 1013 l 282 1013 l 161 1161 l 42 1013 l -47 1013 l 118 1221 z "},"Ï":{"ha":322,"x_min":-25,"x_max":350,"o":"m 291 1057 q 278 1057 291 1057 q 248 1074 265 1057 q 231 1117 231 1092 q 248 1160 231 1143 q 291 1176 265 1176 q 333 1160 317 1176 q 350 1117 350 1143 q 333 1074 350 1092 q 291 1057 317 1057 m 34 1057 q 21 1057 34 1057 q -8 1074 8 1057 q -25 1117 -25 1092 q -8 1160 -25 1143 q 34 1176 8 1176 q 77 1160 60 1176 q 94 1117 94 1143 q 77 1074 94 1092 q 34 1057 60 1057 m 118 0 l 118 936 l 204 936 l 204 0 l 118 0 z "},"Ð":{"ha":1007,"x_min":83,"x_max":944,"o":"m 208 936 l 475 936 q 813 808 681 936 q 944 474 944 681 q 739 69 944 200 q 482 0 632 0 l 208 0 l 208 435 l 83 435 l 83 508 l 208 508 l 208 936 m 294 79 l 482 79 q 651 113 578 79 q 768 203 725 146 q 854 475 854 317 q 748 745 854 633 q 475 857 642 857 l 294 857 l 294 508 l 550 508 l 550 435 l 294 435 l 294 79 z "},"Ñ":{"ha":926,"x_min":111,"x_max":815,"o":"m 576 1057 q 480 1089 542 1057 q 396 1121 418 1121 q 303 1053 338 1121 l 253 1094 q 308 1162 271 1135 q 385 1189 344 1189 q 487 1157 426 1189 q 572 1125 547 1125 q 642 1185 614 1125 l 700 1146 q 576 1057 658 1057 m 111 0 l 111 936 l 229 936 l 732 101 q 729 539 729 246 l 729 936 l 815 936 l 815 0 l 697 0 l 194 835 q 197 396 197 685 l 197 0 l 111 0 z "},"Ò":{"ha":960,"x_min":69,"x_max":890,"o":"m 389 1221 l 531 1013 l 454 1013 l 276 1221 l 389 1221 m 481 872 q 405 872 481 872 q 244 766 329 872 q 158 474 158 660 q 247 180 158 288 q 485 72 335 72 q 718 178 635 72 q 801 473 801 285 q 717 767 801 661 q 481 872 633 872 m 483 -11 q 390 -11 483 -11 q 183 121 296 -11 q 69 473 69 253 q 180 824 69 693 q 482 956 290 956 q 782 826 674 956 q 890 473 890 696 q 781 119 890 250 q 483 -11 671 -11 z "},"Ó":{"ha":960,"x_min":69,"x_max":890,"o":"m 481 872 q 405 872 481 872 q 244 766 329 872 q 158 474 158 660 q 247 180 158 288 q 485 72 335 72 q 718 178 635 72 q 801 473 801 285 q 717 767 801 661 q 481 872 633 872 m 483 -11 q 390 -11 483 -11 q 183 121 296 -11 q 69 473 69 253 q 180 824 69 693 q 482 956 290 956 q 782 826 674 956 q 890 473 890 696 q 781 119 890 250 q 483 -11 671 -11 m 454 1013 l 596 1221 l 708 1221 l 531 1013 l 454 1013 z "},"Ô":{"ha":960,"x_min":69,"x_max":890,"o":"m 447 1221 l 535 1221 l 700 1013 l 611 1013 l 490 1161 l 371 1013 l 282 1013 l 447 1221 m 483 -11 q 390 -11 483 -11 q 183 121 296 -11 q 69 473 69 253 q 180 824 69 693 q 482 956 290 956 q 782 826 674 956 q 890 473 890 696 q 781 119 890 250 q 483 -11 671 -11 m 481 872 q 405 872 481 872 q 244 766 329 872 q 158 474 158 660 q 247 180 158 288 q 485 72 335 72 q 718 178 635 72 q 801 473 801 285 q 717 767 801 661 q 481 872 633 872 z "},"Õ":{"ha":960,"x_min":69,"x_max":890,"o":"m 583 1060 q 487 1092 549 1060 q 403 1124 425 1124 q 310 1056 344 1124 l 260 1097 q 315 1165 278 1138 q 392 1192 351 1192 q 494 1160 433 1192 q 579 1128 554 1128 q 649 1188 621 1128 l 707 1149 q 583 1060 665 1060 m 481 872 q 405 872 481 872 q 244 766 329 872 q 158 474 158 660 q 247 180 158 288 q 485 72 335 72 q 718 178 635 72 q 801 473 801 285 q 717 767 801 661 q 481 872 633 872 m 483 -11 q 390 -11 483 -11 q 183 121 296 -11 q 69 473 69 253 q 180 824 69 693 q 482 956 290 956 q 782 826 674 956 q 890 473 890 696 q 781 119 890 250 q 483 -11 671 -11 z "},"Ö":{"ha":960,"x_min":69,"x_max":890,"o":"m 481 872 q 405 872 481 872 q 244 766 329 872 q 158 474 158 660 q 247 180 158 288 q 485 72 335 72 q 718 178 635 72 q 801 473 801 285 q 717 767 801 661 q 481 872 633 872 m 483 -11 q 390 -11 483 -11 q 183 121 296 -11 q 69 473 69 253 q 180 824 69 693 q 482 956 290 956 q 782 826 674 956 q 890 473 890 696 q 781 119 890 250 q 483 -11 671 -11 m 612 1058 q 599 1058 612 1058 q 569 1076 586 1058 q 551 1119 551 1093 q 569 1161 551 1144 q 612 1178 586 1178 q 654 1161 638 1178 q 671 1119 671 1144 q 654 1076 671 1093 q 612 1058 638 1058 m 355 1058 q 342 1058 355 1058 q 313 1076 329 1058 q 296 1119 296 1093 q 313 1161 296 1144 q 355 1178 329 1178 q 398 1161 381 1178 q 415 1119 415 1144 q 398 1076 415 1093 q 355 1058 381 1058 z "},"×":{"ha":668,"x_min":88,"x_max":579,"o":"m 579 663 l 389 474 l 572 292 l 517 236 l 333 418 l 150 236 l 94 292 l 278 474 l 88 661 l 143 717 l 333 529 l 524 718 l 579 663 z "},"Ø":{"ha":922,"x_min":57,"x_max":881,"o":"m 778 818 q 879 468 879 686 q 769 119 879 250 q 471 -11 660 -11 q 219 74 326 -11 l 156 -12 l 57 -12 l 164 131 q 58 476 58 260 q 169 824 58 693 q 468 956 279 956 q 719 875 617 956 l 781 956 l 881 956 l 778 818 m 468 872 q 233 766 318 872 q 147 484 147 660 q 218 203 147 308 l 668 806 q 468 872 589 872 m 471 72 q 707 178 624 72 q 790 463 790 285 q 722 744 790 640 l 272 143 q 471 72 354 72 z "},"Ù":{"ha":888,"x_min":111,"x_max":776,"o":"m 343 1221 l 485 1013 l 408 1013 l 231 1221 l 343 1221 m 690 351 l 690 936 l 776 936 l 776 354 q 689 81 776 174 q 443 -11 601 -11 q 198 79 285 -11 q 111 343 111 169 l 111 936 l 197 936 l 197 344 q 263 138 197 204 q 442 72 329 72 q 690 351 690 72 z "},"Ú":{"ha":888,"x_min":111,"x_max":776,"o":"m 690 351 l 690 936 l 776 936 l 776 354 q 689 81 776 174 q 443 -11 601 -11 q 198 79 285 -11 q 111 343 111 169 l 111 936 l 197 936 l 197 344 q 263 138 197 204 q 442 72 329 72 q 690 351 690 72 m 422 1013 l 564 1221 l 676 1221 l 499 1013 l 422 1013 z "},"Û":{"ha":888,"x_min":111,"x_max":776,"o":"m 404 1221 l 492 1221 l 657 1013 l 568 1013 l 447 1161 l 328 1013 l 239 1013 l 404 1221 m 690 351 l 690 936 l 776 936 l 776 354 q 689 81 776 174 q 443 -11 601 -11 q 198 79 285 -11 q 111 343 111 169 l 111 936 l 197 936 l 197 344 q 263 138 197 204 q 442 72 329 72 q 690 351 690 72 z "},"Ü":{"ha":888,"x_min":111,"x_max":776,"o":"m 690 351 l 690 936 l 776 936 l 776 354 q 689 81 776 174 q 443 -11 601 -11 q 198 79 285 -11 q 111 343 111 169 l 111 936 l 197 936 l 197 344 q 263 138 197 204 q 442 72 329 72 q 690 351 690 72 m 573 1058 q 560 1058 573 1058 q 530 1076 547 1058 q 513 1119 513 1093 q 530 1161 513 1144 q 573 1178 547 1178 q 615 1161 599 1178 q 632 1119 632 1144 q 615 1076 632 1093 q 573 1058 599 1058 m 316 1058 q 303 1058 316 1058 q 274 1076 290 1058 q 257 1119 257 1093 q 274 1161 257 1144 q 316 1178 290 1178 q 359 1161 342 1178 q 376 1119 376 1144 q 359 1076 376 1093 q 316 1058 342 1058 z "},"Ý":{"ha":806,"x_min":42,"x_max":764,"o":"m 444 0 l 358 0 l 358 350 l 42 936 l 140 936 l 214 799 l 401 438 q 665 936 413 464 l 764 936 l 444 350 l 444 0 m 643 1219 l 465 1011 l 389 1011 l 531 1219 l 643 1219 z "},"Þ":{"ha":735,"x_min":111,"x_max":674,"o":"m 197 758 l 322 758 q 584 676 494 758 q 674 467 674 594 q 587 258 674 339 q 338 178 500 178 l 197 178 l 197 0 l 111 0 l 111 936 l 197 936 l 197 758 m 197 254 l 347 254 q 526 311 465 254 q 586 466 586 368 q 523 623 586 564 q 332 682 460 682 l 197 682 l 197 254 z "},"ß":{"ha":731,"x_min":111,"x_max":686,"o":"m 350 93 q 463 69 401 69 q 563 99 525 69 q 600 170 600 128 q 578 244 600 213 q 526 301 557 276 q 464 353 496 326 q 390 489 390 413 q 409 563 390 528 q 451 621 428 599 q 492 678 474 643 q 511 760 511 713 q 469 842 511 808 q 361 876 428 876 q 197 701 197 876 l 197 0 l 111 0 l 111 701 q 181 894 111 831 q 361 958 251 958 q 534 899 471 958 q 597 751 597 839 q 568 640 597 688 q 510 558 539 592 q 482 492 482 524 q 514 426 482 461 q 584 365 546 392 q 654 290 622 339 q 686 182 686 242 q 626 44 686 99 q 458 -10 567 -10 q 350 4 394 -10 l 350 93 z "},"à":{"ha":675,"x_min":69,"x_max":578,"o":"m 319 715 q 578 444 578 715 l 578 0 l 493 0 l 493 82 q 290 -7 435 -7 q 131 51 193 -7 q 69 204 69 108 q 148 356 69 300 q 356 413 226 413 l 493 413 l 493 444 q 453 587 493 539 q 310 635 413 635 q 121 575 208 635 l 121 667 q 319 715 201 715 m 493 335 l 356 335 q 208 297 257 335 q 160 201 160 258 q 198 107 160 143 q 315 71 236 71 q 443 117 393 71 q 493 233 493 163 l 493 335 m 392 781 l 315 781 l 138 989 l 250 989 l 392 781 z "},"á":{"ha":675,"x_min":69,"x_max":578,"o":"m 319 715 q 578 444 578 715 l 578 0 l 493 0 l 493 82 q 290 -7 435 -7 q 131 51 193 -7 q 69 204 69 108 q 148 356 69 300 q 356 413 226 413 l 493 413 l 493 444 q 453 587 493 539 q 310 635 413 635 q 121 575 208 635 l 121 667 q 319 715 201 715 m 493 335 l 356 335 q 208 297 257 335 q 160 201 160 258 q 198 107 160 143 q 315 71 236 71 q 443 117 393 71 q 493 233 493 163 l 493 335 m 575 989 l 397 781 l 321 781 l 463 989 l 575 989 z "},"â":{"ha":675,"x_min":69,"x_max":578,"o":"m 319 715 q 578 444 578 715 l 578 0 l 493 0 l 493 82 q 290 -7 435 -7 q 131 51 193 -7 q 69 204 69 108 q 148 356 69 300 q 356 413 226 413 l 493 413 l 493 444 q 453 587 493 539 q 310 635 413 635 q 121 575 208 635 l 121 667 q 319 715 201 715 m 493 335 l 356 335 q 208 297 257 335 q 160 201 160 258 q 198 107 160 143 q 315 71 236 71 q 443 117 393 71 q 493 233 493 163 l 493 335 m 351 928 l 232 779 l 143 779 l 308 988 l 396 988 l 561 779 l 472 779 l 351 928 z "},"ã":{"ha":675,"x_min":69,"x_max":578,"o":"m 319 715 q 578 444 578 715 l 578 0 l 493 0 l 493 82 q 290 -7 435 -7 q 131 51 193 -7 q 69 204 69 108 q 148 356 69 300 q 356 413 226 413 l 493 413 l 493 444 q 453 587 493 539 q 310 635 413 635 q 121 575 208 635 l 121 667 q 319 715 201 715 m 493 335 l 356 335 q 208 297 257 335 q 160 201 160 258 q 198 107 160 143 q 315 71 236 71 q 443 117 393 71 q 493 233 493 163 l 493 335 m 446 826 q 349 858 411 826 q 265 890 288 890 q 172 822 207 890 l 122 864 q 177 931 140 904 q 255 958 214 958 q 356 926 296 958 q 442 894 417 894 q 511 954 483 894 l 569 915 q 446 826 528 826 z "},"ä":{"ha":675,"x_min":69,"x_max":578,"o":"m 319 715 q 578 444 578 715 l 578 0 l 493 0 l 493 82 q 290 -7 435 -7 q 131 51 193 -7 q 69 204 69 108 q 148 356 69 300 q 356 413 226 413 l 493 413 l 493 444 q 453 587 493 539 q 310 635 413 635 q 121 575 208 635 l 121 667 q 319 715 201 715 m 493 335 l 356 335 q 208 297 257 335 q 160 201 160 258 q 198 107 160 143 q 315 71 236 71 q 443 117 393 71 q 493 233 493 163 l 493 335 m 278 881 q 278 868 278 881 q 260 838 278 856 q 217 821 243 821 q 175 838 192 821 q 158 881 158 856 q 175 924 158 907 q 217 940 192 940 q 260 924 243 940 q 278 881 278 907 m 533 881 q 533 868 533 881 q 517 838 533 856 q 474 821 500 821 q 431 838 449 821 q 414 881 414 856 q 431 924 414 907 q 474 940 449 940 q 517 924 500 940 q 533 881 533 907 z "},"å":{"ha":675,"x_min":69,"x_max":578,"o":"m 319 715 q 578 444 578 715 l 578 0 l 493 0 l 493 82 q 290 -7 435 -7 q 131 51 193 -7 q 69 204 69 108 q 148 356 69 300 q 356 413 226 413 l 493 413 l 493 444 q 453 587 493 539 q 310 635 413 635 q 121 575 208 635 l 121 667 q 319 715 201 715 m 493 335 l 356 335 q 208 297 257 335 q 160 201 160 258 q 198 107 160 143 q 315 71 236 71 q 443 117 393 71 q 493 233 493 163 l 493 335 m 449 806 q 428 786 449 806 q 351 767 408 767 q 255 807 294 767 q 215 903 215 847 q 255 1000 215 960 q 351 1040 294 1040 q 449 1000 408 1040 q 489 903 489 960 q 449 806 489 846 m 426 903 q 426 918 426 903 q 405 956 426 933 q 352 978 383 978 q 299 956 321 978 q 278 903 278 933 q 299 851 278 872 q 351 829 321 829 q 404 851 382 829 q 426 903 426 872 z "},"æ":{"ha":1142,"x_min":76,"x_max":1086,"o":"m 500 247 l 500 332 l 386 332 q 165 200 165 332 q 204 109 165 143 q 318 75 243 75 q 447 122 393 75 q 500 247 500 169 m 999 424 q 945 579 999 525 q 806 633 892 633 q 658 572 719 633 q 586 392 597 511 l 999 392 l 999 424 m 586 314 q 668 135 596 197 q 852 74 740 74 q 1035 121 964 74 l 1035 35 q 851 -7 951 -7 q 672 34 750 -7 q 551 142 594 75 q 457 33 524 74 q 295 -7 390 -7 q 138 48 200 -7 q 76 201 76 103 q 156 357 76 300 q 367 414 235 414 l 500 414 l 500 444 q 460 587 500 539 q 316 635 419 635 q 128 576 213 635 l 128 664 q 326 715 210 715 q 561 583 510 715 q 810 713 646 713 q 1015 626 944 713 q 1086 382 1086 540 q 1081 314 1086 342 l 586 314 z "},"ç":{"ha":656,"x_min":63,"x_max":579,"o":"m 435 -71 q 460 -174 460 -107 q 408 -290 460 -240 q 261 -344 357 -340 l 261 -276 q 382 -175 382 -264 q 350 -71 382 -124 l 435 -71 m 433 635 q 228 551 304 635 q 151 348 151 467 q 225 147 151 229 q 435 65 299 65 q 579 110 519 65 l 579 24 q 425 -17 519 -17 q 158 91 254 -17 q 63 348 63 199 q 160 607 63 497 q 425 717 258 717 q 579 679 511 717 l 579 593 q 433 635 517 635 z "},"è":{"ha":721,"x_min":63,"x_max":654,"o":"m 415 -7 q 160 91 258 -7 q 63 353 63 189 q 149 615 63 518 q 368 713 235 713 q 578 628 501 713 q 654 389 654 543 q 649 314 654 342 l 151 314 q 232 135 161 197 q 421 74 303 74 q 610 121 539 74 l 610 35 q 415 -7 526 -7 m 567 392 l 567 424 q 513 576 567 519 q 370 633 460 633 q 221 571 281 633 q 151 392 161 508 l 567 392 m 436 781 l 360 781 l 182 989 l 294 989 l 436 781 z "},"é":{"ha":721,"x_min":63,"x_max":654,"o":"m 415 -7 q 160 91 258 -7 q 63 353 63 189 q 149 615 63 518 q 368 713 235 713 q 578 628 501 713 q 654 389 654 543 q 649 314 654 342 l 151 314 q 232 135 161 197 q 421 74 303 74 q 610 121 539 74 l 610 35 q 415 -7 526 -7 m 567 392 l 567 424 q 513 576 567 519 q 370 633 460 633 q 221 571 281 633 q 151 392 161 508 l 567 392 m 613 989 l 435 781 l 358 781 l 500 989 l 613 989 z "},"ê":{"ha":721,"x_min":63,"x_max":654,"o":"m 415 -7 q 160 91 258 -7 q 63 353 63 189 q 149 615 63 518 q 368 713 235 713 q 578 628 501 713 q 654 389 654 543 q 649 314 654 342 l 151 314 q 232 135 161 197 q 421 74 303 74 q 610 121 539 74 l 610 35 q 415 -7 526 -7 m 567 392 l 567 424 q 513 576 567 519 q 370 633 460 633 q 221 571 281 633 q 151 392 161 508 l 567 392 m 394 929 l 275 781 l 186 781 l 351 989 l 439 989 l 604 781 l 515 781 l 394 929 z "},"ë":{"ha":721,"x_min":63,"x_max":654,"o":"m 415 -7 q 160 91 258 -7 q 63 353 63 189 q 149 615 63 518 q 368 713 235 713 q 578 628 501 713 q 654 389 654 543 q 649 314 654 342 l 151 314 q 232 135 161 197 q 421 74 303 74 q 610 121 539 74 l 610 35 q 415 -7 526 -7 m 567 392 l 567 424 q 513 576 567 519 q 370 633 460 633 q 221 571 281 633 q 151 392 161 508 l 567 392 m 322 885 q 322 873 322 885 q 305 842 322 860 q 262 825 288 825 q 219 842 236 825 q 203 885 203 860 q 219 928 203 911 q 262 944 236 944 q 305 928 288 944 q 322 885 322 911 m 578 885 q 578 873 578 885 q 561 842 578 860 q 519 825 544 825 q 476 842 493 825 q 458 885 458 860 q 476 928 458 911 q 519 944 493 944 q 561 928 544 944 q 578 885 578 911 z "},"ì":{"ha":307,"x_min":-68,"x_max":196,"o":"m 44 988 l 186 779 l 110 779 l -68 988 l 44 988 m 111 0 l 111 704 l 196 704 l 196 0 l 111 0 z "},"í":{"ha":307,"x_min":111,"x_max":378,"o":"m 124 781 l 265 989 l 378 989 l 200 781 l 124 781 m 111 0 l 111 704 l 196 704 l 196 0 l 111 0 z "},"î":{"ha":307,"x_min":-54,"x_max":364,"o":"m 111 0 l 111 704 l 196 704 l 196 0 l 111 0 m 111 989 l 199 989 l 364 781 l 275 781 l 154 929 l 35 781 l -54 781 l 111 989 z "},"ï":{"ha":307,"x_min":-33,"x_max":342,"o":"m 283 828 q 270 828 283 828 q 240 845 257 828 q 222 888 222 863 q 240 931 222 914 q 283 947 257 947 q 325 931 308 947 q 342 888 342 914 q 325 845 342 863 q 283 828 308 828 m 26 828 q 13 828 26 828 q -17 845 0 828 q -33 888 -33 863 q -17 931 -33 914 q 26 947 0 947 q 69 931 51 947 q 86 888 86 914 q 69 845 86 863 q 26 828 51 828 m 111 0 l 111 704 l 196 704 l 196 0 l 111 0 z "},"ð":{"ha":703,"x_min":54,"x_max":640,"o":"m 640 367 q 560 83 640 178 q 347 -12 479 -12 q 135 74 215 -12 q 54 288 54 160 q 138 492 54 415 q 347 569 222 569 q 553 468 471 569 q 418 753 526 622 l 225 653 l 225 731 l 369 806 q 183 936 279 892 l 333 936 q 444 844 394 899 l 617 933 l 617 856 l 492 792 q 640 367 640 603 m 143 280 q 143 231 143 280 q 199 125 143 182 q 345 68 256 68 q 497 142 435 68 q 561 364 560 217 q 333 486 475 486 q 198 432 253 486 q 143 280 143 378 z "},"ñ":{"ha":735,"x_min":106,"x_max":638,"o":"m 190 704 l 190 583 q 414 715 256 715 q 576 653 515 715 q 638 492 638 590 l 638 0 l 553 0 l 553 465 q 511 590 553 547 q 392 633 469 633 q 253 567 315 633 q 190 389 190 501 l 190 0 l 106 0 l 106 704 l 190 704 m 485 825 q 388 857 450 825 q 304 889 326 889 q 211 821 246 889 l 161 863 q 216 930 179 903 q 294 957 253 957 q 395 925 335 957 q 481 893 456 893 q 550 953 522 893 l 608 914 q 485 825 567 825 z "},"ò":{"ha":779,"x_min":63,"x_max":717,"o":"m 288 989 l 429 781 l 353 781 l 175 989 l 288 989 m 628 351 q 628 411 628 351 q 568 552 628 471 q 392 633 508 633 q 214 550 276 633 q 151 350 151 467 q 216 151 151 233 q 391 68 281 68 q 565 149 501 68 q 628 351 628 231 m 717 349 q 717 270 717 349 q 628 90 717 192 q 389 -12 540 -12 q 150 90 238 -12 q 63 348 63 193 q 153 608 63 503 q 393 714 243 714 q 630 610 543 714 q 717 349 717 507 z "},"ó":{"ha":779,"x_min":63,"x_max":717,"o":"m 628 351 q 628 411 628 351 q 568 552 628 471 q 392 633 508 633 q 214 550 276 633 q 151 350 151 467 q 216 151 151 233 q 391 68 281 68 q 565 149 501 68 q 628 351 628 231 m 717 349 q 717 270 717 349 q 628 90 717 192 q 389 -12 540 -12 q 150 90 238 -12 q 63 348 63 193 q 153 608 63 503 q 393 714 243 714 q 630 610 543 714 q 717 349 717 507 m 367 781 l 508 989 l 621 989 l 443 781 l 367 781 z "},"ô":{"ha":779,"x_min":63,"x_max":717,"o":"m 350 988 l 438 988 l 603 779 l 514 779 l 393 928 l 274 779 l 185 779 l 350 988 m 717 349 q 717 270 717 349 q 628 90 717 192 q 389 -12 540 -12 q 150 90 238 -12 q 63 348 63 193 q 153 608 63 503 q 393 714 243 714 q 630 610 543 714 q 717 349 717 507 m 628 351 q 628 411 628 351 q 568 552 628 471 q 392 633 508 633 q 214 550 276 633 q 151 350 151 467 q 216 151 151 233 q 391 68 281 68 q 565 149 501 68 q 628 351 628 231 z "},"õ":{"ha":779,"x_min":63,"x_max":717,"o":"m 493 825 q 397 857 458 825 q 313 889 335 889 q 219 821 254 889 l 169 863 q 224 930 188 903 q 302 957 261 957 q 403 925 343 957 q 489 893 464 893 q 558 953 531 893 l 617 914 q 493 825 575 825 m 628 351 q 628 411 628 351 q 568 552 628 471 q 392 633 508 633 q 214 550 276 633 q 151 350 151 467 q 216 151 151 233 q 391 68 281 68 q 565 149 501 68 q 628 351 628 231 m 717 349 q 717 270 717 349 q 628 90 717 192 q 389 -12 540 -12 q 150 90 238 -12 q 63 348 63 193 q 153 608 63 503 q 393 714 243 714 q 630 610 543 714 q 717 349 717 507 z "},"ö":{"ha":779,"x_min":63,"x_max":717,"o":"m 628 351 q 628 411 628 351 q 568 552 628 471 q 392 633 508 633 q 214 550 276 633 q 151 350 151 467 q 216 151 151 233 q 391 68 281 68 q 565 149 501 68 q 628 351 628 231 m 717 349 q 717 270 717 349 q 628 90 717 192 q 389 -12 540 -12 q 150 90 238 -12 q 63 348 63 193 q 153 608 63 503 q 393 714 243 714 q 630 610 543 714 q 717 349 717 507 m 528 822 q 516 822 528 822 q 485 840 503 822 q 468 883 468 857 q 485 925 468 908 q 528 942 503 942 q 571 925 554 942 q 588 883 588 908 q 571 840 588 857 q 528 822 554 822 m 272 822 q 259 822 272 822 q 229 840 246 822 q 213 883 213 857 q 229 925 213 908 q 272 942 246 942 q 315 925 297 942 q 332 883 332 908 q 315 840 332 857 q 272 822 297 822 z "},"÷":{"ha":756,"x_min":83,"x_max":672,"o":"m 333 178 q 323 188 333 178 q 314 224 314 197 q 333 269 314 250 q 378 288 351 288 q 423 269 404 288 q 442 224 442 250 q 423 178 442 197 q 378 160 404 160 q 333 178 351 160 m 83 433 l 83 511 l 672 511 l 672 433 l 83 433 m 333 676 q 323 685 333 676 q 314 721 314 694 q 333 766 314 747 q 378 785 351 785 q 423 766 404 785 q 442 721 442 747 q 423 676 442 694 q 378 657 404 657 q 333 676 351 657 z "},"ø":{"ha":782,"x_min":86,"x_max":740,"o":"m 657 606 q 740 349 740 507 q 652 90 740 192 q 410 -12 564 -12 q 226 43 303 -12 l 185 -12 l 86 -12 l 169 96 q 86 349 86 196 q 176 608 86 503 q 410 714 267 714 q 599 660 521 714 l 640 714 l 740 714 l 657 606 m 410 638 q 235 553 299 638 q 171 357 171 469 q 222 167 171 244 l 551 597 q 410 638 493 638 m 410 64 q 591 146 526 64 q 656 346 656 228 q 607 539 656 464 l 276 108 q 410 64 336 64 z "},"ù":{"ha":735,"x_min":97,"x_max":629,"o":"m 544 704 l 629 704 l 629 0 l 544 0 l 544 126 q 321 -10 489 -10 q 158 52 218 -10 q 97 215 97 114 l 97 704 l 182 704 l 182 239 q 224 115 182 158 q 336 72 267 72 q 487 139 429 72 q 544 313 544 206 l 544 704 m 406 779 l 329 779 l 151 988 l 264 988 l 406 779 z "},"ú":{"ha":735,"x_min":97,"x_max":629,"o":"m 544 704 l 629 704 l 629 0 l 544 0 l 544 126 q 321 -10 489 -10 q 158 52 218 -10 q 97 215 97 114 l 97 704 l 182 704 l 182 239 q 224 115 182 158 q 336 72 267 72 q 487 139 429 72 q 544 313 544 206 l 544 704 m 589 989 l 411 781 l 335 781 l 476 989 l 589 989 z "},"û":{"ha":735,"x_min":97,"x_max":629,"o":"m 544 704 l 629 704 l 629 0 l 544 0 l 544 126 q 321 -10 489 -10 q 158 52 218 -10 q 97 215 97 114 l 97 704 l 182 704 l 182 239 q 224 115 182 158 q 336 72 267 72 q 487 139 429 72 q 544 313 544 206 l 544 704 m 365 929 l 246 781 l 157 781 l 322 989 l 410 989 l 575 781 l 486 781 l 365 929 z "},"ü":{"ha":735,"x_min":97,"x_max":629,"o":"m 544 704 l 629 704 l 629 0 l 544 0 l 544 126 q 321 -10 489 -10 q 158 52 218 -10 q 97 215 97 114 l 97 704 l 182 704 l 182 239 q 224 115 182 158 q 336 72 267 72 q 487 139 429 72 q 544 313 544 206 l 544 704 m 301 883 q 301 870 301 883 q 284 840 301 857 q 241 822 267 822 q 199 840 215 822 q 182 883 182 857 q 199 925 182 908 q 241 942 215 942 q 284 925 267 942 q 301 883 301 908 m 557 883 q 557 870 557 883 q 540 840 557 857 q 498 822 524 822 q 455 840 472 822 q 438 883 438 857 q 455 925 438 908 q 498 942 472 942 q 540 925 524 942 q 557 883 557 908 z "},"ý":{"ha":669,"x_min":13,"x_max":643,"o":"m 99 -233 q 46 -226 71 -233 l 46 -143 q 93 -150 71 -150 q 300 19 242 -150 l 13 704 l 110 704 l 342 129 q 549 704 356 175 l 643 704 l 388 18 q 263 -179 335 -125 q 99 -233 190 -233 m 308 781 l 450 989 l 563 989 l 385 781 l 308 781 z "},"þ":{"ha":771,"x_min":106,"x_max":708,"o":"m 190 982 l 190 601 q 407 715 264 715 q 629 612 550 715 q 708 352 708 508 q 624 92 708 196 q 403 -11 539 -11 q 190 106 268 -11 l 190 -278 l 106 -278 l 106 982 l 190 982 m 403 69 q 558 145 497 69 q 619 351 619 221 q 560 558 619 482 q 411 635 501 635 q 256 569 321 635 q 190 349 190 503 q 212 213 190 271 q 267 125 233 156 q 403 69 332 69 z "},"ÿ":{"ha":669,"x_min":13,"x_max":643,"o":"m 99 -233 q 46 -226 71 -233 l 46 -143 q 93 -150 71 -150 q 300 19 242 -150 l 13 704 l 110 704 l 342 129 q 549 704 356 175 l 643 704 l 388 18 q 263 -179 335 -125 q 99 -233 190 -233 m 219 822 q 206 822 219 822 q 176 840 193 822 q 160 883 160 857 q 176 925 160 908 q 219 942 193 942 q 262 925 244 942 q 279 883 279 908 q 262 840 279 857 q 219 822 244 822 m 476 822 q 463 822 476 822 q 433 840 450 822 q 415 883 415 857 q 433 925 415 908 q 476 942 450 942 q 518 925 501 942 q 535 883 535 908 q 518 840 535 857 q 476 822 501 822 z "},"Ā":{"ha":885,"x_min":53,"x_max":832,"o":"m 739 0 l 650 260 l 236 260 l 146 0 l 53 0 l 383 936 l 508 936 l 832 0 l 739 0 m 263 336 l 625 336 l 446 864 q 263 336 393 703 m 629 1147 l 629 1085 l 264 1085 l 264 1147 l 629 1147 z "},"ā":{"ha":675,"x_min":69,"x_max":578,"o":"m 319 715 q 578 444 578 715 l 578 0 l 493 0 l 493 82 q 290 -7 435 -7 q 131 51 193 -7 q 69 204 69 108 q 148 356 69 300 q 356 413 226 413 l 493 413 l 493 444 q 453 587 493 539 q 310 635 413 635 q 121 575 208 635 l 121 667 q 319 715 201 715 m 493 335 l 356 335 q 208 297 257 335 q 160 201 160 258 q 198 107 160 143 q 315 71 236 71 q 443 117 393 71 q 493 233 493 163 l 493 335 m 522 915 l 522 853 l 157 853 l 157 915 l 522 915 z "},"Ă":{"ha":885,"x_min":53,"x_max":832,"o":"m 739 0 l 650 260 l 236 260 l 146 0 l 53 0 l 383 936 l 508 936 l 832 0 l 739 0 m 263 336 l 625 336 l 446 864 q 263 336 393 703 m 589 1219 l 661 1219 q 610 1066 661 1125 q 446 1007 558 1007 q 282 1066 333 1007 q 231 1219 231 1125 l 303 1219 q 446 1074 303 1074 q 589 1219 589 1074 z "},"ă":{"ha":675,"x_min":69,"x_max":578,"o":"m 319 715 q 578 444 578 715 l 578 0 l 493 0 l 493 82 q 290 -7 435 -7 q 131 51 193 -7 q 69 204 69 108 q 148 356 69 300 q 356 413 226 413 l 493 413 l 493 444 q 453 587 493 539 q 310 635 413 635 q 121 575 208 635 l 121 667 q 319 715 201 715 m 493 335 l 356 335 q 208 297 257 335 q 160 201 160 258 q 198 107 160 143 q 315 71 236 71 q 443 117 393 71 q 493 233 493 163 l 493 335 m 486 988 l 558 988 q 507 834 558 893 q 343 775 456 775 q 179 834 231 775 q 128 988 128 893 l 200 988 q 343 842 200 842 q 486 988 486 842 z "},"Ą":{"ha":885,"x_min":53,"x_max":864,"o":"m 678 -172 q 704 -240 678 -217 q 778 -262 731 -262 q 864 -235 826 -262 l 864 -304 q 757 -329 825 -329 q 644 -287 689 -329 q 600 -183 600 -244 q 638 -69 600 -121 q 733 15 675 -18 l 650 260 l 236 260 l 146 0 l 53 0 l 383 936 l 508 936 l 832 0 q 678 -172 678 -69 m 263 336 l 625 336 l 446 864 q 263 336 393 703 z "},"ą":{"ha":675,"x_min":69,"x_max":610,"o":"m 578 444 l 578 0 q 424 -172 424 -69 q 450 -240 424 -217 q 524 -262 476 -262 q 610 -235 572 -262 l 610 -304 q 503 -329 571 -329 q 390 -287 435 -329 q 346 -181 346 -244 q 388 -63 346 -117 q 493 22 429 -10 l 493 88 q 290 -7 415 -7 q 131 48 193 -7 q 69 201 69 103 q 149 357 69 300 q 360 414 228 414 l 493 414 l 493 444 q 453 587 493 539 q 309 635 413 635 q 121 576 206 635 l 121 664 q 319 715 203 715 q 578 444 578 715 m 493 332 l 379 332 q 158 200 158 332 q 197 109 158 143 q 312 75 236 75 q 440 119 388 75 q 493 222 493 164 l 493 332 z "},"Ć":{"ha":832,"x_min":69,"x_max":776,"o":"m 468 1013 l 610 1221 l 722 1221 l 544 1013 l 468 1013 m 535 867 q 266 758 374 867 q 158 469 158 649 q 265 181 158 290 q 547 71 371 71 q 776 143 685 71 l 776 49 q 543 -11 692 -11 q 200 118 331 -11 q 69 466 69 247 q 204 817 69 685 q 538 949 339 949 q 774 899 675 949 l 774 808 q 665 853 713 840 q 535 867 618 867 z "},"ć":{"ha":656,"x_min":63,"x_max":622,"o":"m 433 635 q 228 551 304 635 q 151 348 151 467 q 225 147 151 229 q 435 65 299 65 q 579 110 519 65 l 579 24 q 425 -17 519 -17 q 158 91 254 -17 q 63 348 63 199 q 160 607 63 497 q 425 717 258 717 q 579 679 511 717 l 579 593 q 433 635 517 635 m 368 779 l 510 988 l 622 988 l 444 779 l 368 779 z "},"Ĉ":{"ha":832,"x_min":69,"x_max":776,"o":"m 467 1221 l 554 1221 l 719 1013 l 631 1013 l 510 1161 l 390 1013 l 301 1013 l 467 1221 m 535 867 q 266 758 374 867 q 158 469 158 649 q 265 181 158 290 q 547 71 371 71 q 776 143 685 71 l 776 49 q 543 -11 692 -11 q 200 118 331 -11 q 69 466 69 247 q 204 817 69 685 q 538 949 339 949 q 774 899 675 949 l 774 808 q 665 853 713 840 q 535 867 618 867 z "},"ĉ":{"ha":656,"x_min":63,"x_max":582,"o":"m 329 989 l 417 989 l 582 781 l 493 781 l 372 929 l 253 781 l 164 781 l 329 989 m 433 635 q 228 551 304 635 q 151 348 151 467 q 225 147 151 229 q 435 65 299 65 q 579 110 519 65 l 579 24 q 425 -17 519 -17 q 158 91 254 -17 q 63 348 63 199 q 160 607 63 497 q 425 717 258 717 q 579 679 511 717 l 579 593 q 433 635 517 635 z "},"Ċ":{"ha":832,"x_min":69,"x_max":776,"o":"m 535 867 q 266 758 374 867 q 158 469 158 649 q 265 181 158 290 q 547 71 371 71 q 776 143 685 71 l 776 49 q 543 -11 692 -11 q 200 118 331 -11 q 69 466 69 247 q 204 817 69 685 q 538 949 339 949 q 774 899 675 949 l 774 808 q 665 853 713 840 q 535 867 618 867 m 516 1061 q 503 1061 516 1061 q 473 1078 490 1061 q 456 1122 456 1096 q 473 1164 456 1147 q 516 1181 490 1181 q 558 1164 542 1181 q 575 1122 575 1147 q 558 1078 575 1096 q 516 1061 542 1061 z "},"ċ":{"ha":656,"x_min":63,"x_max":579,"o":"m 420 826 q 407 826 420 826 q 377 844 394 826 q 360 887 360 861 q 377 929 360 913 q 420 946 394 946 q 463 929 446 946 q 479 887 479 913 q 463 844 479 861 q 420 826 446 826 m 433 635 q 228 551 304 635 q 151 348 151 467 q 225 147 151 229 q 435 65 299 65 q 579 110 519 65 l 579 24 q 425 -17 519 -17 q 158 91 254 -17 q 63 348 63 199 q 160 607 63 497 q 425 717 258 717 q 579 679 511 717 l 579 593 q 433 635 517 635 z "},"Č":{"ha":832,"x_min":69,"x_max":776,"o":"m 576 1013 l 489 1013 l 324 1221 l 413 1221 l 533 1072 l 653 1221 l 742 1221 l 576 1013 m 535 867 q 266 758 374 867 q 158 469 158 649 q 265 181 158 290 q 547 71 371 71 q 776 143 685 71 l 776 49 q 543 -11 692 -11 q 200 118 331 -11 q 69 466 69 247 q 204 817 69 685 q 538 949 339 949 q 774 899 675 949 l 774 808 q 665 853 713 840 q 535 867 618 867 z "},"č":{"ha":656,"x_min":63,"x_max":592,"o":"m 426 781 l 339 781 l 174 989 l 263 989 l 383 840 l 503 989 l 592 989 l 426 781 m 433 635 q 228 551 304 635 q 151 348 151 467 q 225 147 151 229 q 435 65 299 65 q 579 110 519 65 l 579 24 q 425 -17 519 -17 q 158 91 254 -17 q 63 348 63 199 q 160 607 63 497 q 425 717 258 717 q 579 679 511 717 l 579 593 q 433 635 517 635 z "},"Ď":{"ha":910,"x_min":111,"x_max":847,"o":"m 111 936 l 378 936 q 715 808 583 936 q 847 474 847 681 q 642 69 847 200 q 385 0 535 0 l 111 0 l 111 936 m 197 79 l 385 79 q 554 113 481 79 q 671 203 628 146 q 757 475 757 317 q 651 745 757 633 q 378 857 544 857 l 197 857 l 197 79 m 464 1011 l 376 1011 l 211 1219 l 300 1219 l 421 1071 l 540 1219 l 629 1219 l 464 1011 z "},"ď":{"ha":885,"x_min":63,"x_max":976,"o":"m 871 982 l 976 982 l 824 722 l 749 722 l 871 982 m 581 982 l 665 982 l 665 0 l 581 0 l 581 103 q 364 -11 507 -11 q 142 92 221 -11 q 63 352 63 196 q 147 612 63 508 q 367 715 232 715 q 581 599 503 715 l 581 982 m 210 146 q 240 108 210 146 q 360 69 269 69 q 515 135 450 69 q 581 356 581 201 q 559 491 581 433 q 503 578 538 549 q 368 635 439 635 q 213 559 274 635 q 151 353 151 483 q 210 146 151 222 z "},"Đ":{"ha":1007,"x_min":83,"x_max":944,"o":"m 208 936 l 475 936 q 813 808 681 936 q 944 474 944 681 q 739 69 944 200 q 482 0 632 0 l 208 0 l 208 435 l 83 435 l 83 508 l 208 508 l 208 936 m 294 79 l 482 79 q 651 113 578 79 q 768 203 725 146 q 854 475 854 317 q 748 745 854 633 q 475 857 642 857 l 294 857 l 294 508 l 550 508 l 550 435 l 294 435 l 294 79 z "},"đ":{"ha":771,"x_min":63,"x_max":769,"o":"m 769 890 l 769 824 l 665 824 l 665 0 l 581 0 l 581 103 q 364 -11 507 -11 q 142 92 221 -11 q 63 352 63 196 q 147 612 63 508 q 367 715 232 715 q 581 599 503 715 l 581 824 l 296 824 l 296 890 l 581 890 l 581 982 l 665 982 l 665 890 l 769 890 m 210 146 q 240 108 210 146 q 360 69 269 69 q 515 135 450 69 q 581 356 581 201 q 559 491 581 433 q 503 578 538 549 q 368 635 439 635 q 213 559 274 635 q 151 353 151 483 q 210 146 151 222 z "},"Ē":{"ha":681,"x_min":111,"x_max":618,"o":"m 197 79 l 618 79 l 618 0 l 111 0 l 111 936 l 610 936 l 610 857 l 197 857 l 197 507 l 561 507 l 561 428 l 197 428 l 197 79 m 544 1147 l 544 1085 l 179 1085 l 179 1147 l 544 1147 z "},"ē":{"ha":721,"x_min":63,"x_max":654,"o":"m 415 -7 q 160 91 258 -7 q 63 353 63 189 q 149 615 63 518 q 368 713 235 713 q 578 628 501 713 q 654 389 654 543 q 649 314 654 342 l 151 314 q 232 135 161 197 q 421 74 303 74 q 610 121 539 74 l 610 35 q 415 -7 526 -7 m 567 392 l 567 424 q 513 576 567 519 q 370 633 460 633 q 221 571 281 633 q 151 392 161 508 l 567 392 m 568 915 l 568 853 l 203 853 l 203 915 l 568 915 z "},"Ĕ":{"ha":681,"x_min":111,"x_max":618,"o":"m 197 79 l 618 79 l 618 0 l 111 0 l 111 936 l 610 936 l 610 857 l 197 857 l 197 507 l 561 507 l 561 428 l 197 428 l 197 79 m 511 1221 l 583 1221 q 532 1067 583 1126 q 368 1008 481 1008 q 204 1067 256 1008 q 153 1221 153 1126 l 225 1221 q 368 1075 225 1075 q 511 1221 511 1075 z "},"ĕ":{"ha":721,"x_min":63,"x_max":654,"o":"m 415 -7 q 160 91 258 -7 q 63 353 63 189 q 149 615 63 518 q 368 713 235 713 q 578 628 501 713 q 654 389 654 543 q 649 314 654 342 l 151 314 q 232 135 161 197 q 421 74 303 74 q 610 121 539 74 l 610 35 q 415 -7 526 -7 m 567 392 l 567 424 q 513 576 567 519 q 370 633 460 633 q 221 571 281 633 q 151 392 161 508 l 567 392 m 526 989 l 599 989 q 547 835 599 894 q 383 776 496 776 q 219 835 271 776 q 168 989 168 894 l 240 989 q 383 843 240 843 q 526 989 526 843 z "},"Ė":{"ha":681,"x_min":111,"x_max":618,"o":"m 197 79 l 618 79 l 618 0 l 111 0 l 111 936 l 610 936 l 610 857 l 197 857 l 197 507 l 561 507 l 561 428 l 197 428 l 197 79 m 439 1120 q 439 1107 439 1120 q 422 1077 439 1094 q 380 1060 406 1060 q 337 1077 354 1060 q 319 1120 319 1094 q 337 1163 319 1146 q 380 1179 354 1179 q 422 1163 406 1179 q 439 1120 439 1146 z "},"ė":{"ha":721,"x_min":63,"x_max":654,"o":"m 415 -7 q 160 91 258 -7 q 63 353 63 189 q 149 615 63 518 q 368 713 235 713 q 578 628 501 713 q 654 389 654 543 q 649 314 654 342 l 151 314 q 232 135 161 197 q 421 74 303 74 q 610 121 539 74 l 610 35 q 415 -7 526 -7 m 567 392 l 567 424 q 513 576 567 519 q 370 633 460 633 q 221 571 281 633 q 151 392 161 508 l 567 392 m 451 887 q 451 874 451 887 q 435 844 451 861 q 392 826 418 826 q 349 844 367 826 q 332 887 332 861 q 349 929 332 913 q 392 946 367 946 q 435 929 418 946 q 451 887 451 913 z "},"Ę":{"ha":681,"x_min":111,"x_max":618,"o":"m 618 0 l 461 0 q 307 -172 307 -69 q 333 -240 307 -217 q 408 -262 360 -262 q 493 -235 456 -262 l 493 -304 q 386 -329 454 -329 q 274 -287 318 -329 q 229 -179 229 -244 q 339 0 229 -75 l 111 0 l 111 936 l 610 936 l 610 857 l 197 857 l 197 507 l 561 507 l 561 428 l 197 428 l 197 79 l 618 79 l 618 0 z "},"ę":{"ha":721,"x_min":63,"x_max":654,"o":"m 511 -306 q 404 -331 472 -331 q 292 -288 336 -331 q 247 -181 247 -246 q 354 -3 247 -78 q 142 111 222 17 q 63 362 63 206 q 149 615 63 518 q 368 713 235 713 q 578 628 501 713 q 654 389 654 543 q 649 314 654 342 l 151 314 q 232 135 161 197 q 421 74 303 74 q 610 121 539 74 l 610 35 q 476 -3 560 10 q 325 -174 325 -72 q 351 -241 325 -218 q 426 -264 378 -264 q 511 -236 474 -264 l 511 -306 m 567 392 l 567 424 q 513 576 567 519 q 370 633 460 633 q 221 571 281 633 q 151 392 161 508 l 567 392 z "},"Ě":{"ha":681,"x_min":111,"x_max":618,"o":"m 197 79 l 618 79 l 618 0 l 111 0 l 111 936 l 610 936 l 610 857 l 197 857 l 197 507 l 561 507 l 561 428 l 197 428 l 197 79 m 418 1011 l 331 1011 l 165 1219 l 254 1219 l 375 1071 l 494 1219 l 583 1219 l 418 1011 z "},"ě":{"ha":721,"x_min":63,"x_max":654,"o":"m 415 -7 q 160 91 258 -7 q 63 353 63 189 q 149 615 63 518 q 368 713 235 713 q 578 628 501 713 q 654 389 654 543 q 649 314 654 342 l 151 314 q 232 135 161 197 q 421 74 303 74 q 610 121 539 74 l 610 35 q 415 -7 526 -7 m 567 392 l 567 424 q 513 576 567 519 q 370 633 460 633 q 221 571 281 633 q 151 392 161 508 l 567 392 m 425 781 l 338 781 l 172 989 l 261 989 l 382 840 l 501 989 l 590 989 l 425 781 z "},"Ĝ":{"ha":918,"x_min":69,"x_max":821,"o":"m 821 515 l 821 69 q 543 -11 711 -11 q 199 117 329 -11 q 69 463 69 246 q 197 817 69 681 q 518 953 324 953 q 790 888 683 953 l 790 792 q 524 867 683 867 q 262 758 365 867 q 158 467 158 649 q 261 180 158 285 q 544 75 364 75 q 735 118 651 75 l 735 439 l 514 439 l 514 515 l 821 515 m 501 1160 l 382 1011 l 293 1011 l 458 1219 l 546 1219 l 711 1011 l 622 1011 l 501 1160 z "},"ĝ":{"ha":749,"x_min":63,"x_max":651,"o":"m 567 704 l 651 704 l 651 54 q 565 -185 651 -106 q 351 -265 479 -265 q 138 -225 222 -265 l 138 -142 q 333 -185 224 -185 q 504 -127 442 -185 q 567 54 567 -69 l 567 146 q 356 17 496 17 q 148 107 233 17 q 63 353 63 197 q 141 613 63 510 q 347 715 219 715 q 567 581 499 715 l 567 704 m 151 354 q 151 292 151 354 q 215 163 151 229 q 358 97 279 97 q 501 159 436 97 q 567 358 567 221 q 504 565 567 494 q 364 635 442 635 q 208 557 265 635 q 151 354 151 479 m 372 929 l 253 781 l 164 781 l 329 989 l 417 989 l 582 781 l 493 781 l 372 929 z "},"Ğ":{"ha":918,"x_min":69,"x_max":821,"o":"m 821 515 l 821 69 q 543 -11 711 -11 q 199 117 329 -11 q 69 463 69 246 q 197 817 69 681 q 518 953 324 953 q 790 888 683 953 l 790 792 q 524 867 683 867 q 262 758 365 867 q 158 467 158 649 q 261 180 158 285 q 544 75 364 75 q 735 118 651 75 l 735 439 l 514 439 l 514 515 l 821 515 m 651 1221 l 724 1221 q 672 1067 724 1126 q 508 1008 621 1008 q 344 1067 396 1008 q 293 1221 293 1126 l 365 1221 q 508 1075 365 1075 q 651 1221 651 1075 z "},"ğ":{"ha":749,"x_min":63,"x_max":651,"o":"m 567 704 l 651 704 l 651 54 q 565 -185 651 -106 q 351 -265 479 -265 q 138 -225 222 -265 l 138 -142 q 333 -185 224 -185 q 504 -127 442 -185 q 567 54 567 -69 l 567 146 q 356 17 496 17 q 148 107 233 17 q 63 353 63 197 q 141 613 63 510 q 347 715 219 715 q 567 581 499 715 l 567 704 m 151 354 q 151 292 151 354 q 215 163 151 229 q 358 97 279 97 q 501 159 436 97 q 567 358 567 221 q 504 565 567 494 q 364 635 442 635 q 208 557 265 635 q 151 354 151 479 m 540 989 l 613 989 q 561 835 613 894 q 397 776 510 776 q 233 835 285 776 q 182 989 182 894 l 254 989 q 397 843 254 843 q 540 989 540 843 z "},"Ġ":{"ha":918,"x_min":69,"x_max":821,"o":"m 821 515 l 821 69 q 543 -11 711 -11 q 199 117 329 -11 q 69 463 69 246 q 197 817 69 681 q 518 953 324 953 q 790 888 683 953 l 790 792 q 524 867 683 867 q 262 758 365 867 q 158 467 158 649 q 261 180 158 285 q 544 75 364 75 q 735 118 651 75 l 735 439 l 514 439 l 514 515 l 821 515 m 575 1119 q 575 1106 575 1119 q 558 1076 575 1093 q 516 1058 542 1058 q 473 1076 490 1058 q 456 1119 456 1093 q 473 1161 456 1144 q 516 1178 490 1178 q 558 1161 542 1178 q 575 1119 575 1144 z "},"ġ":{"ha":749,"x_min":63,"x_max":651,"o":"m 567 704 l 651 704 l 651 54 q 565 -185 651 -106 q 351 -265 479 -265 q 138 -225 222 -265 l 138 -142 q 333 -185 224 -185 q 504 -127 442 -185 q 567 54 567 -69 l 567 146 q 356 17 496 17 q 148 107 233 17 q 63 353 63 197 q 141 613 63 510 q 347 715 219 715 q 567 581 499 715 l 567 704 m 151 354 q 151 292 151 354 q 215 163 151 229 q 358 97 279 97 q 501 159 436 97 q 567 358 567 221 q 504 565 567 494 q 364 635 442 635 q 208 557 265 635 q 151 354 151 479 m 476 887 q 476 874 476 887 q 460 844 476 861 q 417 826 443 826 q 374 844 392 826 q 357 887 357 861 q 374 929 357 913 q 417 946 392 946 q 460 929 443 946 q 476 887 476 913 z "},"Ģ":{"ha":918,"x_min":69,"x_max":821,"o":"m 821 515 l 821 69 q 543 -11 711 -11 q 199 117 329 -11 q 69 463 69 246 q 197 817 69 681 q 518 953 324 953 q 790 888 683 953 l 790 792 q 524 867 683 867 q 262 758 365 867 q 158 467 158 649 q 261 180 158 285 q 544 75 364 75 q 735 118 651 75 l 735 439 l 514 439 l 514 515 l 821 515 m 346 -331 l 468 -71 l 574 -71 l 421 -331 l 346 -331 z "},"ģ":{"ha":749,"x_min":63,"x_max":651,"o":"m 567 704 l 651 704 l 651 54 q 565 -185 651 -106 q 351 -265 479 -265 q 138 -225 222 -265 l 138 -142 q 333 -185 224 -185 q 504 -127 442 -185 q 567 54 567 -69 l 567 146 q 356 17 496 17 q 148 107 233 17 q 63 353 63 197 q 141 613 63 510 q 347 715 219 715 q 567 581 499 715 l 567 704 m 151 354 q 151 292 151 354 q 215 163 151 229 q 358 97 279 97 q 501 159 436 97 q 567 358 567 221 q 504 565 567 494 q 364 635 442 635 q 208 557 265 635 q 151 354 151 479 m 596 1039 l 474 779 l 368 779 l 521 1039 l 596 1039 z "},"Ĥ":{"ha":878,"x_min":111,"x_max":767,"o":"m 681 936 l 767 936 l 767 0 l 681 0 l 681 438 l 197 438 l 197 0 l 111 0 l 111 936 l 197 936 l 197 517 l 681 517 l 681 936 m 446 1160 l 326 1011 l 238 1011 l 403 1219 l 490 1219 l 656 1011 l 567 1011 l 446 1160 z "},"ĥ":{"ha":735,"x_min":-58,"x_max":638,"o":"m 190 982 l 190 583 q 414 715 254 715 q 576 653 515 715 q 638 492 638 590 l 638 0 l 553 0 l 553 465 q 511 590 553 547 q 392 633 469 633 q 253 567 315 633 q 190 389 190 501 l 190 0 l 106 0 l 106 982 l 190 982 m 271 1058 l 150 1207 l 31 1058 l -58 1058 l 107 1267 l 194 1267 l 360 1058 l 271 1058 z "},"Ħ":{"ha":947,"x_min":42,"x_max":906,"o":"m 906 789 l 906 719 l 801 719 l 801 0 l 715 0 l 715 438 l 232 438 l 232 0 l 146 0 l 146 719 l 42 719 l 42 789 l 146 789 l 146 936 l 232 936 l 232 789 l 715 789 l 715 936 l 801 936 l 801 789 l 906 789 m 715 517 l 715 719 l 232 719 l 232 517 l 715 517 z "},"ħ":{"ha":735,"x_min":1,"x_max":638,"o":"m 190 824 l 190 583 q 414 715 254 715 q 576 653 515 715 q 638 492 638 590 l 638 0 l 553 0 l 553 465 q 511 590 553 547 q 392 633 469 633 q 253 567 315 633 q 190 389 190 501 l 190 0 l 106 0 l 106 824 l 1 824 l 1 890 l 106 890 l 106 982 l 190 982 l 190 890 l 461 890 l 461 824 l 190 824 z "},"Ĩ":{"ha":322,"x_min":-61,"x_max":386,"o":"m 263 1054 q 166 1086 228 1054 q 82 1118 104 1118 q -11 1050 24 1118 l -61 1092 q -6 1159 -43 1132 q 72 1186 31 1186 q 173 1154 113 1186 q 258 1122 233 1122 q 328 1182 300 1122 l 386 1143 q 263 1054 344 1054 m 118 0 l 118 936 l 204 936 l 204 0 l 118 0 z "},"ĩ":{"ha":307,"x_min":-68,"x_max":379,"o":"m 256 819 q 159 851 221 819 q 75 883 97 883 q -18 815 17 883 l -68 857 q -13 924 -50 897 q 65 951 24 951 q 166 919 106 951 q 251 888 226 888 q 321 947 293 888 l 379 908 q 256 819 338 819 m 111 0 l 111 704 l 196 704 l 196 0 l 111 0 z "},"Ī":{"ha":322,"x_min":-21,"x_max":344,"o":"m 344 1085 l -21 1085 l -21 1147 l 344 1147 l 344 1085 m 118 0 l 118 936 l 204 936 l 204 0 l 118 0 z "},"ī":{"ha":307,"x_min":-28,"x_max":338,"o":"m 338 853 l -28 853 l -28 915 l 338 915 l 338 853 m 111 0 l 111 704 l 196 704 l 196 0 l 111 0 z "},"Ĭ":{"ha":322,"x_min":-53,"x_max":378,"o":"m 118 0 l 118 936 l 204 936 l 204 0 l 118 0 m -53 1221 l 19 1221 q 163 1075 19 1075 q 306 1221 306 1075 l 378 1221 q 326 1067 378 1126 q 163 1008 275 1008 q -1 1067 50 1008 q -53 1221 -53 1126 z "},"ĭ":{"ha":307,"x_min":-61,"x_max":369,"o":"m 111 0 l 111 704 l 196 704 l 196 0 l 111 0 m -61 989 l 11 989 q 154 843 11 843 q 297 989 297 843 l 369 989 q 318 835 369 894 q 154 776 267 776 q -10 835 42 776 q -61 989 -61 894 z "},"Į":{"ha":322,"x_min":-28,"x_max":236,"o":"m 204 936 l 204 0 q 50 -172 50 -69 q 76 -240 50 -217 q 151 -262 103 -262 q 236 -235 199 -262 l 236 -304 q 129 -329 197 -329 q 17 -287 61 -329 q -28 -181 -28 -244 q 13 -65 -28 -118 q 118 22 54 -11 l 118 936 l 204 936 z "},"į":{"ha":307,"x_min":-36,"x_max":228,"o":"m 196 704 l 196 0 q 42 -172 42 -69 q 68 -240 42 -217 q 142 -262 94 -262 q 228 -235 190 -262 l 228 -304 q 121 -329 189 -329 q 8 -287 53 -329 q -36 -181 -36 -244 q 6 -63 -36 -117 q 111 22 47 -10 l 111 704 l 196 704 m 195 888 q 186 879 195 888 q 153 871 178 871 q 111 888 128 871 q 94 929 94 904 q 111 972 94 954 q 153 989 128 989 q 195 972 178 989 q 213 929 213 954 q 195 888 213 904 z "},"İ":{"ha":322,"x_min":103,"x_max":222,"o":"m 163 1061 q 150 1061 163 1061 q 120 1078 138 1061 q 103 1122 103 1096 q 120 1164 103 1147 q 163 1181 138 1181 q 206 1164 189 1181 q 222 1122 222 1147 q 206 1078 222 1096 q 163 1061 189 1061 m 118 0 l 118 936 l 204 936 l 204 0 l 118 0 z "},"ı":{"ha":307,"x_min":111,"x_max":196,"o":"m 111 0 l 111 704 l 196 704 l 196 0 l 111 0 z "},"Ĳ":{"ha":742,"x_min":118,"x_max":631,"o":"m 418 82 q 544 215 544 82 l 544 936 l 631 936 l 631 229 q 426 0 631 0 q 299 32 351 0 l 299 119 q 418 82 354 82 m 118 0 l 118 936 l 204 936 l 204 0 l 118 0 z "},"ĳ":{"ha":603,"x_min":89,"x_max":513,"o":"m 411 888 q 403 896 411 888 q 394 929 394 904 q 411 972 394 954 q 453 989 428 989 q 495 972 478 989 q 513 929 513 954 q 495 888 513 904 q 453 871 478 871 q 411 888 428 871 m 333 -189 q 413 -86 413 -189 l 413 704 l 497 704 l 497 -89 q 453 -222 497 -175 q 332 -269 410 -269 q 236 -250 286 -269 l 236 -167 q 333 -189 285 -189 m 106 888 q 97 896 106 888 q 89 929 89 904 q 106 972 89 954 q 147 989 122 989 q 190 972 172 989 q 207 929 207 954 q 190 888 207 904 q 147 871 172 871 q 106 888 122 871 m 106 0 l 106 704 l 190 704 l 190 0 l 106 0 z "},"Ĵ":{"ha":556,"x_min":42,"x_max":542,"o":"m 289 1219 l 376 1219 l 542 1011 l 453 1011 l 332 1160 l 213 1011 l 124 1011 l 289 1219 m 161 82 q 288 215 288 82 l 288 936 l 374 936 l 374 229 q 169 0 374 0 q 42 32 94 0 l 42 119 q 161 82 97 82 z "},"ĵ":{"ha":300,"x_min":-65,"x_max":364,"o":"m 32 -189 q 111 -86 111 -189 l 111 704 l 196 704 l 196 -89 q 152 -222 196 -175 q 31 -269 108 -269 q -65 -250 -15 -269 l -65 -167 q 32 -189 -17 -189 m 111 989 l 199 989 l 364 781 l 275 781 l 154 929 l 35 781 l -54 781 l 111 989 z "},"Ķ":{"ha":763,"x_min":111,"x_max":721,"o":"m 332 461 l 721 0 l 607 0 l 222 461 l 593 936 l 701 936 l 332 461 m 221 -331 l 343 -71 l 449 -71 l 296 -331 l 221 -331 m 111 0 l 111 936 l 197 936 l 197 0 l 111 0 z "},"ķ":{"ha":642,"x_min":106,"x_max":611,"o":"m 314 369 l 611 0 l 506 0 l 211 369 l 497 704 l 601 704 l 314 369 m 151 -331 l 274 -71 l 379 -71 l 226 -331 l 151 -331 m 190 982 l 190 0 l 106 0 l 106 982 l 190 982 z "},"ĸ":{"ha":642,"x_min":106,"x_max":611,"o":"m 314 369 l 611 0 l 506 0 l 211 369 l 497 704 l 601 704 l 314 369 m 106 0 l 106 704 l 190 704 l 190 0 l 106 0 z "},"Ĺ":{"ha":658,"x_min":111,"x_max":610,"o":"m 197 79 l 610 79 l 610 0 l 111 0 l 111 936 l 197 936 l 197 79 m 608 1221 l 431 1013 l 354 1013 l 496 1221 l 608 1221 z "},"ĺ":{"ha":307,"x_min":111,"x_max":374,"o":"m 111 0 l 111 982 l 196 982 l 196 0 l 111 0 m 119 1058 l 261 1267 l 374 1267 l 196 1058 l 119 1058 z "},"Ļ":{"ha":658,"x_min":111,"x_max":610,"o":"m 197 79 l 610 79 l 610 0 l 111 0 l 111 936 l 197 936 l 197 79 m 193 -331 l 315 -71 l 421 -71 l 268 -331 l 193 -331 z "},"ļ":{"ha":307,"x_min":-19,"x_max":208,"o":"m -19 -331 l 103 -71 l 208 -71 l 56 -331 l -19 -331 m 111 0 l 111 982 l 196 982 l 196 0 l 111 0 z "},"Ľ":{"ha":658,"x_min":111,"x_max":610,"o":"m 197 79 l 610 79 l 610 0 l 111 0 l 111 936 l 197 936 l 197 79 m 561 975 l 408 715 l 333 715 l 456 975 l 561 975 z "},"ľ":{"ha":353,"x_min":111,"x_max":521,"o":"m 293 722 l 415 982 l 521 982 l 368 722 l 293 722 m 111 0 l 111 982 l 196 982 l 196 0 l 111 0 z "},"Ŀ":{"ha":665,"x_min":111,"x_max":610,"o":"m 197 79 l 610 79 l 610 0 l 111 0 l 111 936 l 197 936 l 197 79 m 468 449 q 458 439 468 449 q 417 429 447 429 q 367 449 386 429 q 347 498 347 468 q 367 549 347 528 q 417 569 388 569 q 468 549 447 569 q 489 498 489 528 q 468 449 489 468 z "},"ŀ":{"ha":488,"x_min":106,"x_max":453,"o":"m 381 429 q 365 429 381 429 q 331 449 350 429 q 311 498 311 468 q 331 549 311 528 q 381 569 351 569 q 432 549 411 569 q 453 498 453 528 q 432 449 453 468 q 381 429 411 429 m 106 0 l 106 982 l 190 982 l 190 0 l 106 0 z "},"Ł":{"ha":671,"x_min":35,"x_max":622,"o":"m 210 79 l 622 79 l 622 0 l 124 0 l 124 356 l 35 289 l 35 381 l 124 447 l 124 936 l 210 936 l 210 511 l 413 661 l 413 569 l 210 419 l 210 79 z "},"ł":{"ha":386,"x_min":49,"x_max":338,"o":"m 225 0 l 140 0 l 140 438 l 49 372 l 49 464 l 140 529 l 140 982 l 225 982 l 225 590 l 338 671 l 338 579 l 225 499 l 225 0 z "},"Ń":{"ha":926,"x_min":111,"x_max":815,"o":"m 111 0 l 111 936 l 229 936 l 732 101 q 729 539 729 246 l 729 936 l 815 936 l 815 0 l 697 0 l 194 835 q 197 396 197 685 l 197 0 l 111 0 m 461 1011 l 603 1219 l 715 1219 l 538 1011 l 461 1011 z "},"ń":{"ha":735,"x_min":106,"x_max":638,"o":"m 190 704 l 190 583 q 414 715 256 715 q 576 653 515 715 q 638 492 638 590 l 638 0 l 553 0 l 553 465 q 511 590 553 547 q 392 633 469 633 q 253 567 315 633 q 190 389 190 501 l 190 0 l 106 0 l 106 704 l 190 704 m 626 989 l 449 781 l 372 781 l 514 989 l 626 989 z "},"Ņ":{"ha":926,"x_min":111,"x_max":815,"o":"m 111 0 l 111 936 l 229 936 l 732 101 q 729 539 729 246 l 729 936 l 815 936 l 815 0 l 697 0 l 194 835 q 197 396 197 685 l 197 0 l 111 0 m 306 -331 l 428 -71 l 533 -71 l 381 -331 l 306 -331 z "},"ņ":{"ha":735,"x_min":106,"x_max":638,"o":"m 190 704 l 190 583 q 414 715 256 715 q 576 653 515 715 q 638 492 638 590 l 638 0 l 553 0 l 553 465 q 511 590 553 547 q 392 633 469 633 q 253 567 315 633 q 190 389 190 501 l 190 0 l 106 0 l 106 704 l 190 704 m 207 -331 l 329 -71 l 435 -71 l 282 -331 l 207 -331 z "},"Ň":{"ha":926,"x_min":111,"x_max":815,"o":"m 533 1013 l 446 1013 l 281 1221 l 369 1221 l 490 1072 l 610 1221 l 699 1221 l 533 1013 m 111 0 l 111 936 l 229 936 l 732 101 q 729 539 729 246 l 729 936 l 815 936 l 815 0 l 697 0 l 194 835 q 197 396 197 685 l 197 0 l 111 0 z "},"ň":{"ha":735,"x_min":106,"x_max":638,"o":"m 190 704 l 190 583 q 414 715 256 715 q 576 653 515 715 q 638 492 638 590 l 638 0 l 553 0 l 553 465 q 511 590 553 547 q 392 633 469 633 q 253 567 315 633 q 190 389 190 501 l 190 0 l 106 0 l 106 704 l 190 704 m 439 781 l 351 781 l 186 989 l 275 989 l 396 840 l 515 989 l 604 989 l 439 781 z "},"ŉ":{"ha":767,"x_min":-32,"x_max":669,"o":"m 222 704 l 222 583 q 446 715 288 715 q 608 653 547 715 q 669 492 669 590 l 669 0 l 585 0 l 585 465 q 543 590 585 547 q 424 633 501 633 q 285 567 347 633 q 222 389 222 501 l 222 0 l 138 0 l 138 704 l 222 704 m 71 965 l 175 965 l 26 688 l -32 688 l 71 965 z "},"Ŋ":{"ha":926,"x_min":111,"x_max":815,"o":"m 729 936 l 815 936 l 815 -49 q 611 -278 815 -278 q 483 -246 536 -278 l 483 -158 q 603 -196 539 -196 q 729 -62 729 -196 l 729 0 l 697 0 l 194 835 q 197 396 197 685 l 197 0 l 111 0 l 111 936 l 229 936 l 732 101 q 729 539 729 246 l 729 936 z "},"ŋ":{"ha":735,"x_min":106,"x_max":639,"o":"m 638 344 l 639 344 l 639 -89 q 595 -222 639 -175 q 474 -269 551 -269 q 378 -250 428 -269 l 378 -167 q 475 -189 426 -189 q 554 -86 554 -189 l 554 0 l 553 0 l 553 465 q 511 590 553 547 q 392 633 469 633 q 253 567 315 633 q 190 389 190 501 l 190 0 l 106 0 l 106 704 l 190 704 l 190 583 q 414 715 256 715 q 576 653 515 715 q 638 492 638 590 l 638 344 z "},"Ō":{"ha":960,"x_min":69,"x_max":890,"o":"m 481 872 q 405 872 481 872 q 244 766 329 872 q 158 474 158 660 q 247 180 158 288 q 485 72 335 72 q 718 178 635 72 q 801 473 801 285 q 717 767 801 661 q 481 872 633 872 m 483 -11 q 390 -11 483 -11 q 183 121 296 -11 q 69 473 69 253 q 180 824 69 693 q 482 956 290 956 q 782 826 674 956 q 890 473 890 696 q 781 119 890 250 q 483 -11 671 -11 m 665 1085 l 300 1085 l 300 1147 l 665 1147 l 665 1085 z "},"ō":{"ha":779,"x_min":63,"x_max":717,"o":"m 628 351 q 628 411 628 351 q 568 552 628 471 q 392 633 508 633 q 214 550 276 633 q 151 350 151 467 q 216 151 151 233 q 391 68 281 68 q 565 149 501 68 q 628 351 628 231 m 717 349 q 717 270 717 349 q 628 90 717 192 q 389 -12 540 -12 q 150 90 238 -12 q 63 348 63 193 q 153 608 63 503 q 393 714 243 714 q 630 610 543 714 q 717 349 717 507 m 576 853 l 211 853 l 211 915 l 576 915 l 576 853 z "},"Ŏ":{"ha":960,"x_min":69,"x_max":890,"o":"m 483 -11 q 390 -11 483 -11 q 183 121 296 -11 q 69 473 69 253 q 180 824 69 693 q 482 956 290 956 q 782 826 674 956 q 890 473 890 696 q 781 119 890 250 q 483 -11 671 -11 m 481 872 q 405 872 481 872 q 244 766 329 872 q 158 474 158 660 q 247 180 158 288 q 485 72 335 72 q 718 178 635 72 q 801 473 801 285 q 717 767 801 661 q 481 872 633 872 m 269 1221 l 342 1221 q 485 1075 342 1075 q 628 1221 628 1075 l 700 1221 q 649 1067 700 1126 q 485 1008 597 1008 q 321 1067 372 1008 q 269 1221 269 1126 z "},"ŏ":{"ha":779,"x_min":63,"x_max":717,"o":"m 717 349 q 717 270 717 349 q 628 90 717 192 q 389 -12 540 -12 q 150 90 238 -12 q 63 348 63 193 q 153 608 63 503 q 393 714 243 714 q 630 610 543 714 q 717 349 717 507 m 628 351 q 628 411 628 351 q 568 552 628 471 q 392 633 508 633 q 214 550 276 633 q 151 350 151 467 q 216 151 151 233 q 391 68 281 68 q 565 149 501 68 q 628 351 628 231 m 193 989 l 265 989 q 408 843 265 843 q 551 989 551 843 l 624 989 q 572 835 624 894 q 408 776 521 776 q 244 835 296 776 q 193 989 193 894 z "},"Ő":{"ha":960,"x_min":69,"x_max":890,"o":"m 481 872 q 405 872 481 872 q 244 766 329 872 q 158 474 158 660 q 247 180 158 288 q 485 72 335 72 q 718 178 635 72 q 801 473 801 285 q 717 767 801 661 q 481 872 633 872 m 483 -11 q 390 -11 483 -11 q 183 121 296 -11 q 69 473 69 253 q 180 824 69 693 q 482 956 290 956 q 782 826 674 956 q 890 473 890 696 q 781 119 890 250 q 483 -11 671 -11 m 367 1013 l 504 1221 l 617 1221 l 435 1013 l 367 1013 m 572 1013 l 715 1221 l 828 1221 l 640 1013 l 572 1013 z "},"ő":{"ha":779,"x_min":63,"x_max":744,"o":"m 628 351 q 628 411 628 351 q 568 552 628 471 q 392 633 508 633 q 214 550 276 633 q 151 350 151 467 q 216 151 151 233 q 391 68 281 68 q 565 149 501 68 q 628 351 628 231 m 717 349 q 717 270 717 349 q 628 90 717 192 q 389 -12 540 -12 q 150 90 238 -12 q 63 348 63 193 q 153 608 63 503 q 393 714 243 714 q 630 610 543 714 q 717 349 717 507 m 283 781 l 421 989 l 533 989 l 351 781 l 283 781 m 489 781 l 632 989 l 744 989 l 557 781 l 489 781 z "},"Œ":{"ha":1360,"x_min":69,"x_max":1297,"o":"m 876 79 l 1297 79 l 1297 0 l 790 0 l 790 147 q 475 -11 683 -11 q 180 120 290 -11 q 69 473 69 251 q 177 825 69 694 q 472 956 285 956 q 790 800 683 956 l 790 936 l 1289 936 l 1289 857 l 876 857 l 876 507 l 1240 507 l 1240 428 l 876 428 l 876 79 m 158 473 q 158 380 158 473 q 244 179 158 286 q 478 72 329 72 q 709 178 628 72 q 790 472 790 283 q 708 767 790 661 q 474 872 626 872 q 240 766 322 872 q 158 473 158 660 z "},"œ":{"ha":1244,"x_min":63,"x_max":1183,"o":"m 1132 35 q 947 -7 1049 -7 q 766 35 844 -7 q 642 153 688 76 q 372 -12 564 -12 q 144 90 225 -12 q 63 348 63 192 q 147 609 63 504 q 372 714 231 714 q 639 556 561 714 q 907 713 722 713 q 1113 626 1042 713 q 1183 382 1183 540 q 1178 314 1183 342 l 683 314 q 765 135 693 197 q 949 74 838 74 q 1132 121 1061 74 l 1132 35 m 151 350 q 151 290 151 350 q 210 149 151 231 q 377 68 268 68 q 540 147 486 68 q 593 349 593 226 q 372 633 593 633 q 208 551 264 633 q 151 350 151 469 m 1096 392 l 1096 424 q 1042 579 1096 525 q 903 633 989 633 q 756 572 817 633 q 683 392 694 511 l 1096 392 z "},"Ŕ":{"ha":738,"x_min":111,"x_max":703,"o":"m 365 381 l 197 381 l 197 0 l 111 0 l 111 936 l 322 936 q 567 862 486 936 q 649 651 649 788 q 596 489 646 557 q 454 396 546 421 l 703 0 l 600 0 l 365 381 m 197 457 l 349 457 q 507 514 451 457 q 563 656 563 571 q 332 860 563 860 l 197 860 l 197 457 m 582 1221 l 404 1013 l 328 1013 l 469 1221 l 582 1221 z "},"ŕ":{"ha":436,"x_min":106,"x_max":490,"o":"m 190 704 l 190 585 q 388 713 249 713 q 422 710 397 713 l 422 624 q 367 632 394 632 q 241 558 292 632 q 190 393 190 483 l 190 0 l 106 0 l 106 704 l 190 704 m 490 989 l 313 781 l 236 781 l 378 989 l 490 989 z "},"Ŗ":{"ha":738,"x_min":111,"x_max":703,"o":"m 365 381 l 197 381 l 197 0 l 111 0 l 111 936 l 322 936 q 567 862 486 936 q 649 651 649 788 q 596 489 646 557 q 454 396 546 421 l 703 0 l 600 0 l 365 381 m 197 457 l 349 457 q 507 514 451 457 q 563 656 563 571 q 332 860 563 860 l 197 860 l 197 457 m 215 -331 l 338 -71 l 443 -71 l 290 -331 l 215 -331 z "},"ŗ":{"ha":436,"x_min":-28,"x_max":422,"o":"m 190 704 l 190 585 q 388 713 249 713 q 422 710 397 713 l 422 624 q 367 632 394 632 q 241 558 292 632 q 190 393 190 483 l 190 0 l 106 0 l 106 704 l 190 704 m -28 -331 l 94 -71 l 200 -71 l 47 -331 l -28 -331 z "},"Ř":{"ha":738,"x_min":111,"x_max":703,"o":"m 365 381 l 197 381 l 197 0 l 111 0 l 111 936 l 322 936 q 567 862 486 936 q 649 651 649 788 q 596 489 646 557 q 454 396 546 421 l 703 0 l 600 0 l 365 381 m 197 457 l 349 457 q 507 514 451 457 q 563 656 563 571 q 332 860 563 860 l 197 860 l 197 457 m 417 1011 l 329 1011 l 164 1219 l 253 1219 l 374 1071 l 493 1219 l 582 1219 l 417 1011 z "},"ř":{"ha":436,"x_min":68,"x_max":486,"o":"m 190 704 l 190 585 q 388 713 249 713 q 422 710 397 713 l 422 624 q 367 632 394 632 q 241 558 292 632 q 190 393 190 483 l 190 0 l 106 0 l 106 704 l 190 704 m 321 779 l 233 779 l 68 988 l 157 988 l 278 839 l 397 988 l 486 988 l 321 779 z "},"Ś":{"ha":732,"x_min":101,"x_max":642,"o":"m 394 860 q 246 816 301 860 q 190 700 190 772 q 254 581 190 625 q 374 515 306 543 q 467 474 442 486 q 531 438 492 463 q 589 389 569 413 q 642 242 642 325 q 560 55 642 119 q 342 -10 478 -10 q 104 51 206 -10 l 104 147 q 212 94 146 115 q 361 74 278 74 q 499 117 444 74 q 554 231 554 160 q 513 339 554 301 q 343 433 467 381 q 205 503 228 483 q 160 543 182 522 q 128 585 138 564 q 101 694 101 642 q 186 878 101 813 q 390 944 271 944 q 588 903 510 944 l 588 807 q 500 844 554 829 q 394 860 446 860 m 360 1011 l 501 1219 l 614 1219 l 436 1011 l 360 1011 z "},"ś":{"ha":564,"x_min":79,"x_max":518,"o":"m 297 632 q 201 603 236 632 q 165 538 165 575 q 176 481 165 501 q 211 442 186 460 q 328 387 244 421 q 463 306 411 353 q 515 176 515 260 q 455 42 515 93 q 278 -8 394 -8 q 83 33 161 -8 l 83 121 q 283 68 176 68 q 391 97 354 68 q 428 178 428 126 q 390 260 428 229 q 265 324 351 290 q 129 403 179 358 q 79 528 79 447 q 142 660 79 610 q 308 711 204 711 q 474 679 413 711 l 474 594 q 297 632 408 632 m 264 781 l 406 989 l 518 989 l 340 781 l 264 781 z "},"Ŝ":{"ha":732,"x_min":101,"x_max":642,"o":"m 308 1219 l 396 1219 l 561 1011 l 472 1011 l 351 1160 l 232 1011 l 143 1011 l 308 1219 m 394 860 q 246 816 301 860 q 190 700 190 772 q 254 581 190 625 q 374 515 306 543 q 467 474 442 486 q 531 438 492 463 q 589 389 569 413 q 642 242 642 325 q 560 55 642 119 q 342 -10 478 -10 q 104 51 206 -10 l 104 147 q 212 94 146 115 q 361 74 278 74 q 499 117 444 74 q 554 231 554 160 q 513 339 554 301 q 343 433 467 381 q 205 503 228 483 q 160 543 182 522 q 128 585 138 564 q 101 694 101 642 q 186 878 101 813 q 390 944 271 944 q 588 903 510 944 l 588 807 q 500 844 554 829 q 394 860 446 860 z "},"ŝ":{"ha":564,"x_min":79,"x_max":515,"o":"m 261 989 l 349 989 l 514 781 l 425 781 l 304 929 l 185 781 l 96 781 l 261 989 m 297 632 q 201 603 236 632 q 165 538 165 575 q 176 481 165 501 q 211 442 186 460 q 328 387 244 421 q 463 306 411 353 q 515 176 515 260 q 455 42 515 93 q 278 -8 394 -8 q 83 33 161 -8 l 83 121 q 283 68 176 68 q 391 97 354 68 q 428 178 428 126 q 390 260 428 229 q 265 324 351 290 q 129 403 179 358 q 79 528 79 447 q 142 660 79 610 q 308 711 204 711 q 474 679 413 711 l 474 594 q 297 632 408 632 z "},"Ş":{"ha":732,"x_min":101,"x_max":642,"o":"m 400 -71 q 425 -174 425 -107 q 374 -290 425 -240 q 226 -344 322 -340 l 226 -276 q 347 -175 347 -264 q 315 -71 347 -124 l 400 -71 m 394 860 q 246 816 301 860 q 190 700 190 772 q 254 581 190 625 q 374 515 306 543 q 467 474 442 486 q 531 438 492 463 q 589 389 569 413 q 642 242 642 325 q 560 55 642 119 q 342 -10 478 -10 q 104 51 206 -10 l 104 147 q 212 94 146 115 q 361 74 278 74 q 499 117 444 74 q 554 231 554 160 q 513 339 554 301 q 343 433 467 381 q 205 503 228 483 q 160 543 182 522 q 128 585 138 564 q 101 694 101 642 q 186 878 101 813 q 390 944 271 944 q 588 903 510 944 l 588 807 q 500 844 554 829 q 394 860 446 860 z "},"ş":{"ha":564,"x_min":79,"x_max":515,"o":"m 351 -71 q 376 -174 376 -107 q 325 -290 376 -240 q 178 -344 274 -340 l 178 -276 q 299 -175 299 -264 q 267 -71 299 -124 l 351 -71 m 297 632 q 201 603 236 632 q 165 538 165 575 q 176 481 165 501 q 211 442 186 460 q 328 387 244 421 q 463 306 411 353 q 515 176 515 260 q 455 42 515 93 q 278 -8 394 -8 q 83 33 161 -8 l 83 121 q 283 68 176 68 q 391 97 354 68 q 428 178 428 126 q 390 260 428 229 q 265 324 351 290 q 129 403 179 358 q 79 528 79 447 q 142 660 79 610 q 308 711 204 711 q 474 679 413 711 l 474 594 q 297 632 408 632 z "},"Š":{"ha":732,"x_min":101,"x_max":642,"o":"m 408 1011 l 321 1011 l 156 1219 l 244 1219 l 365 1071 l 485 1219 l 574 1219 l 408 1011 m 394 860 q 246 816 301 860 q 190 700 190 772 q 254 581 190 625 q 374 515 306 543 q 467 474 442 486 q 531 438 492 463 q 589 389 569 413 q 642 242 642 325 q 560 55 642 119 q 342 -10 478 -10 q 104 51 206 -10 l 104 147 q 212 94 146 115 q 361 74 278 74 q 499 117 444 74 q 554 231 554 160 q 513 339 554 301 q 343 433 467 381 q 205 503 228 483 q 160 543 182 522 q 128 585 138 564 q 101 694 101 642 q 186 878 101 813 q 390 944 271 944 q 588 903 510 944 l 588 807 q 500 844 554 829 q 394 860 446 860 z "},"š":{"ha":564,"x_min":79,"x_max":526,"o":"m 361 781 l 274 781 l 108 989 l 197 989 l 318 840 l 438 989 l 526 989 l 361 781 m 297 632 q 201 603 236 632 q 165 538 165 575 q 176 481 165 501 q 211 442 186 460 q 328 387 244 421 q 463 306 411 353 q 515 176 515 260 q 455 42 515 93 q 278 -8 394 -8 q 83 33 161 -8 l 83 121 q 283 68 176 68 q 391 97 354 68 q 428 178 428 126 q 390 260 428 229 q 265 324 351 290 q 129 403 179 358 q 79 528 79 447 q 142 660 79 610 q 308 711 204 711 q 474 679 413 711 l 474 594 q 297 632 408 632 z "},"Ţ":{"ha":646,"x_min":21,"x_max":625,"o":"m 625 936 l 625 857 l 365 857 l 365 0 l 279 0 l 279 857 l 21 857 l 21 936 l 625 936 m 139 -331 l 261 -71 l 367 -71 l 214 -331 l 139 -331 z "},"ţ":{"ha":506,"x_min":35,"x_max":443,"o":"m 236 632 l 236 194 q 349 74 236 74 q 443 106 404 74 l 443 19 q 350 -7 403 -7 q 150 199 150 -7 l 150 632 l 35 632 l 35 704 l 150 704 l 150 881 l 236 881 l 236 704 l 438 704 l 438 632 l 236 632 m 68 -331 l 190 -71 l 296 -71 l 143 -331 l 68 -331 z "},"Ť":{"ha":646,"x_min":21,"x_max":625,"o":"m 625 936 l 625 857 l 365 857 l 365 0 l 279 0 l 279 857 l 21 857 l 21 936 l 625 936 m 368 1013 l 281 1013 l 115 1221 l 204 1221 l 325 1072 l 444 1221 l 533 1221 l 368 1013 z "},"ť":{"ha":506,"x_min":35,"x_max":549,"o":"m 236 632 l 236 194 q 349 74 236 74 q 443 106 404 74 l 443 19 q 350 -7 403 -7 q 150 199 150 -7 l 150 632 l 35 632 l 35 704 l 150 704 l 150 881 l 236 881 l 236 704 l 438 704 l 438 632 l 236 632 m 549 1040 l 396 781 l 321 781 l 443 1040 l 549 1040 z "},"Ŧ":{"ha":646,"x_min":21,"x_max":625,"o":"m 625 857 l 365 857 l 365 494 l 532 494 l 532 424 l 365 424 l 365 0 l 279 0 l 279 424 l 113 424 l 113 494 l 279 494 l 279 857 l 21 857 l 21 936 l 625 936 l 625 857 z "},"ŧ":{"ha":506,"x_min":35,"x_max":443,"o":"m 236 378 l 236 194 q 349 74 236 74 q 443 106 404 74 l 443 19 q 350 -7 403 -7 q 150 199 150 -7 l 150 378 l 35 378 l 35 442 l 150 442 l 150 632 l 35 632 l 35 704 l 150 704 l 150 881 l 236 881 l 236 704 l 438 704 l 438 632 l 236 632 l 236 442 l 439 442 l 439 378 l 236 378 z "},"Ũ":{"ha":888,"x_min":111,"x_max":776,"o":"m 553 1056 q 456 1088 518 1056 q 372 1119 394 1119 q 279 1051 314 1119 l 229 1093 q 284 1160 247 1133 q 362 1188 321 1188 q 463 1156 403 1188 q 549 1124 524 1124 q 618 1183 590 1124 l 676 1144 q 553 1056 635 1056 m 690 351 l 690 936 l 776 936 l 776 354 q 689 81 776 174 q 443 -11 601 -11 q 198 79 285 -11 q 111 343 111 169 l 111 936 l 197 936 l 197 344 q 263 138 197 204 q 442 72 329 72 q 690 351 690 72 z "},"ũ":{"ha":735,"x_min":97,"x_max":629,"o":"m 544 704 l 629 704 l 629 0 l 544 0 l 544 126 q 321 -10 489 -10 q 158 52 218 -10 q 97 215 97 114 l 97 704 l 182 704 l 182 239 q 224 115 182 158 q 336 72 267 72 q 487 139 429 72 q 544 313 544 206 l 544 704 m 469 817 q 373 849 435 817 q 289 881 311 881 q 196 813 231 881 l 146 854 q 201 922 164 894 q 278 949 238 949 q 380 917 319 949 q 465 885 440 885 q 535 944 507 885 l 593 906 q 469 817 551 817 z "},"Ū":{"ha":888,"x_min":111,"x_max":776,"o":"m 629 1085 l 264 1085 l 264 1147 l 629 1147 l 629 1085 m 690 351 l 690 936 l 776 936 l 776 354 q 689 81 776 174 q 443 -11 601 -11 q 198 79 285 -11 q 111 343 111 169 l 111 936 l 197 936 l 197 344 q 263 138 197 204 q 442 72 329 72 q 690 351 690 72 z "},"ū":{"ha":735,"x_min":97,"x_max":629,"o":"m 544 704 l 629 704 l 629 0 l 544 0 l 544 126 q 321 -10 489 -10 q 158 52 218 -10 q 97 215 97 114 l 97 704 l 182 704 l 182 239 q 224 115 182 158 q 336 72 267 72 q 487 139 429 72 q 544 313 544 206 l 544 704 m 546 915 l 546 853 l 181 853 l 181 915 l 546 915 z "},"Ŭ":{"ha":888,"x_min":111,"x_max":776,"o":"m 690 351 l 690 936 l 776 936 l 776 354 q 689 81 776 174 q 443 -11 601 -11 q 198 79 285 -11 q 111 343 111 169 l 111 936 l 197 936 l 197 344 q 263 138 197 204 q 442 72 329 72 q 690 351 690 72 m 235 1219 l 307 1219 q 450 1074 307 1074 q 593 1219 593 1074 l 665 1219 q 614 1066 665 1125 q 450 1007 563 1007 q 286 1066 338 1007 q 235 1219 235 1125 z "},"ŭ":{"ha":735,"x_min":97,"x_max":629,"o":"m 544 704 l 629 704 l 629 0 l 544 0 l 544 126 q 321 -10 489 -10 q 158 52 218 -10 q 97 215 97 114 l 97 704 l 182 704 l 182 239 q 224 115 182 158 q 336 72 267 72 q 487 139 429 72 q 544 313 544 206 l 544 704 m 514 989 l 586 989 q 535 835 586 894 q 371 776 483 776 q 207 835 258 776 q 156 989 156 894 l 228 989 q 371 843 228 843 q 514 989 514 843 z "},"Ů":{"ha":888,"x_min":111,"x_max":776,"o":"m 690 351 l 690 936 l 776 936 l 776 354 q 689 81 776 174 q 443 -11 601 -11 q 198 79 285 -11 q 111 343 111 169 l 111 936 l 197 936 l 197 344 q 263 138 197 204 q 442 72 329 72 q 690 351 690 72 m 395 1186 q 384 1175 395 1186 q 374 1133 374 1164 q 395 1081 374 1103 q 447 1060 417 1060 q 500 1081 478 1060 q 522 1133 522 1103 q 500 1186 522 1164 q 447 1208 478 1208 q 395 1186 417 1208 m 448 997 q 420 997 448 997 q 351 1038 392 997 q 311 1134 311 1078 q 351 1231 311 1190 q 447 1271 390 1271 q 544 1231 504 1271 q 585 1133 585 1190 q 544 1037 585 1076 q 448 997 504 997 z "},"ů":{"ha":735,"x_min":97,"x_max":629,"o":"m 544 704 l 629 704 l 629 0 l 544 0 l 544 126 q 321 -10 489 -10 q 158 52 218 -10 q 97 215 97 114 l 97 704 l 182 704 l 182 239 q 224 115 182 158 q 336 72 267 72 q 487 139 429 72 q 544 313 544 206 l 544 704 m 513 903 q 513 874 513 903 q 472 806 513 846 q 376 767 432 767 q 279 807 319 767 q 239 903 239 847 q 278 1000 239 960 q 375 1040 318 1040 q 472 1000 432 1040 q 513 903 513 960 m 428 956 q 417 967 428 956 q 375 978 406 978 q 323 956 344 978 q 301 903 301 933 q 323 851 301 872 q 375 829 344 829 q 428 851 406 829 q 450 903 450 872 q 428 956 450 933 z "},"Ű":{"ha":888,"x_min":111,"x_max":776,"o":"m 300 1013 l 438 1221 l 550 1221 l 368 1013 l 300 1013 m 506 1013 l 649 1221 l 761 1221 l 574 1013 l 506 1013 m 690 351 l 690 936 l 776 936 l 776 354 q 689 81 776 174 q 443 -11 601 -11 q 198 79 285 -11 q 111 343 111 169 l 111 936 l 197 936 l 197 344 q 263 138 197 204 q 442 72 329 72 q 690 351 690 72 z "},"ű":{"ha":735,"x_min":97,"x_max":690,"o":"m 544 313 l 544 704 l 629 704 l 629 0 l 544 0 l 544 126 q 321 -10 489 -10 q 158 52 218 -10 q 97 215 97 114 l 97 704 l 182 704 l 182 239 q 224 115 182 158 q 336 72 267 72 q 487 139 429 72 q 544 313 544 206 m 479 989 l 297 781 l 229 781 l 367 989 l 479 989 m 503 781 l 435 781 l 578 989 l 690 989 l 503 781 z "},"Ų":{"ha":888,"x_min":111,"x_max":776,"o":"m 690 936 l 776 936 l 776 354 q 571 8 776 74 q 418 -164 418 -61 q 444 -231 418 -208 q 519 -254 471 -254 q 604 -226 567 -254 l 604 -296 q 497 -321 565 -321 q 385 -278 429 -321 q 340 -171 340 -236 q 425 -11 340 -82 q 193 85 275 -6 q 111 343 111 175 l 111 936 l 197 936 l 197 344 q 263 138 197 204 q 442 72 329 72 q 690 351 690 72 l 690 936 z "},"ų":{"ha":735,"x_min":97,"x_max":661,"o":"m 629 704 l 629 0 q 475 -172 475 -69 q 501 -240 475 -217 q 576 -262 528 -262 q 661 -235 624 -262 l 661 -304 q 554 -329 622 -329 q 442 -287 486 -329 q 397 -181 397 -244 q 439 -63 397 -117 q 544 22 481 -10 l 544 126 q 321 -10 489 -10 q 158 52 218 -10 q 97 215 97 114 l 97 704 l 182 704 l 182 239 q 224 115 182 158 q 336 72 267 72 q 487 139 429 72 q 544 313 544 206 l 544 704 l 629 704 z "},"Ŵ":{"ha":1290,"x_min":56,"x_max":1235,"o":"m 610 1221 l 697 1221 l 863 1013 l 774 1013 l 653 1161 l 533 1013 l 444 1013 l 610 1221 m 600 922 l 701 922 l 961 82 q 1149 936 1029 396 l 1235 936 l 1022 0 l 904 0 l 653 810 q 417 0 607 644 l 299 0 l 56 936 l 146 936 l 360 88 q 600 922 439 368 z "},"ŵ":{"ha":1094,"x_min":42,"x_max":1053,"o":"m 497 989 l 585 989 l 750 781 l 661 781 l 540 929 l 421 781 l 332 781 l 497 989 m 257 0 l 42 704 l 135 704 q 313 85 282 208 q 490 704 319 110 l 590 704 l 774 82 q 964 704 797 168 l 1053 704 l 831 0 l 717 0 l 540 606 q 371 0 500 454 l 257 0 z "},"Ŷ":{"ha":806,"x_min":42,"x_max":764,"o":"m 444 0 l 358 0 l 358 350 l 42 936 l 140 936 l 214 799 l 401 438 q 665 936 413 464 l 764 936 l 444 350 l 444 0 m 401 1160 l 282 1011 l 193 1011 l 358 1219 l 446 1219 l 611 1011 l 522 1011 l 401 1160 z "},"ŷ":{"ha":669,"x_min":13,"x_max":643,"o":"m 99 -233 q 46 -226 71 -233 l 46 -143 q 93 -150 71 -150 q 300 19 242 -150 l 13 704 l 110 704 l 342 129 q 549 704 356 175 l 643 704 l 388 18 q 263 -179 335 -125 q 99 -233 190 -233 m 286 989 l 374 989 l 539 781 l 450 781 l 329 929 l 210 781 l 121 781 l 286 989 z "},"Ÿ":{"ha":806,"x_min":42,"x_max":764,"o":"m 444 0 l 358 0 l 358 350 l 42 936 l 140 936 l 214 799 l 401 438 q 665 936 413 464 l 764 936 l 444 350 l 444 0 m 333 1117 q 333 1105 333 1117 q 316 1074 333 1092 q 273 1057 299 1057 q 231 1074 247 1057 q 214 1117 214 1092 q 231 1160 214 1143 q 273 1176 247 1176 q 316 1160 299 1176 q 333 1117 333 1143 m 589 1117 q 589 1105 589 1117 q 572 1074 589 1092 q 530 1057 556 1057 q 487 1074 504 1057 q 469 1117 469 1092 q 487 1160 469 1143 q 530 1176 504 1176 q 572 1160 556 1176 q 589 1117 589 1143 z "},"Ź":{"ha":771,"x_min":69,"x_max":701,"o":"m 681 936 l 681 860 l 167 76 l 701 76 l 701 0 l 69 0 l 69 76 l 583 860 l 75 860 l 75 936 l 681 936 m 363 1013 l 504 1221 l 617 1221 l 439 1013 l 363 1013 z "},"ź":{"ha":619,"x_min":63,"x_max":557,"o":"m 538 704 l 538 640 l 163 83 l 557 83 l 557 0 l 63 0 l 63 71 l 432 622 l 76 622 l 76 704 l 538 704 m 278 781 l 419 989 l 532 989 l 354 781 l 278 781 z "},"Ż":{"ha":771,"x_min":69,"x_max":701,"o":"m 392 1061 q 380 1061 392 1061 q 349 1078 367 1061 q 332 1122 332 1096 q 349 1164 332 1147 q 392 1181 367 1181 q 435 1164 418 1181 q 451 1122 451 1147 q 435 1078 451 1096 q 392 1061 418 1061 m 681 936 l 681 860 l 167 76 l 701 76 l 701 0 l 69 0 l 69 76 l 583 860 l 75 860 l 75 936 l 681 936 z "},"ż":{"ha":619,"x_min":63,"x_max":557,"o":"m 334 825 q 321 825 334 825 q 291 842 308 825 q 274 885 274 860 q 291 928 274 911 q 334 944 308 944 q 376 928 360 944 q 393 885 393 911 q 376 842 393 860 q 334 825 360 825 m 538 704 l 538 640 l 163 83 l 557 83 l 557 0 l 63 0 l 63 71 l 432 622 l 76 622 l 76 704 l 538 704 z "},"Ž":{"ha":771,"x_min":69,"x_max":701,"o":"m 424 1013 l 336 1013 l 171 1221 l 260 1221 l 381 1072 l 500 1221 l 589 1221 l 424 1013 m 681 936 l 681 860 l 167 76 l 701 76 l 701 0 l 69 0 l 69 76 l 583 860 l 75 860 l 75 936 l 681 936 z "},"ž":{"ha":619,"x_min":63,"x_max":557,"o":"m 374 781 l 286 781 l 121 989 l 210 989 l 331 840 l 450 989 l 539 989 l 374 781 m 538 704 l 538 640 l 163 83 l 557 83 l 557 0 l 63 0 l 63 71 l 432 622 l 76 622 l 76 704 l 538 704 z "},"ſ":{"ha":311,"x_min":106,"x_max":353,"o":"m 353 975 q 287 986 324 986 q 220 953 250 986 q 190 856 190 921 l 190 0 l 106 0 l 106 857 q 156 1010 106 953 q 296 1067 206 1067 q 353 1058 322 1067 l 353 975 z "},"ƒ":{"ha":496,"x_min":-106,"x_max":544,"o":"m 460 946 q 544 935 511 946 l 544 851 q 465 865 507 865 q 335 704 364 865 l 300 510 l 439 510 l 439 438 l 288 438 l 188 -125 q 118 -300 167 -243 q -21 -357 69 -357 q -106 -346 -72 -357 l -106 -262 q -26 -276 -68 -276 q 104 -115 75 -276 l 203 438 l 64 438 l 64 510 l 215 510 l 251 714 q 321 889 272 832 q 460 946 369 946 z "},"Ș":{"ha":732,"x_min":101,"x_max":642,"o":"m 194 -331 l 317 -71 l 422 -71 l 269 -331 l 194 -331 m 394 860 q 246 816 301 860 q 190 700 190 772 q 254 581 190 625 q 374 515 306 543 q 467 474 442 486 q 531 438 492 463 q 589 389 569 413 q 642 242 642 325 q 560 55 642 119 q 342 -10 478 -10 q 104 51 206 -10 l 104 147 q 212 94 146 115 q 361 74 278 74 q 499 117 444 74 q 554 231 554 160 q 513 339 554 301 q 343 433 467 381 q 205 503 228 483 q 160 543 182 522 q 128 585 138 564 q 101 694 101 642 q 186 878 101 813 q 390 944 271 944 q 588 903 510 944 l 588 807 q 500 844 554 829 q 394 860 446 860 z "},"ș":{"ha":564,"x_min":79,"x_max":515,"o":"m 297 632 q 201 603 236 632 q 165 538 165 575 q 176 481 165 501 q 211 442 186 460 q 328 387 244 421 q 463 306 411 353 q 515 176 515 260 q 455 42 515 93 q 278 -8 394 -8 q 83 33 161 -8 l 83 121 q 283 68 176 68 q 391 97 354 68 q 428 178 428 126 q 390 260 428 229 q 265 324 351 290 q 129 403 179 358 q 79 528 79 447 q 142 660 79 610 q 308 711 204 711 q 474 679 413 711 l 474 594 q 297 632 408 632 m 124 -331 l 246 -71 l 351 -71 l 199 -331 l 124 -331 z "},"Ț":{"ha":646,"x_min":21,"x_max":625,"o":"m 625 936 l 625 857 l 365 857 l 365 0 l 279 0 l 279 857 l 21 857 l 21 936 l 625 936 m 143 -331 l 265 -71 l 371 -71 l 218 -331 l 143 -331 z "},"ț":{"ha":506,"x_min":35,"x_max":443,"o":"m 236 632 l 236 194 q 349 74 236 74 q 443 106 404 74 l 443 19 q 350 -7 403 -7 q 150 199 150 -7 l 150 632 l 35 632 l 35 704 l 150 704 l 150 881 l 236 881 l 236 704 l 438 704 l 438 632 l 236 632 m 157 -331 l 279 -71 l 385 -71 l 232 -331 l 157 -331 z "},"ȷ":{"ha":300,"x_min":-65,"x_max":196,"o":"m 32 -189 q 111 -86 111 -189 l 111 704 l 196 704 l 196 -89 q 152 -222 196 -175 q 31 -269 108 -269 q -65 -250 -15 -269 l -65 -167 q 32 -189 -17 -189 z "},"ʼ":{"ha":224,"x_min":31,"x_max":253,"o":"m 31 668 l 140 965 l 253 965 l 93 668 l 31 668 z "},"ˆ":{"ha":556,"x_min":68,"x_max":486,"o":"m 233 1108 l 321 1108 l 486 900 l 397 900 l 276 1049 l 157 900 l 68 900 l 233 1108 z "},"ˇ":{"ha":556,"x_min":68,"x_max":486,"o":"m 321 900 l 233 900 l 68 1108 l 157 1108 l 278 960 l 397 1108 l 486 1108 l 321 900 z "},"ˉ":{"ha":556,"x_min":94,"x_max":460,"o":"m 460 978 l 94 978 l 94 1040 l 460 1040 l 460 978 z "},"˘":{"ha":556,"x_min":63,"x_max":493,"o":"m 63 1108 l 135 1108 q 278 963 135 963 q 421 1108 421 963 l 493 1108 q 442 955 493 1014 q 278 896 390 896 q 114 955 165 896 q 63 1108 63 1014 z "},"˙":{"ha":556,"x_min":218,"x_max":338,"o":"m 278 950 q 266 950 278 950 q 235 967 253 950 q 218 1010 218 985 q 235 1053 218 1036 q 278 1069 253 1069 q 321 1053 304 1069 q 338 1010 338 1036 q 321 967 338 985 q 278 950 304 950 z "},"˚":{"ha":556,"x_min":140,"x_max":414,"o":"m 224 1057 q 214 1046 224 1057 q 203 1004 203 1035 q 224 952 203 974 q 276 931 246 931 q 329 952 307 931 q 351 1005 351 974 q 330 1058 351 1036 q 277 1079 308 1079 q 224 1057 246 1079 m 180 908 q 160 927 180 908 q 140 1004 140 947 q 180 1101 140 1061 q 276 1142 219 1142 q 374 1101 333 1142 q 414 1004 414 1061 q 374 908 414 947 q 276 868 333 868 q 180 908 219 868 z "},"˛":{"ha":556,"x_min":146,"x_max":410,"o":"m 410 -290 q 303 -315 371 -315 q 190 -273 235 -315 q 146 -161 146 -231 q 203 -31 146 -92 q 342 57 261 31 l 378 14 q 224 -158 224 -56 q 250 -226 224 -203 q 324 -249 276 -249 q 410 -221 372 -249 l 410 -290 z "},"˜":{"ha":556,"x_min":69,"x_max":517,"o":"m 393 928 q 297 960 358 928 q 213 992 235 992 q 119 924 154 992 l 69 965 q 124 1033 88 1006 q 202 1060 161 1060 q 303 1028 243 1060 q 389 996 364 996 q 458 1056 431 996 l 517 1017 q 393 928 475 928 z "},"˝":{"ha":556,"x_min":47,"x_max":508,"o":"m 47 900 l 185 1108 l 297 1108 l 115 900 l 47 900 m 253 900 l 396 1108 l 508 1108 l 321 900 l 253 900 z "},"π":{"ha":800,"x_min":35,"x_max":772,"o":"m 772 704 l 772 632 l 633 632 l 633 0 l 549 0 l 549 632 l 258 632 l 258 211 q 205 47 258 94 q 57 0 151 0 l 57 78 q 148 105 122 78 q 174 210 174 132 l 174 632 l 35 632 l 35 704 l 772 704 z "},"ँ":{"ha":0,"x_min":-417,"x_max":43,"o":"m -232 1265 q -241 1274 -232 1265 q -250 1311 -250 1283 q -232 1358 -250 1339 q -186 1376 -214 1376 q -139 1358 -158 1376 q -119 1311 -119 1339 q -139 1265 -119 1283 q -186 1247 -158 1247 q -232 1265 -214 1247 m 43 1235 q -24 1082 43 1135 q -187 1029 -90 1029 q -350 1081 -283 1029 q -417 1235 -417 1133 l -331 1235 q -293 1140 -331 1178 q -187 1101 -256 1101 q -81 1139 -119 1101 q -43 1235 -43 1176 l 43 1235 z "},"ं":{"ha":0,"x_min":-250,"x_max":-119,"o":"m -232 1029 q -241 1038 -232 1029 q -250 1075 -250 1047 q -232 1122 -250 1103 q -186 1140 -214 1140 q -139 1122 -158 1140 q -119 1075 -119 1103 q -139 1029 -119 1047 q -186 1011 -158 1011 q -232 1029 -214 1011 z "},"ः":{"ha":419,"x_min":72,"x_max":203,"o":"m 90 172 q 81 181 90 172 q 72 218 72 190 q 90 265 72 246 q 136 283 108 283 q 183 265 164 283 q 203 218 203 246 q 183 172 203 190 q 136 154 164 154 q 90 172 108 154 m 90 626 q 81 635 90 626 q 72 672 72 644 q 90 719 72 700 q 136 738 108 738 q 183 719 164 738 q 203 672 203 700 q 183 626 203 644 q 136 608 164 608 q 90 626 108 608 z "},"अ":{"ha":899,"x_min":42,"x_max":926,"o":"m 544 881 l 926 881 l 926 804 l 760 804 l 760 0 l 675 0 l 675 372 l 471 372 q 474 335 474 347 q 401 172 474 235 q 206 110 329 110 q 42 144 117 110 l 42 226 q 202 185 128 185 q 332 222 276 185 q 388 331 388 260 q 203 474 388 474 l 157 474 l 157 553 l 203 553 q 320 588 281 553 q 360 681 360 622 q 221 801 360 801 q 89 769 147 801 l 89 851 q 218 876 149 876 q 387 825 328 876 q 446 697 446 774 q 411 575 446 619 q 322 517 376 531 q 439 449 397 506 l 675 449 l 675 804 l 544 804 l 544 881 z "},"आ":{"ha":1263,"x_min":42,"x_max":1290,"o":"m 1290 881 l 1290 804 l 1124 804 l 1124 0 l 1038 0 l 1038 804 l 760 804 l 760 0 l 675 0 l 675 372 l 471 372 q 474 335 474 347 q 401 172 474 235 q 206 110 329 110 q 42 144 117 110 l 42 226 q 202 185 128 185 q 332 222 276 185 q 388 331 388 260 q 203 474 388 474 l 157 474 l 157 553 l 203 553 q 320 588 281 553 q 360 681 360 622 q 221 801 360 801 q 89 769 147 801 l 89 851 q 218 876 149 876 q 387 825 328 876 q 446 697 446 774 q 411 575 446 619 q 322 517 376 531 q 439 449 397 506 l 675 449 l 675 804 l 544 804 l 544 881 l 1290 881 z "},"इ":{"ha":650,"x_min":-28,"x_max":678,"o":"m 526 600 l 321 600 q 218 575 256 600 q 181 504 181 550 q 224 436 181 458 q 374 406 268 414 q 608 217 608 386 q 544 71 608 129 q 383 13 481 13 q 181 92 256 13 l 181 -79 l 97 -79 l 97 229 l 174 229 q 256 128 199 168 q 379 88 314 88 q 483 123 444 88 q 522 213 522 158 q 484 298 522 268 q 351 333 446 328 q 94 504 94 350 q 154 630 94 583 q 314 676 214 676 l 440 676 l 440 804 l -28 804 l -28 881 l 678 881 l 678 804 l 526 804 l 526 600 z "},"ई":{"ha":650,"x_min":-28,"x_max":678,"o":"m 526 600 l 321 600 q 218 575 256 600 q 181 504 181 550 q 224 436 181 458 q 374 406 268 414 q 608 217 608 386 q 544 71 608 129 q 383 13 481 13 q 181 92 256 13 l 181 -79 l 97 -79 l 97 229 l 174 229 q 256 128 199 168 q 379 88 314 88 q 483 123 444 88 q 522 213 522 158 q 484 298 522 268 q 351 333 446 328 q 94 504 94 350 q 154 630 94 583 q 314 676 214 676 l 440 676 l 440 804 l -28 804 l -28 881 l 414 881 q 367 1008 367 932 q 417 1138 367 1085 q 556 1192 467 1192 q 633 1178 603 1192 l 633 1100 q 552 1115 597 1115 q 480 1085 507 1115 q 453 998 453 1056 q 510 881 453 940 l 678 881 l 678 804 l 526 804 l 526 600 z "},"उ":{"ha":582,"x_min":-28,"x_max":610,"o":"m 610 881 l 610 804 l 428 804 q 481 669 481 751 q 346 479 481 525 q 469 417 413 474 q 526 263 526 361 q 449 97 526 164 q 231 31 372 31 q 42 67 142 31 l 42 146 q 224 104 128 104 q 380 147 319 104 q 440 272 440 190 q 377 397 440 353 q 219 440 314 440 l 154 440 l 154 517 l 224 517 q 394 668 394 517 q 377 744 394 706 q 333 804 360 782 l -28 804 l -28 881 l 610 881 z "},"ऊ":{"ha":950,"x_min":-28,"x_max":976,"o":"m 976 881 l 976 804 l 428 804 q 481 669 481 751 q 346 479 481 525 q 479 407 425 472 q 552 511 496 469 q 671 553 608 553 q 848 486 788 553 q 908 305 908 419 q 844 119 908 190 q 674 47 781 47 q 646 51 656 47 l 646 124 q 669 121 657 121 q 782 169 742 121 q 822 301 822 218 q 786 432 822 385 q 678 479 750 479 q 567 420 607 479 q 526 279 528 361 l 526 271 q 449 97 526 164 q 231 31 372 31 q 42 67 142 31 l 42 146 q 224 104 128 104 q 380 147 319 104 q 440 272 440 190 q 377 397 440 353 q 219 440 314 440 l 154 440 l 154 517 l 224 517 q 394 668 394 517 q 377 744 394 706 q 333 804 360 782 l -28 804 l -28 881 l 976 881 z "},"ऋ":{"ha":1100,"x_min":-28,"x_max":1128,"o":"m 1128 804 l 585 804 l 585 465 l 800 590 l 800 667 l 876 667 l 876 538 q 908 449 876 476 q 1007 421 939 421 l 1010 421 l 1010 347 l 953 347 q 857 316 890 347 q 824 233 824 285 q 860 156 824 182 q 960 131 896 131 q 1072 161 1025 131 l 1072 88 q 947 58 1025 58 q 803 104 868 58 q 738 232 738 150 q 772 335 738 289 q 865 400 806 382 q 801 506 811 429 l 585 379 l 585 0 l 499 0 l 499 333 l 61 65 l 61 160 l 393 360 q 317 496 364 447 q 185 546 271 544 q 42 513 111 544 l 42 599 q 194 629 106 629 q 355 573 282 629 q 464 403 428 517 l 499 424 l 499 804 l -28 804 l -28 881 l 1128 881 l 1128 804 z "},"ऌ":{"ha":1035,"x_min":-28,"x_max":1063,"o":"m 899 804 l 899 226 q 778 188 817 224 q 740 103 740 151 q 776 24 740 54 q 874 -6 811 -6 q 993 14 936 -6 l 993 -61 q 892 -78 932 -78 q 722 -30 788 -78 q 656 107 656 18 q 697 222 656 175 q 813 285 739 268 l 813 551 q 700 579 764 579 q 594 534 636 579 q 553 394 553 489 l 553 292 l 468 292 l 468 396 q 338 575 468 575 q 228 519 272 575 q 183 352 183 464 q 247 156 183 240 q 429 72 310 72 q 497 85 469 72 l 497 11 q 417 0 467 0 q 185 104 274 0 q 97 364 97 208 q 161 567 97 488 q 329 647 225 647 q 451 613 403 647 q 513 515 499 579 q 701 651 543 651 q 813 629 761 651 l 813 804 l -28 804 l -28 881 l 1063 881 l 1063 804 l 899 804 z "},"ऍ":{"ha":763,"x_min":-28,"x_max":790,"o":"m 790 881 l 790 804 l 664 804 l 664 593 q 606 443 664 501 q 438 385 549 385 q 383 392 404 385 l 383 465 q 438 457 401 457 q 578 596 578 457 l 578 804 l 211 804 l 211 358 q 463 122 211 122 q 651 167 574 122 l 651 86 q 456 50 568 50 q 214 124 303 50 q 125 357 125 197 l 125 804 l -28 804 l -28 881 l 790 881 m 547 1235 l 633 1235 q 567 1082 633 1135 q 403 1029 500 1029 q 240 1081 307 1029 q 174 1235 174 1133 l 260 1235 q 298 1140 260 1178 q 403 1101 336 1101 q 509 1139 471 1101 q 547 1235 547 1176 z "},"ऎ":{"ha":763,"x_min":-28,"x_max":790,"o":"m 790 881 l 790 804 l 664 804 l 664 593 q 606 443 664 501 q 438 385 549 385 q 383 392 404 385 l 383 465 q 438 457 401 457 q 578 596 578 457 l 578 804 l 211 804 l 211 358 q 463 122 211 122 q 651 167 574 122 l 651 86 q 456 50 568 50 q 214 124 303 50 q 125 357 125 197 l 125 804 l -28 804 l -28 881 l 578 881 q 461 1024 578 1024 l 374 1024 q 217 1074 267 1024 q 167 1240 167 1125 l 251 1240 q 281 1131 251 1164 q 375 1099 311 1099 l 460 1099 q 664 881 664 1099 l 790 881 z "},"ए":{"ha":763,"x_min":-28,"x_max":790,"o":"m 790 881 l 790 804 l 664 804 l 664 593 q 606 443 664 501 q 438 385 549 385 q 383 392 404 385 l 383 465 q 438 457 401 457 q 578 596 578 457 l 578 804 l 211 804 l 211 358 q 463 122 211 122 q 651 167 574 122 l 651 86 q 456 50 568 50 q 214 124 303 50 q 125 357 125 197 l 125 804 l -28 804 l -28 881 l 790 881 z "},"ऐ":{"ha":763,"x_min":-28,"x_max":790,"o":"m 790 881 l 790 804 l 664 804 l 664 593 q 606 443 664 501 q 438 385 549 385 q 383 392 404 385 l 383 465 q 438 457 401 457 q 578 596 578 457 l 578 804 l 211 804 l 211 358 q 463 122 211 122 q 651 167 574 122 l 651 86 q 456 50 568 50 q 214 124 303 50 q 125 357 125 197 l 125 804 l -28 804 l -28 881 l 561 881 l 442 1064 q 310 1142 392 1142 l 246 1133 l 246 1210 q 328 1218 276 1218 q 515 1094 435 1218 l 656 881 l 790 881 z "},"ऑ":{"ha":1261,"x_min":42,"x_max":1289,"o":"m 1289 881 l 1289 804 l 1122 804 l 1122 0 l 1036 0 l 1036 804 l 760 804 l 760 0 l 675 0 l 675 372 l 471 372 q 474 335 474 347 q 401 172 474 235 q 206 110 329 110 q 42 144 117 110 l 42 226 q 202 185 128 185 q 332 222 276 185 q 388 331 388 260 q 203 474 388 474 l 157 474 l 157 553 l 203 553 q 320 588 281 553 q 360 681 360 622 q 221 801 360 801 q 89 769 147 801 l 89 851 q 218 876 149 876 q 387 825 328 876 q 446 697 446 774 q 411 575 446 619 q 322 517 376 531 q 439 449 397 506 l 675 449 l 675 804 l 544 804 l 544 881 l 1289 881 m 1057 1235 l 1143 1235 q 1076 1082 1143 1135 q 913 1029 1010 1029 q 750 1081 817 1029 q 683 1235 683 1133 l 769 1235 q 807 1140 769 1178 q 913 1101 844 1101 q 1019 1139 981 1101 q 1057 1235 1057 1176 z "},"ऒ":{"ha":1263,"x_min":42,"x_max":1290,"o":"m 1124 881 l 1290 881 l 1290 804 l 1124 804 l 1124 0 l 1038 0 l 1038 804 l 760 804 l 760 0 l 675 0 l 675 372 l 471 372 q 474 335 474 347 q 401 172 474 235 q 206 110 329 110 q 42 144 117 110 l 42 226 q 202 185 128 185 q 332 222 276 185 q 388 331 388 260 q 203 474 388 474 l 157 474 l 157 553 l 203 553 q 320 588 281 553 q 360 681 360 622 q 221 801 360 801 q 89 769 147 801 l 89 851 q 218 876 149 876 q 387 825 328 876 q 446 697 446 774 q 411 575 446 619 q 322 517 376 531 q 439 449 397 506 l 675 449 l 675 804 l 544 804 l 544 881 l 1038 881 q 921 1024 1038 1024 l 833 1024 q 676 1074 726 1024 q 626 1240 626 1125 l 711 1240 q 741 1131 711 1164 q 835 1099 771 1099 l 919 1099 q 1124 881 1124 1099 z "},"ओ":{"ha":1263,"x_min":42,"x_max":1276,"o":"m 1276 881 l 1276 804 l 1110 804 l 1110 0 l 1024 0 l 1024 804 l 760 804 l 760 0 l 675 0 l 675 372 l 471 372 q 474 335 474 347 q 401 172 474 235 q 206 110 329 110 q 42 144 117 110 l 42 226 q 202 185 128 185 q 332 222 276 185 q 388 331 388 260 q 203 474 388 474 l 157 474 l 157 553 l 203 553 q 320 588 281 553 q 360 681 360 622 q 221 801 360 801 q 89 769 147 801 l 89 851 q 218 876 149 876 q 387 825 328 876 q 446 697 446 774 q 411 575 446 619 q 322 517 376 531 q 439 449 397 506 l 675 449 l 675 804 l 544 804 l 544 881 l 1025 881 l 906 1064 q 774 1142 856 1142 l 710 1133 l 710 1210 q 792 1218 740 1218 q 979 1094 899 1218 l 1119 881 l 1276 881 z "},"औ":{"ha":1263,"x_min":42,"x_max":1290,"o":"m 1007 881 q 885 964 935 939 q 791 989 836 989 q 699 976 746 989 l 699 1063 q 772 1072 736 1072 q 946 1000 864 1072 l 1060 899 l 933 1064 q 774 1138 878 1138 l 700 1129 l 700 1210 q 776 1218 740 1218 q 997 1094 917 1218 l 1138 881 l 1290 881 l 1290 804 l 1124 804 l 1124 0 l 1038 0 l 1038 804 l 760 804 l 760 0 l 675 0 l 675 372 l 471 372 q 474 335 474 347 q 401 172 474 235 q 206 110 329 110 q 42 144 117 110 l 42 226 q 202 185 128 185 q 332 222 276 185 q 388 331 388 260 q 203 474 388 474 l 157 474 l 157 553 l 203 553 q 320 588 281 553 q 360 681 360 622 q 221 801 360 801 q 89 769 147 801 l 89 851 q 218 876 149 876 q 387 825 328 876 q 446 697 446 774 q 411 575 446 619 q 322 517 376 531 q 439 449 397 506 l 675 449 l 675 804 l 544 804 l 544 881 l 1007 881 z "},"क":{"ha":1057,"x_min":-28,"x_max":1085,"o":"m 1085 804 l 572 804 l 572 594 q 740 663 632 663 q 919 596 849 663 q 989 414 989 529 q 911 228 989 299 q 721 157 833 157 q 689 161 700 157 l 689 236 q 718 233 703 233 q 850 282 797 233 q 903 413 903 331 q 855 542 903 494 q 738 590 807 590 q 620 546 668 590 q 572 436 572 501 l 572 0 l 486 0 l 486 211 q 318 143 426 143 q 140 210 210 143 q 69 392 69 276 q 147 578 69 507 q 338 649 225 649 q 369 644 358 649 l 369 569 q 340 572 356 572 q 208 524 261 572 q 156 393 156 475 q 203 263 156 311 q 321 215 251 215 q 438 260 390 215 q 486 369 486 304 l 486 804 l -28 804 l -28 881 l 1085 881 l 1085 804 z "},"ख":{"ha":1060,"x_min":-28,"x_max":1088,"o":"m 1088 881 l 1088 804 l 921 804 l 921 0 l 835 0 l 835 271 q 669 194 772 194 q 500 256 567 194 q 433 419 433 318 q 499 581 433 519 q 658 642 565 642 q 732 633 700 642 l 732 558 q 669 567 706 567 q 563 524 607 567 q 519 415 519 482 q 562 307 519 347 q 672 267 604 267 q 787 314 739 267 q 835 433 835 361 l 835 804 l 397 804 l 397 601 q 332 447 397 501 q 160 393 267 393 l 143 393 l 454 0 l 347 0 l 42 396 l 42 469 l 132 469 q 311 611 311 469 l 311 804 l -28 804 l -28 881 l 1088 881 z "},"ग":{"ha":793,"x_min":-28,"x_max":821,"o":"m -28 881 l 821 881 l 821 804 l 654 804 l 654 0 l 569 0 l 569 804 l 304 804 l 304 472 q 263 340 304 386 q 138 293 221 293 q 42 310 82 293 l 42 392 q 131 371 86 371 q 219 471 219 371 l 219 804 l -28 804 l -28 881 z "},"घ":{"ha":893,"x_min":-28,"x_max":921,"o":"m 921 881 l 921 804 l 754 804 l 754 0 l 669 0 l 669 275 q 547 178 625 218 q 361 139 469 139 q 182 194 253 139 q 111 344 111 250 q 258 514 111 479 q 160 563 204 522 q 117 678 117 603 q 181 804 117 754 l -28 804 l -28 881 l 921 881 m 669 454 l 669 804 l 293 804 q 203 671 203 763 q 390 554 203 554 l 461 554 l 461 478 l 375 478 q 244 442 292 478 q 197 341 197 407 q 250 243 197 275 q 375 211 303 211 q 583 285 497 211 q 669 454 669 360 z "},"ङ":{"ha":768,"x_min":-28,"x_max":796,"o":"m -28 881 l 796 881 l 796 804 l 542 804 l 542 596 l 313 596 q 221 573 258 596 q 183 499 183 550 q 226 424 183 449 q 380 393 268 399 q 556 346 492 388 q 621 209 621 304 q 548 56 621 114 q 342 -1 475 -1 q 99 56 208 -1 l 99 143 q 218 92 147 113 q 361 71 289 71 q 483 106 433 71 q 532 201 532 140 q 488 289 532 263 q 343 321 444 315 q 97 497 97 333 q 155 627 97 582 q 307 672 213 672 l 456 672 l 456 804 l -28 804 l -28 881 m 642 523 q 651 532 642 523 q 688 542 660 542 q 735 523 715 542 q 754 476 754 504 q 735 431 754 449 q 688 413 715 413 q 642 431 660 413 q 624 476 624 449 q 642 523 624 504 z "},"च":{"ha":871,"x_min":-28,"x_max":899,"o":"m 899 881 l 899 804 l 732 804 l 732 0 l 646 0 l 646 269 q 548 178 614 214 q 381 141 482 142 q 207 200 281 140 q 133 367 133 260 q 246 547 133 493 l 42 547 l 42 624 l 510 624 l 510 547 q 283 494 346 547 q 219 367 219 440 q 267 253 219 293 q 393 213 315 213 q 579 285 513 213 q 646 456 646 357 l 646 804 l -28 804 l -28 881 l 899 881 z "},"छ":{"ha":867,"x_min":-28,"x_max":894,"o":"m 894 804 l 676 804 l 676 631 q 783 426 783 574 q 677 180 783 278 q 421 82 571 82 q 184 145 271 82 q 97 314 97 208 q 138 434 97 386 q 243 490 179 482 q 163 546 201 503 q 125 657 125 589 q 192 804 125 750 l -28 804 l -28 881 l 894 881 l 894 804 m 599 804 l 307 804 q 211 656 211 760 q 256 556 211 593 q 361 519 300 519 l 400 519 l 400 446 l 347 446 q 227 409 271 446 q 183 306 183 372 q 248 197 183 239 q 410 154 313 154 q 617 226 536 154 q 697 426 697 299 q 656 544 697 500 q 529 589 614 589 q 471 579 493 589 l 471 653 q 532 661 493 661 q 599 657 571 661 l 599 804 z "},"ज":{"ha":900,"x_min":-28,"x_max":928,"o":"m -28 881 l 928 881 l 928 804 l 761 804 l 761 0 l 676 0 l 676 547 l 375 547 q 479 343 479 485 q 404 161 479 232 q 204 90 329 90 q 42 122 115 90 l 42 201 q 204 163 122 163 q 339 210 286 163 q 392 350 392 257 q 324 495 392 443 q 138 547 256 547 l 138 622 l 676 622 l 676 804 l -28 804 l -28 881 z "},"झ":{"ha":1046,"x_min":-28,"x_max":1074,"o":"m 1074 881 l 1074 804 l 907 804 l 907 0 l 821 0 l 821 358 l 558 358 q 614 224 614 306 q 551 85 614 143 q 389 26 489 26 q 181 106 256 26 l 181 -65 l 97 -65 l 97 243 l 174 243 q 258 142 197 183 q 385 101 319 101 q 490 136 451 101 q 528 228 528 171 q 351 361 528 349 q 172 403 233 369 q 110 519 110 438 q 169 645 110 600 q 328 690 228 690 l 460 690 l 460 804 l -28 804 l -28 881 l 1074 881 m 821 432 l 821 804 l 546 804 l 546 614 l 335 614 q 196 522 196 614 q 236 460 196 478 q 389 432 274 443 l 821 432 z "},"ञ":{"ha":932,"x_min":-28,"x_max":960,"o":"m 960 881 l 960 804 l 793 804 l 793 0 l 707 0 l 707 367 l 522 367 q 438 188 515 257 q 245 118 360 118 q 28 168 131 118 l 28 250 q 224 193 121 193 q 380 247 326 193 q 433 383 433 300 q 385 517 433 467 q 262 568 336 568 q 147 550 188 568 l 147 624 q 249 640 185 640 q 431 588 361 640 q 518 443 501 536 l 707 443 l 707 804 l -28 804 l -28 881 l 960 881 z "},"ट":{"ha":678,"x_min":-28,"x_max":706,"o":"m 174 331 q 174 276 174 331 q 243 165 174 222 q 424 107 313 107 q 622 158 536 107 l 622 79 q 426 35 539 35 q 179 113 275 35 q 83 326 83 190 q 180 546 83 463 q 422 629 276 629 q 461 628 449 629 l 461 804 l -28 804 l -28 881 l 706 881 l 706 804 l 547 804 l 547 551 q 458 558 501 558 q 253 499 333 558 q 174 331 174 439 z "},"ठ":{"ha":779,"x_min":-28,"x_max":807,"o":"m 807 804 l 460 804 l 460 611 q 630 527 564 593 q 696 349 696 461 q 610 162 696 236 q 388 88 525 88 q 167 163 251 88 q 83 358 83 238 q 169 546 83 479 q 375 617 256 613 l 375 804 l -28 804 l -28 881 l 807 881 l 807 804 m 388 160 q 437 160 388 160 q 547 215 486 160 q 607 358 607 269 q 548 496 607 447 q 395 544 489 544 q 237 498 301 544 q 172 360 172 451 q 231 214 172 268 q 388 160 289 160 z "},"ड":{"ha":718,"x_min":-28,"x_max":746,"o":"m 542 596 l 313 596 q 221 573 258 596 q 183 499 183 550 q 226 424 183 449 q 380 393 268 399 q 556 346 492 388 q 621 209 621 304 q 548 56 621 114 q 342 -1 475 -1 q 99 56 208 -1 l 99 143 q 218 92 147 113 q 361 71 289 71 q 483 106 433 71 q 532 201 532 140 q 488 289 532 263 q 343 321 444 315 q 97 497 97 333 q 155 627 97 582 q 307 672 213 672 l 456 672 l 456 804 l -28 804 l -28 881 l 746 881 l 746 804 l 542 804 l 542 596 z "},"ढ":{"ha":769,"x_min":-28,"x_max":797,"o":"m 369 376 q 507 404 425 404 q 638 358 589 404 q 686 232 686 313 q 612 92 686 151 q 406 33 538 33 q 179 116 275 33 q 83 331 83 199 q 176 553 83 463 q 425 644 269 644 q 501 640 461 644 l 501 804 l -28 804 l -28 881 l 797 881 l 797 804 l 588 804 l 588 554 q 446 567 508 567 q 244 501 315 567 q 172 333 172 435 q 241 169 172 232 q 403 106 310 106 q 549 142 497 106 q 600 240 600 178 q 571 306 600 281 q 483 332 542 332 q 369 299 424 332 l 369 376 z "},"ण":{"ha":1028,"x_min":-28,"x_max":1056,"o":"m 1056 881 l 1056 804 l 889 804 l 889 0 l 803 0 l 803 804 l 563 804 l 563 485 q 504 308 563 369 q 333 246 446 246 q 165 305 219 246 q 111 486 111 364 l 111 804 l -28 804 l -28 881 l 1056 881 m 476 485 l 476 804 l 197 804 l 197 486 q 332 319 197 319 q 476 485 476 319 z "},"त":{"ha":808,"x_min":-28,"x_max":836,"o":"m -28 881 l 836 881 l 836 804 l 669 804 l 669 0 l 585 0 l 585 543 l 444 543 q 185 311 185 543 q 239 139 185 203 q 399 75 293 75 q 432 78 418 75 l 432 3 q 394 0 415 0 q 178 88 258 0 q 97 313 97 176 q 183 535 97 450 q 429 619 268 619 l 585 619 l 585 804 l -28 804 l -28 881 z "},"थ":{"ha":875,"x_min":42,"x_max":903,"o":"m 483 704 q 395 519 483 588 q 143 414 307 450 q 379 231 182 231 q 572 306 493 231 q 651 519 651 382 l 651 881 l 903 881 l 903 804 l 736 804 l 736 0 l 651 0 l 651 306 q 551 205 626 253 q 379 157 476 157 q 153 233 247 157 q 42 465 60 308 q 310 558 224 503 q 397 701 397 614 q 372 783 397 751 q 296 815 346 815 q 220 786 246 815 q 194 724 194 757 q 198 675 194 690 q 207 648 201 660 q 213 635 213 636 l 126 635 q 108 722 108 685 q 161 838 108 789 q 300 888 214 888 q 435 834 386 888 q 483 704 483 781 z "},"द":{"ha":753,"x_min":-28,"x_max":781,"o":"m -28 881 l 781 881 l 781 804 l 611 804 l 611 576 l 379 576 q 222 524 279 576 q 164 378 164 472 q 216 228 164 283 q 356 174 268 174 q 495 222 443 174 q 547 343 547 271 l 628 343 l 628 -14 l 543 -14 l 543 174 q 354 101 482 101 q 148 181 226 101 q 69 378 69 260 q 149 574 69 497 q 369 651 229 651 l 526 651 l 526 804 l -28 804 l -28 881 z "},"ध":{"ha":878,"x_min":-28,"x_max":906,"o":"m 906 881 l 906 804 l 739 804 l 739 0 l 654 0 l 654 226 q 550 128 621 169 q 382 88 479 88 q 173 150 249 88 q 97 297 97 213 q 144 429 97 382 q 263 486 190 476 q 144 539 189 496 q 100 658 100 582 q 192 804 100 756 l -28 804 l -28 881 l 397 881 l 397 804 q 242 762 299 804 q 186 653 186 719 q 245 555 186 588 q 393 522 304 522 l 467 522 l 467 449 l 381 449 q 238 409 290 449 q 185 305 185 369 q 238 201 185 240 q 382 161 290 161 q 579 239 504 161 q 654 401 654 317 l 654 881 l 906 881 z "},"न":{"ha":667,"x_min":-28,"x_max":694,"o":"m -28 881 l 694 881 l 694 804 l 528 804 l 528 0 l 442 0 l 442 461 l 178 461 q 133 411 133 461 q 153 306 133 361 l 79 306 q 42 440 42 378 q 154 536 42 536 l 442 536 l 442 804 l -28 804 l -28 881 z "},"ऩ":{"ha":667,"x_min":-28,"x_max":694,"o":"m -28 881 l 694 881 l 694 804 l 528 804 l 528 0 l 442 0 l 442 461 l 178 461 q 133 411 133 461 q 153 306 133 361 l 79 306 q 42 440 42 378 q 154 536 42 536 l 442 536 l 442 804 l -28 804 l -28 881 m 125 98 q 134 107 125 98 q 171 117 143 117 q 218 98 199 117 q 238 51 238 79 q 218 6 238 24 q 171 -12 199 -12 q 125 6 143 -12 q 107 51 107 24 q 125 98 107 79 z "},"प":{"ha":760,"x_min":-28,"x_max":788,"o":"m 788 881 l 788 804 l 621 804 l 621 0 l 535 0 l 535 340 q 344 246 472 247 q 97 521 97 246 l 97 804 l -28 804 l -28 881 l 788 881 m 535 532 l 535 804 l 183 804 l 183 521 q 222 365 183 413 q 342 318 261 318 q 478 376 422 318 q 535 532 535 433 z "},"फ":{"ha":1079,"x_min":-28,"x_max":1107,"o":"m 1107 804 l 621 804 l 621 599 q 789 667 681 667 q 967 600 897 667 q 1038 418 1038 533 q 960 232 1038 303 q 769 161 882 161 q 738 165 747 161 l 738 240 q 767 238 751 238 q 899 286 846 238 q 951 417 951 335 q 903 547 951 499 q 785 594 856 594 q 667 549 714 594 q 621 436 621 503 l 621 0 l 535 0 l 535 342 q 347 252 474 253 q 158 312 219 251 q 97 514 97 372 l 97 804 l -28 804 l -28 881 l 1107 881 l 1107 804 m 535 532 l 535 804 l 183 804 l 183 521 q 222 369 183 414 q 342 324 260 324 q 479 378 424 324 q 535 532 535 433 z "},"ब":{"ha":849,"x_min":-28,"x_max":876,"o":"m 876 881 l 876 804 l 710 804 l 710 0 l 625 0 l 625 240 q 524 151 593 188 q 368 115 456 115 q 167 194 250 115 q 83 398 83 272 q 169 603 83 524 q 383 682 254 682 q 499 667 440 682 l 499 590 q 378 610 440 610 q 267 583 317 610 l 568 271 q 625 431 625 340 l 625 804 l -28 804 l -28 881 l 876 881 m 213 540 q 165 395 165 485 q 224 247 165 306 q 369 188 282 188 q 519 228 457 188 l 213 540 z "},"भ":{"ha":757,"x_min":14,"x_max":785,"o":"m 532 471 l 532 881 l 785 881 l 785 804 l 618 804 l 618 0 l 532 0 l 532 396 l 243 396 l 243 201 l 167 201 l 136 271 q 99 390 99 358 q 115 442 99 422 q 157 468 132 463 l 157 714 q 143 788 157 765 q 90 811 129 811 q 14 793 50 811 l 14 867 q 106 886 53 886 q 243 731 243 886 l 243 471 l 532 471 z "},"म":{"ha":790,"x_min":-28,"x_max":818,"o":"m 565 804 l 256 804 l 256 471 l 565 471 l 565 804 m -28 804 l -28 881 l 818 881 l 818 804 l 651 804 l 651 0 l 565 0 l 565 396 l 256 396 l 256 201 l 179 201 l 149 271 q 111 390 111 358 q 128 442 111 422 q 169 468 144 463 l 169 804 l -28 804 z "},"य":{"ha":865,"x_min":-28,"x_max":893,"o":"m 185 446 q 266 308 203 363 q 422 253 329 253 q 578 308 515 253 q 642 454 642 364 l 642 804 l 361 804 q 397 674 397 750 q 185 446 397 511 m 411 181 q 194 265 283 181 q 83 506 104 350 q 252 569 193 524 q 311 683 311 615 q 268 804 311 750 l -28 804 l -28 881 l 893 881 l 893 804 l 726 804 l 726 0 l 642 0 l 642 279 q 411 181 567 181 z "},"र":{"ha":507,"x_min":-28,"x_max":535,"o":"m 42 469 l 132 469 q 311 611 311 469 l 311 804 l -28 804 l -28 881 l 535 881 l 535 804 l 397 804 l 397 601 q 332 447 397 501 q 160 393 267 393 l 146 393 l 444 0 l 340 0 l 42 396 l 42 469 z "},"ऱ":{"ha":507,"x_min":-31,"x_max":535,"o":"m 42 469 l 132 469 q 311 611 311 469 l 311 804 l -28 804 l -28 881 l 535 881 l 535 804 l 397 804 l 397 601 q 332 447 397 501 q 160 393 267 393 l 146 393 l 444 0 l 340 0 l 42 396 l 42 469 m -12 -36 q -22 -27 -12 -36 q -31 10 -31 -18 q -12 56 -31 38 q 33 75 6 75 q 81 56 61 75 q 100 10 100 38 q 81 -36 100 -18 q 33 -54 61 -54 q -12 -36 6 -54 z "},"ल":{"ha":1010,"x_min":-28,"x_max":1038,"o":"m -28 881 l 1038 881 l 1038 804 l 871 804 l 871 0 l 785 0 l 785 551 q 694 579 739 579 q 581 534 622 579 q 539 394 539 489 l 539 292 l 454 292 l 454 396 q 324 575 454 575 q 214 519 258 575 q 169 352 169 464 q 233 156 169 240 q 415 72 296 72 q 447 75 436 72 l 447 4 q 403 0 428 0 q 172 104 260 0 q 83 364 83 208 q 147 567 83 488 q 315 647 211 647 q 437 613 389 647 q 499 515 485 579 q 688 651 529 651 q 785 629 743 651 l 785 804 l -28 804 l -28 881 z "},"ळ":{"ha":1107,"x_min":-28,"x_max":1135,"o":"m 1135 804 l 822 804 l 822 629 q 979 549 921 615 q 1038 377 1038 483 q 962 199 1038 271 q 775 128 886 128 q 531 235 621 128 q 325 128 467 128 q 141 196 213 128 q 69 377 69 264 q 142 562 69 490 q 324 633 215 633 q 564 535 475 633 q 738 632 621 621 l 738 804 l -28 804 l -28 881 l 1135 881 l 1135 804 m 444 256 q 460 283 444 256 q 497 375 476 310 q 528 464 518 440 q 329 561 447 561 q 203 509 250 561 q 156 377 156 457 q 203 250 156 297 q 331 203 250 203 q 444 256 411 203 m 771 203 q 903 253 854 203 q 951 385 951 304 q 903 514 951 467 q 771 561 854 561 q 631 478 675 561 q 592 385 611 442 q 567 308 574 328 q 771 203 650 203 z "},"ऴ":{"ha":1107,"x_min":-28,"x_max":1135,"o":"m 1135 804 l 822 804 l 822 629 q 979 549 921 615 q 1038 377 1038 483 q 962 199 1038 271 q 775 128 886 128 q 531 235 621 128 q 325 128 467 128 q 141 196 213 128 q 69 377 69 264 q 142 562 69 490 q 324 633 215 633 q 564 535 475 633 q 738 632 621 621 l 738 804 l -28 804 l -28 881 l 1135 881 l 1135 804 m 444 256 q 460 283 444 256 q 497 375 476 310 q 528 464 518 440 q 329 561 447 561 q 203 509 250 561 q 156 377 156 457 q 203 250 156 297 q 331 203 250 203 q 444 256 411 203 m 771 203 q 903 253 854 203 q 951 385 951 304 q 903 514 951 467 q 771 561 854 561 q 631 478 675 561 q 592 385 611 442 q 567 308 574 328 q 771 203 650 203 m 251 15 q 260 24 251 15 q 297 33 269 33 q 344 15 325 33 q 364 -32 364 -4 q 344 -78 364 -60 q 297 -96 325 -96 q 251 -78 269 -96 q 233 -32 233 -60 q 251 15 233 -4 z "},"व":{"ha":786,"x_min":-28,"x_max":814,"o":"m 814 881 l 814 804 l 647 804 l 647 0 l 563 0 l 563 249 q 332 128 496 128 q 147 199 225 128 q 69 384 69 269 q 144 572 69 499 q 335 644 219 644 q 421 635 382 644 l 421 558 q 339 569 389 569 q 208 519 260 569 q 156 386 156 468 q 208 252 156 304 q 336 200 261 200 q 503 272 444 200 q 563 443 563 344 l 563 804 l -28 804 l -28 881 l 814 881 z "},"श":{"ha":908,"x_min":42,"x_max":936,"o":"m 683 881 l 936 881 l 936 804 l 769 804 l 769 0 l 683 0 l 683 881 m 107 700 q 158 828 107 775 q 301 881 208 881 q 451 813 393 881 q 510 649 510 744 q 421 438 510 514 q 211 361 332 361 l 146 361 l 464 0 l 349 0 l 42 358 l 42 438 l 174 438 q 358 493 292 438 q 424 638 424 549 q 294 804 424 804 q 215 772 242 804 q 189 695 189 740 q 208 615 189 650 l 124 615 q 107 700 107 653 z "},"ष":{"ha":794,"x_min":-28,"x_max":822,"o":"m 822 881 l 822 804 l 656 804 l 656 0 l 569 0 l 569 328 q 379 238 504 240 q 183 305 254 238 q 111 514 111 372 l 111 804 l -28 804 l -28 881 l 822 881 m 197 521 q 246 362 197 414 q 378 310 294 310 q 536 394 483 310 l 197 718 l 197 521 m 569 518 l 569 804 l 197 804 l 197 803 l 561 451 q 569 518 569 481 z "},"स":{"ha":865,"x_min":-28,"x_max":893,"o":"m 893 881 l 893 804 l 726 804 l 726 0 l 642 0 l 642 376 l 401 376 q 149 389 246 376 l 403 0 l 299 0 l 42 396 l 42 469 l 132 469 q 242 501 214 469 q 269 606 269 533 l 269 804 l -28 804 l -28 881 l 893 881 m 642 456 l 642 804 l 356 804 l 356 596 q 317 456 356 507 l 642 456 z "},"ह":{"ha":729,"x_min":-28,"x_max":757,"o":"m 596 588 l 267 588 q 182 518 182 588 q 208 441 182 472 q 260 403 233 410 q 396 425 322 425 q 563 372 507 425 q 618 246 618 318 q 603 168 618 199 l 518 168 q 539 242 539 194 q 503 322 539 290 q 383 353 468 353 q 242 309 297 353 q 188 198 188 265 q 251 83 188 131 q 426 36 315 36 q 613 61 538 36 l 613 -15 q 435 -37 524 -37 q 190 35 276 -37 q 103 206 103 108 q 189 365 103 303 q 97 529 97 426 q 142 626 97 592 q 256 660 186 660 l 511 660 l 511 804 l -28 804 l -28 881 l 757 881 l 757 804 l 596 804 l 596 588 z "},"़":{"ha":0,"x_min":-440,"x_max":-310,"o":"m -422 -222 q -431 -213 -422 -222 q -440 -176 -440 -204 q -422 -130 -440 -149 q -376 -111 -404 -111 q -329 -130 -349 -111 q -310 -176 -310 -149 q -329 -222 -310 -204 q -376 -240 -349 -240 q -422 -222 -404 -240 z "},"ऽ":{"ha":581,"x_min":7,"x_max":567,"o":"m 567 226 q 497 65 567 135 q 275 -4 426 -4 q 7 67 124 -4 l 7 160 q 293 71 142 71 q 434 115 386 71 q 482 217 482 160 q 433 328 482 274 q 315 426 385 382 q 175 515 244 471 q 57 617 106 560 q 8 738 8 674 q 49 841 8 801 q 165 881 90 881 l 532 881 l 532 806 l 174 806 q 116 787 139 806 q 93 734 93 768 q 128 663 93 700 q 216 591 164 625 q 330 514 268 557 q 444 429 392 471 q 531 334 496 388 q 567 226 567 281 z "},"ा":{"ha":364,"x_min":-28,"x_max":392,"o":"m -28 804 l -28 881 l 392 881 l 392 804 l 225 804 l 225 0 l 139 0 l 139 804 l -28 804 z "},"ि":{"ha":363,"x_min":-28,"x_max":907,"o":"m 139 881 l 139 992 q 206 1167 139 1100 q 392 1233 272 1233 q 655 1186 511 1233 q 907 1069 799 1139 l 907 983 q 647 1107 794 1063 q 406 1151 500 1151 q 267 1108 311 1151 q 224 989 224 1064 l 224 881 l 390 881 l 390 804 l 224 804 l 224 0 l 139 0 l 139 804 l -28 804 l -28 881 l 139 881 z "},"ी":{"ha":363,"x_min":-228,"x_max":390,"o":"m 222 881 l 390 881 l 390 804 l 224 804 l 224 0 l 139 0 l 139 804 l -28 804 l -28 881 l 136 881 l 136 1007 q 97 1117 136 1079 q -5 1156 57 1156 q -105 1118 -67 1156 q -143 1007 -143 1081 l -143 983 l -228 983 l -228 1008 q -165 1177 -228 1121 q -5 1233 -101 1233 q 157 1177 92 1233 q 222 1008 222 1121 l 222 881 z "},"ु":{"ha":0,"x_min":-583,"x_max":4,"o":"m -583 -103 q -428 -221 -531 -164 q -244 -278 -326 -278 q -122 -245 -161 -278 q -82 -162 -82 -212 q -112 -85 -82 -111 q -183 -58 -143 -58 q -311 -94 -254 -58 l -329 -106 l -329 -26 q -184 14 -275 14 q -44 -34 -93 14 q 4 -165 4 -82 q -60 -299 4 -247 q -223 -350 -125 -350 q -422 -304 -321 -350 q -583 -203 -524 -258 l -583 -103 z "},"ू":{"ha":0,"x_min":-382,"x_max":125,"o":"m -190 -342 q -327 -294 -272 -342 q -382 -167 -382 -246 q -327 -37 -382 -89 q -186 14 -272 14 q -35 -26 -100 14 q 61 -131 29 -67 q 125 -393 125 -257 l 46 -393 q -12 -159 46 -260 q -181 -58 -71 -58 q -264 -87 -232 -58 q -296 -166 -296 -117 q -260 -242 -296 -215 q -189 -268 -225 -268 q -137 -264 -153 -268 l -137 -336 q -190 -342 -158 -342 z "},"ृ":{"ha":0,"x_min":-411,"x_max":-110,"o":"m -208 -368 q -356 -318 -300 -368 q -411 -187 -411 -268 q -356 -56 -411 -107 q -225 -4 -301 -4 l -225 11 l -139 11 l -139 -71 l -206 -71 q -292 -101 -260 -71 q -325 -183 -325 -132 q -296 -265 -325 -235 q -210 -296 -267 -296 q -110 -267 -153 -296 l -110 -340 q -208 -368 -151 -368 z "},"ॅ":{"ha":0,"x_min":-411,"x_max":49,"o":"m 49 1235 q -18 1082 49 1135 q -181 1029 -85 1029 q -344 1081 -278 1029 q -411 1235 -411 1133 l -325 1235 q -287 1140 -325 1178 q -182 1101 -250 1101 q -76 1139 -114 1101 q -37 1235 -37 1176 l 49 1235 z "},"ॆ":{"ha":0,"x_min":-636,"x_max":-139,"o":"m -428 1099 l -343 1099 q -139 881 -139 1099 l -225 881 q -342 1024 -225 1024 l -429 1024 q -586 1074 -536 1024 q -636 1240 -636 1125 l -551 1240 q -522 1131 -551 1164 q -428 1099 -492 1099 z "},"े":{"ha":0,"x_min":-556,"x_max":-139,"o":"m -556 1210 q -474 1218 -525 1218 q -286 1094 -367 1218 l -139 871 l -233 871 l -360 1064 q -492 1142 -410 1142 l -556 1133 l -556 1210 z "},"ै":{"ha":0,"x_min":-567,"x_max":-121,"o":"m -246 871 q -375 962 -324 935 q -473 989 -426 989 q -567 976 -519 989 l -567 1063 q -493 1072 -529 1072 q -319 1000 -401 1072 l -206 899 l -332 1064 q -492 1138 -387 1138 l -565 1129 l -565 1210 q -489 1218 -525 1218 q -268 1094 -349 1218 l -121 871 l -246 871 z "},"ॉ":{"ha":364,"x_min":-51,"x_max":408,"o":"m 408 1235 q 342 1082 408 1135 q 178 1029 275 1029 q 15 1081 82 1029 q -51 1235 -51 1133 l 35 1235 q 73 1140 35 1178 q 178 1101 111 1101 q 284 1139 246 1101 q 322 1235 322 1176 l 408 1235 m -28 804 l -28 881 l 392 881 l 392 804 l 225 804 l 225 0 l 139 0 l 139 804 l -28 804 z "},"ॊ":{"ha":363,"x_min":-274,"x_max":390,"o":"m 224 881 l 390 881 l 390 804 l 224 804 l 224 0 l 139 0 l 139 804 l -28 804 l -28 881 l 138 881 q 21 1024 138 1024 l -67 1024 q -224 1074 -174 1024 q -274 1240 -274 1125 l -189 1240 q -159 1131 -189 1164 q -65 1099 -129 1099 l 19 1099 q 224 881 224 1099 z "},"ो":{"ha":363,"x_min":-192,"x_max":390,"o":"m 390 881 l 390 804 l 224 804 l 224 0 l 139 0 l 139 804 l -28 804 l -28 881 l 124 881 l 4 1064 q -128 1142 -46 1142 l -192 1133 l -192 1210 q -110 1218 -161 1218 q 78 1094 -3 1218 l 218 881 l 390 881 z "},"ौ":{"ha":363,"x_min":-207,"x_max":390,"o":"m 101 881 q -20 964 29 939 q -115 989 -69 989 q -207 976 -160 989 l -207 1063 q -133 1072 -169 1072 q 40 1000 -42 1072 l 154 899 l 28 1064 q -132 1138 -28 1138 l -206 1129 l -206 1210 q -129 1218 -165 1218 q 92 1094 11 1218 l 232 881 l 390 881 l 390 804 l 224 804 l 224 0 l 139 0 l 139 804 l -28 804 l -28 881 l 101 881 z "},"्":{"ha":0,"x_min":-208,"x_max":72,"o":"m 72 -321 l -36 -321 l -208 -96 l -121 -96 l 72 -321 z "},"ॐ":{"ha":1714,"x_min":157,"x_max":1549,"o":"m 1168 924 q 1101 771 1168 824 q 938 718 1035 718 q 775 770 842 718 q 708 924 708 822 l 794 924 q 832 828 794 867 q 938 790 869 790 q 1044 828 1006 790 q 1082 924 1082 865 l 1168 924 m 893 954 q 884 963 893 954 q 875 1000 875 972 q 893 1047 875 1028 q 939 1065 911 1065 q 986 1047 967 1065 q 1006 1000 1006 1028 q 986 954 1006 972 q 939 936 967 936 q 893 954 911 936 m 1082 268 q 977 113 1032 168 q 841 57 922 57 q 710 92 760 57 q 638 174 661 128 q 559 53 628 106 q 370 0 490 0 q 157 61 250 0 l 157 151 q 388 75 258 75 q 522 119 474 75 q 569 231 569 164 q 522 334 569 297 q 378 371 474 371 l 313 371 l 313 447 l 364 447 q 529 594 529 447 q 490 698 529 658 q 393 738 450 738 q 211 686 283 738 l 211 767 q 392 814 293 814 q 553 751 492 814 q 615 610 615 689 q 585 485 615 531 q 508 421 554 439 q 650 314 589 419 q 707 214 696 231 q 739 175 718 197 q 833 132 775 132 q 933 184 890 132 q 1017 320 975 236 q 1072 428 1060 404 q 1116 503 1083 451 q 1174 578 1149 556 q 1319 640 1244 640 q 1485 561 1422 640 q 1549 359 1549 482 q 1480 148 1549 236 q 1293 60 1411 60 q 1172 83 1224 60 l 1172 168 q 1294 135 1224 135 q 1414 196 1365 135 q 1463 348 1463 257 q 1426 501 1463 439 q 1331 564 1390 564 q 1219 504 1271 564 q 1082 268 1168 444 z "},"॑":{"ha":0,"x_min":-226,"x_max":-146,"o":"m -226 1256 l -146 1256 l -146 964 l -226 964 l -226 1256 z "},"॒":{"ha":0,"x_min":-843,"x_max":-142,"o":"m -142 -297 l -843 -297 l -843 -232 l -142 -232 l -142 -297 z "},"॓":{"ha":0,"x_min":-385,"x_max":-135,"o":"m -385 1196 l -322 1247 l -135 1024 l -197 972 l -385 1196 z "},"॔":{"ha":0,"x_min":-243,"x_max":7,"o":"m -56 1247 l 7 1196 l -181 972 l -243 1024 l -56 1247 z "},"क़":{"ha":1057,"x_min":-28,"x_max":1085,"o":"m 1085 804 l 572 804 l 572 594 q 740 663 632 663 q 919 596 849 663 q 989 414 989 529 q 911 228 989 299 q 721 157 833 157 q 689 161 700 157 l 689 236 q 718 233 703 233 q 850 282 797 233 q 903 413 903 331 q 855 542 903 494 q 738 590 807 590 q 620 546 668 590 q 572 436 572 501 l 572 0 l 486 0 l 486 211 q 318 143 426 143 q 140 210 210 143 q 69 392 69 276 q 147 578 69 507 q 338 649 225 649 q 369 644 358 649 l 369 569 q 340 572 356 572 q 208 524 261 572 q 156 393 156 475 q 203 263 156 311 q 321 215 251 215 q 438 260 390 215 q 486 369 486 304 l 486 804 l -28 804 l -28 881 l 1085 881 l 1085 804 m 161 -5 q 170 5 161 -5 q 207 14 179 14 q 254 -5 235 14 q 274 -51 274 -24 q 254 -97 274 -79 q 207 -115 235 -115 q 161 -97 179 -115 q 143 -51 143 -79 q 161 -5 143 -24 z "},"ख़":{"ha":1060,"x_min":-28,"x_max":1088,"o":"m 1088 881 l 1088 804 l 921 804 l 921 0 l 835 0 l 835 271 q 669 194 772 194 q 500 256 567 194 q 433 419 433 318 q 499 581 433 519 q 658 642 565 642 q 732 633 700 642 l 732 558 q 669 567 706 567 q 563 524 607 567 q 519 415 519 482 q 562 307 519 347 q 672 267 604 267 q 787 314 739 267 q 835 433 835 361 l 835 804 l 397 804 l 397 601 q 332 447 397 501 q 160 393 267 393 l 143 393 l 454 0 l 347 0 l 42 396 l 42 469 l 132 469 q 311 611 311 469 l 311 804 l -28 804 l -28 881 l 1088 881 m 50 9 q 59 18 50 9 q 96 28 68 28 q 143 9 124 28 q 163 -37 163 -10 q 143 -83 163 -65 q 96 -101 124 -101 q 50 -83 68 -101 q 32 -37 32 -65 q 50 9 32 -10 z "},"ग़":{"ha":793,"x_min":-28,"x_max":821,"o":"m -28 881 l 821 881 l 821 804 l 654 804 l 654 0 l 569 0 l 569 804 l 304 804 l 304 472 q 263 340 304 386 q 138 293 221 293 q 42 310 82 293 l 42 392 q 131 371 86 371 q 219 471 219 371 l 219 804 l -28 804 l -28 881 m 119 92 q 128 102 119 92 q 165 111 138 111 q 213 92 193 111 q 232 46 232 74 q 213 0 232 18 q 165 -18 193 -18 q 119 0 138 -18 q 101 46 101 18 q 119 92 101 74 z "},"ज़":{"ha":900,"x_min":-28,"x_max":928,"o":"m -28 881 l 928 881 l 928 804 l 761 804 l 761 0 l 676 0 l 676 547 l 375 547 q 479 343 479 485 q 404 161 479 232 q 204 90 329 90 q 42 122 115 90 l 42 201 q 204 163 122 163 q 339 210 286 163 q 392 350 392 257 q 324 495 392 443 q 138 547 256 547 l 138 622 l 676 622 l 676 804 l -28 804 l -28 881 m 161 -74 q 170 -65 161 -74 q 207 -56 179 -56 q 254 -74 235 -56 q 274 -121 274 -93 q 254 -167 274 -149 q 207 -185 235 -185 q 161 -167 179 -185 q 143 -121 143 -149 q 161 -74 143 -93 z "},"ड़":{"ha":718,"x_min":-28,"x_max":746,"o":"m 542 596 l 313 596 q 221 573 258 596 q 183 499 183 550 q 226 424 183 449 q 380 393 268 399 q 556 346 492 388 q 621 209 621 304 q 548 56 621 114 q 342 -1 475 -1 q 99 56 208 -1 l 99 143 q 218 92 147 113 q 361 71 289 71 q 483 106 433 71 q 532 201 532 140 q 488 289 532 263 q 343 321 444 315 q 97 497 97 333 q 155 627 97 582 q 307 672 213 672 l 456 672 l 456 804 l -28 804 l -28 881 l 746 881 l 746 804 l 542 804 l 542 596 m 300 -144 q 309 -134 300 -144 q 346 -125 318 -125 q 393 -144 374 -125 q 413 -190 413 -162 q 393 -236 413 -218 q 346 -254 374 -254 q 300 -236 318 -254 q 282 -190 282 -218 q 300 -144 282 -162 z "},"ढ़":{"ha":769,"x_min":-28,"x_max":797,"o":"m 374 -222 q 365 -213 374 -222 q 356 -176 356 -204 q 374 -130 356 -149 q 419 -111 392 -111 q 467 -130 447 -111 q 486 -176 486 -149 q 467 -222 486 -204 q 419 -240 447 -240 q 374 -222 392 -240 m 369 376 q 507 404 425 404 q 638 358 589 404 q 686 232 686 313 q 612 92 686 151 q 406 33 538 33 q 179 116 275 33 q 83 331 83 199 q 176 553 83 463 q 425 644 269 644 q 501 640 461 644 l 501 804 l -28 804 l -28 881 l 797 881 l 797 804 l 588 804 l 588 554 q 446 567 508 567 q 244 501 315 567 q 172 333 172 435 q 241 169 172 232 q 403 106 310 106 q 549 142 497 106 q 600 240 600 178 q 571 306 600 281 q 483 332 542 332 q 369 299 424 332 l 369 376 z "},"फ़":{"ha":1079,"x_min":-28,"x_max":1107,"o":"m 1107 804 l 621 804 l 621 599 q 789 667 681 667 q 967 600 897 667 q 1038 418 1038 533 q 960 232 1038 303 q 769 161 882 161 q 738 165 747 161 l 738 240 q 767 238 751 238 q 899 286 846 238 q 951 417 951 335 q 903 547 951 499 q 785 594 856 594 q 667 549 714 594 q 621 436 621 503 l 621 0 l 535 0 l 535 342 q 347 252 474 253 q 158 312 219 251 q 97 514 97 372 l 97 804 l -28 804 l -28 881 l 1107 881 l 1107 804 m 535 532 l 535 804 l 183 804 l 183 521 q 222 369 183 414 q 342 324 260 324 q 479 378 424 324 q 535 532 535 433 m 147 60 q 156 70 147 60 q 193 79 165 79 q 240 60 221 79 q 260 14 260 42 q 240 -32 260 -14 q 193 -50 221 -50 q 147 -32 165 -50 q 129 14 129 -14 q 147 60 129 42 z "},"य़":{"ha":865,"x_min":-28,"x_max":893,"o":"m 140 -56 q 131 -47 140 -56 q 122 -10 122 -37 q 140 37 122 18 q 186 56 158 56 q 233 37 214 56 q 253 -10 253 18 q 233 -56 253 -37 q 186 -74 214 -74 q 140 -56 158 -74 m 185 446 q 266 308 203 363 q 422 253 329 253 q 578 308 515 253 q 642 454 642 364 l 642 804 l 361 804 q 397 674 397 750 q 185 446 397 511 m 411 181 q 194 265 283 181 q 83 506 104 350 q 252 569 193 524 q 311 683 311 615 q 268 804 311 750 l -28 804 l -28 881 l 893 881 l 893 804 l 726 804 l 726 0 l 642 0 l 642 279 q 411 181 567 181 z "},"ॠ":{"ha":958,"x_min":-28,"x_max":986,"o":"m 986 804 l 543 804 l 543 442 l 699 525 l 699 633 l 783 633 l 783 540 q 831 385 783 442 q 869 340 850 361 q 917 225 917 290 q 859 91 917 138 q 710 44 801 44 q 667 47 694 44 l 667 132 q 728 125 692 125 q 798 151 765 125 q 831 217 831 176 q 815 285 831 258 q 781 328 800 311 q 741 377 761 346 q 713 444 721 408 l 543 350 l 543 0 l 457 0 l 457 303 l 99 101 l 99 200 l 361 342 q 280 481 328 435 q 149 528 232 528 q 83 519 125 528 l 83 607 q 153 613 113 613 q 438 383 361 613 l 457 393 l 457 804 l -28 804 l -28 881 l 986 881 l 986 804 z "},"ॡ":{"ha":1056,"x_min":-15,"x_max":1072,"o":"m 925 804 l 925 410 q 901 303 925 351 q 847 228 876 254 q 769 107 769 157 q 803 31 769 57 q 896 4 836 4 l 921 4 l 921 -71 l 863 -71 q 775 -101 806 -71 q 744 -178 744 -131 q 778 -261 744 -226 q 869 -296 813 -296 q 968 -279 925 -296 l 968 -357 q 869 -372 918 -372 q 715 -319 775 -372 q 656 -181 656 -265 q 688 -81 656 -121 q 769 -28 721 -40 q 683 101 683 8 q 708 187 683 147 q 761 251 732 226 q 815 318 790 276 q 839 410 839 360 l 839 586 l 725 586 q 590 542 631 586 q 550 388 550 497 l 550 321 l 464 321 l 464 389 q 315 589 464 589 q 193 534 239 589 q 147 376 147 479 q 374 67 147 111 l 371 -11 q 144 113 226 14 q 61 378 61 211 q 126 583 61 503 q 307 664 192 664 q 508 518 472 664 q 719 660 538 660 l 839 660 l 839 804 l -15 804 l -15 881 l 1072 881 l 1072 804 l 925 804 z "},"।":{"ha":426,"x_min":201,"x_max":288,"o":"m 201 0 l 201 881 l 288 881 l 288 0 l 201 0 z "},"॥":{"ha":715,"x_min":201,"x_max":576,"o":"m 490 0 l 490 881 l 576 881 l 576 0 l 490 0 m 201 0 l 201 881 l 288 881 l 288 0 l 201 0 z "},"०":{"ha":746,"x_min":58,"x_max":688,"o":"m 374 833 q 327 833 374 833 q 213 735 281 833 q 146 456 146 636 q 211 174 146 276 q 375 72 276 72 q 537 172 474 72 q 600 456 600 272 q 534 736 600 639 q 374 833 468 833 m 144 117 q 101 182 144 117 q 58 457 58 246 q 146 792 58 668 q 372 917 233 917 q 599 793 511 917 q 688 458 688 669 q 604 117 688 246 q 376 -11 521 -11 q 144 117 231 -11 z "},"१":{"ha":476,"x_min":63,"x_max":351,"o":"m 351 908 l 351 0 l 267 0 l 267 815 l 63 688 l 63 783 l 267 908 l 351 908 z "},"२":{"ha":697,"x_min":63,"x_max":628,"o":"m 628 76 l 628 0 l 63 0 l 63 76 q 507 643 507 417 q 453 787 507 738 q 303 836 400 836 q 96 756 206 836 l 96 842 q 310 917 190 917 q 513 847 429 917 q 596 647 596 776 q 183 76 596 406 l 628 76 z "},"३":{"ha":682,"x_min":90,"x_max":599,"o":"m 115 867 q 310 917 190 917 q 500 849 429 917 q 571 682 571 781 q 426 461 571 524 q 551 388 504 443 q 599 250 599 332 q 524 65 599 139 q 317 -8 449 -8 q 90 38 186 -8 l 90 124 q 297 72 189 72 q 458 122 406 72 q 511 253 511 172 q 453 378 511 335 q 293 421 394 421 l 232 421 l 232 497 l 293 497 q 426 545 371 497 q 482 674 482 593 q 433 795 482 754 q 292 836 383 836 q 115 781 200 836 l 115 867 z "},"४":{"ha":790,"x_min":83,"x_max":728,"o":"m 728 304 l 728 228 l 588 228 l 588 0 l 504 0 l 504 228 l 83 228 l 83 304 l 447 908 l 588 908 l 588 304 l 728 304 m 504 304 l 504 860 l 171 304 l 504 304 z "},"५":{"ha":739,"x_min":104,"x_max":656,"o":"m 236 832 l 236 529 q 357 544 304 544 q 574 472 492 544 q 656 272 656 400 q 569 67 656 144 q 342 -11 483 -11 q 104 35 201 -11 l 104 121 q 321 69 193 69 q 567 282 567 69 q 508 417 567 369 q 355 464 450 464 q 150 415 260 464 l 150 908 l 592 908 l 592 832 l 236 832 z "},"६":{"ha":718,"x_min":69,"x_max":658,"o":"m 472 857 q 263 751 342 857 q 164 493 183 644 q 386 585 257 585 q 587 505 515 585 q 658 292 658 425 q 583 74 658 160 q 385 -11 507 -11 q 149 100 229 -11 q 69 397 69 211 q 250 860 69 711 q 474 938 343 938 q 597 917 539 938 l 597 831 q 472 857 540 857 m 157 397 q 219 148 157 228 q 376 68 282 68 q 519 133 469 68 q 569 296 569 199 q 519 449 569 393 q 388 504 468 504 q 157 404 240 504 l 157 397 z "},"७":{"ha":699,"x_min":56,"x_max":643,"o":"m 56 908 l 643 908 l 643 832 l 261 0 l 169 0 l 553 832 l 56 832 l 56 908 z "},"८":{"ha":749,"x_min":81,"x_max":668,"o":"m 668 231 q 582 55 668 121 q 372 -11 496 -11 q 165 53 249 -11 q 81 214 81 117 q 127 369 81 311 q 254 451 174 428 q 138 526 179 474 q 96 657 96 579 q 178 847 96 776 q 371 917 261 917 q 563 849 481 917 q 644 660 644 782 q 603 532 644 586 q 486 454 561 478 q 668 231 668 407 m 372 836 q 328 836 372 836 q 234 785 285 836 q 183 654 183 733 q 236 534 183 575 q 372 493 289 493 q 506 538 456 493 q 557 659 557 582 q 508 786 557 736 q 372 836 458 836 m 168 233 q 168 197 168 233 q 221 115 168 161 q 373 69 274 69 q 526 119 472 69 q 581 241 581 169 q 529 360 581 313 q 371 413 478 408 q 218 356 268 407 q 168 233 168 306 z "},"९":{"ha":697,"x_min":69,"x_max":642,"o":"m 272 69 q 474 156 410 69 q 551 414 539 242 q 353 328 472 328 q 152 408 235 328 q 69 616 69 489 q 141 831 69 743 q 338 919 213 919 q 511 861 440 919 q 642 528 642 756 q 272 -11 642 -11 q 117 15 192 -11 l 117 101 q 272 69 190 69 m 556 528 q 511 739 556 650 q 443 812 488 785 q 339 839 399 839 q 207 776 256 839 q 158 615 158 714 q 215 462 158 517 q 373 407 271 407 q 556 503 475 407 l 556 528 z "},"॰":{"ha":578,"x_min":78,"x_max":494,"o":"m 194 506 q 175 487 194 506 q 156 414 156 468 q 194 322 156 360 q 286 283 232 283 q 378 322 340 283 q 417 414 417 360 q 378 506 417 468 q 286 544 340 544 q 194 506 232 544 m 139 267 q 108 297 139 267 q 78 414 78 328 q 139 561 78 500 q 286 622 200 622 q 433 561 372 622 q 494 414 494 500 q 433 267 494 328 q 286 206 372 206 q 139 267 200 206 z "},"ॽ":{"ha":754,"x_min":154,"x_max":617,"o":"m 363 947 q 547 891 478 947 q 617 731 617 835 q 533 550 617 642 q 465 474 500 513 q 382 261 382 381 l 382 0 l 297 0 l 297 257 q 321 391 297 329 q 378 494 344 453 q 447 572 413 535 q 528 724 528 660 q 487 828 528 789 q 364 867 446 867 q 253 846 313 867 q 154 796 194 825 l 154 886 q 249 928 185 910 q 363 947 313 947 z "},"Ẁ":{"ha":1290,"x_min":56,"x_max":1235,"o":"m 600 922 l 701 922 l 961 82 q 1149 936 1029 396 l 1235 936 l 1022 0 l 904 0 l 653 810 q 417 0 607 644 l 299 0 l 56 936 l 146 936 l 360 88 q 600 922 439 368 m 539 1219 l 681 1011 l 604 1011 l 426 1219 l 539 1219 z "},"ẁ":{"ha":1094,"x_min":42,"x_max":1053,"o":"m 257 0 l 42 704 l 135 704 q 313 85 282 208 q 490 704 319 110 l 590 704 l 774 82 q 964 704 797 168 l 1053 704 l 831 0 l 717 0 l 540 606 q 371 0 500 454 l 257 0 m 432 989 l 574 781 l 497 781 l 319 989 l 432 989 z "},"Ẃ":{"ha":1290,"x_min":56,"x_max":1235,"o":"m 621 1013 l 763 1221 l 875 1221 l 697 1013 l 621 1013 m 600 922 l 701 922 l 961 82 q 1149 936 1029 396 l 1235 936 l 1022 0 l 904 0 l 653 810 q 417 0 607 644 l 299 0 l 56 936 l 146 936 l 360 88 q 600 922 439 368 z "},"ẃ":{"ha":1094,"x_min":42,"x_max":1053,"o":"m 510 781 l 651 989 l 764 989 l 586 781 l 510 781 m 257 0 l 42 704 l 135 704 q 313 85 282 208 q 490 704 319 110 l 590 704 l 774 82 q 964 704 797 168 l 1053 704 l 831 0 l 717 0 l 540 606 q 371 0 500 454 l 257 0 z "},"Ẅ":{"ha":1290,"x_min":56,"x_max":1235,"o":"m 524 1056 q 511 1056 524 1056 q 482 1073 499 1056 q 465 1116 465 1090 q 482 1158 465 1142 q 524 1175 499 1175 q 567 1158 550 1175 q 585 1116 585 1142 q 567 1073 585 1090 q 524 1056 550 1056 m 781 1056 q 768 1056 781 1056 q 738 1073 756 1056 q 721 1116 721 1090 q 738 1158 721 1142 q 781 1175 756 1175 q 824 1158 807 1175 q 840 1116 840 1142 q 824 1073 840 1090 q 781 1056 807 1056 m 600 922 l 701 922 l 961 82 q 1149 936 1029 396 l 1235 936 l 1022 0 l 904 0 l 653 810 q 417 0 607 644 l 299 0 l 56 936 l 146 936 l 360 88 q 600 922 439 368 z "},"ẅ":{"ha":1094,"x_min":42,"x_max":1053,"o":"m 412 825 q 399 825 412 825 q 369 842 386 825 q 353 885 353 860 q 369 928 353 911 q 412 944 386 944 q 455 928 438 944 q 472 885 472 911 q 455 842 472 860 q 412 825 438 825 m 669 825 q 656 825 669 825 q 626 842 643 825 q 608 885 608 860 q 626 928 608 911 q 669 944 643 944 q 711 928 694 944 q 728 885 728 911 q 711 842 728 860 q 669 825 694 825 m 257 0 l 42 704 l 135 704 q 313 85 282 208 q 490 704 319 110 l 590 704 l 774 82 q 964 704 797 168 l 1053 704 l 831 0 l 717 0 l 540 606 q 371 0 500 454 l 257 0 z "},"Ỳ":{"ha":806,"x_min":42,"x_max":764,"o":"m 444 0 l 358 0 l 358 350 l 42 936 l 140 936 l 214 799 l 401 438 q 665 936 413 464 l 764 936 l 444 350 l 444 0 m 458 1013 l 382 1013 l 204 1221 l 317 1221 l 458 1013 z "},"ỳ":{"ha":669,"x_min":13,"x_max":643,"o":"m 99 -233 q 46 -226 71 -233 l 46 -143 q 93 -150 71 -150 q 300 19 242 -150 l 13 704 l 110 704 l 342 129 q 549 704 356 175 l 643 704 l 388 18 q 263 -179 335 -125 q 99 -233 190 -233 m 233 989 l 375 781 l 299 781 l 121 989 l 233 989 z "},"​":{"ha":0,"x_min":0,"x_max":0,"o":""},"‌":{"ha":0,"x_min":-32,"x_max":33,"o":"m 33 -319 l -32 -319 l -32 1126 l 33 1126 l 33 -319 z "},"‍":{"ha":0,"x_min":-176,"x_max":179,"o":"m 33 -319 l -32 -319 l -32 882 l -128 781 l -174 826 l -44 956 l -176 1088 l -131 1133 l 1 1001 l 135 1133 l 179 1089 l 46 956 l 179 824 l 133 778 l 33 882 l 33 -319 z "},"–":{"ha":744,"x_min":83,"x_max":661,"o":"m 83 338 l 83 414 l 661 414 l 661 338 l 83 338 z "},"—":{"ha":1138,"x_min":83,"x_max":1054,"o":"m 83 340 l 83 417 l 1054 417 l 1054 340 l 83 340 z "},"‘":{"ha":218,"x_min":10,"x_max":232,"o":"m 232 965 l 122 668 l 10 668 l 169 965 l 232 965 z "},"’":{"ha":219,"x_min":11,"x_max":233,"o":"m 11 668 l 121 965 l 233 965 l 74 668 l 11 668 z "},"‚":{"ha":219,"x_min":6,"x_max":228,"o":"m 6 -169 l 115 128 l 228 128 l 68 -169 l 6 -169 z "},"“":{"ha":403,"x_min":11,"x_max":417,"o":"m 417 965 l 307 668 l 194 668 l 354 965 l 417 965 m 233 965 l 124 668 l 11 668 l 171 965 l 233 965 z "},"”":{"ha":401,"x_min":11,"x_max":417,"o":"m 11 668 l 121 965 l 233 965 l 74 668 l 11 668 m 194 668 l 304 965 l 417 965 l 257 668 l 194 668 z "},"„":{"ha":401,"x_min":6,"x_max":411,"o":"m 6 -169 l 115 128 l 228 128 l 68 -169 l 6 -169 m 189 -169 l 299 128 l 411 128 l 251 -169 l 189 -169 z "},"†":{"ha":714,"x_min":63,"x_max":651,"o":"m 651 692 l 651 614 l 390 614 l 390 0 l 311 0 l 311 614 l 63 614 l 63 692 l 311 692 l 311 936 l 390 936 l 390 692 l 651 692 z "},"‡":{"ha":714,"x_min":63,"x_max":651,"o":"m 651 614 l 390 614 l 390 340 l 651 340 l 651 263 l 390 263 l 390 0 l 311 0 l 311 263 l 63 263 l 63 340 l 311 340 l 311 614 l 63 614 l 63 692 l 311 692 l 311 936 l 390 936 l 390 692 l 651 692 l 651 614 z "},"•":{"ha":632,"x_min":132,"x_max":500,"o":"m 185 363 q 158 389 185 363 q 132 494 132 415 q 184 626 132 574 q 315 679 236 679 q 447 626 393 679 q 500 494 500 572 q 447 363 500 417 q 316 310 394 310 q 185 363 238 310 z "},"…":{"ha":919,"x_min":42,"x_max":878,"o":"m 756 9 q 746 19 756 9 q 736 60 736 29 q 756 110 736 90 q 807 131 776 131 q 858 110 838 131 q 878 60 878 90 q 858 9 878 29 q 807 -11 838 -11 q 756 9 776 -11 m 409 9 q 399 19 409 9 q 389 60 389 29 q 409 110 389 90 q 460 131 429 131 q 510 110 490 131 q 531 60 531 90 q 510 9 531 29 q 460 -11 490 -11 q 409 9 429 -11 m 62 9 q 52 19 62 9 q 42 60 42 29 q 62 110 42 90 q 113 131 82 131 q 163 110 143 131 q 183 60 183 90 q 163 9 183 29 q 113 -11 143 -11 q 62 9 82 -11 z "},"‰":{"ha":1610,"x_min":63,"x_max":1575,"o":"m 1274 291 q 1255 272 1274 291 q 1236 199 1236 253 q 1274 106 1236 144 q 1367 68 1313 68 q 1459 106 1421 68 q 1497 199 1497 144 q 1459 291 1497 253 q 1367 329 1421 329 q 1274 291 1313 329 m 1219 51 q 1189 82 1219 51 q 1158 199 1158 113 q 1219 346 1158 285 q 1367 407 1281 407 q 1514 345 1453 407 q 1575 198 1575 283 q 1514 51 1575 113 q 1367 -10 1453 -10 q 1219 51 1281 -10 m 753 291 q 734 272 753 291 q 715 199 715 253 q 753 106 715 144 q 846 68 792 68 q 938 106 900 68 q 976 199 976 144 q 938 291 976 253 q 846 329 900 329 q 753 291 792 329 m 178 801 q 159 782 178 801 q 140 708 140 763 q 178 616 140 654 q 271 578 217 578 q 363 616 325 578 q 401 708 401 654 q 363 801 401 763 q 271 839 325 839 q 178 801 217 839 m 124 561 q 93 592 124 561 q 63 708 63 622 q 124 856 63 794 q 270 917 185 917 q 417 856 356 917 q 479 708 479 794 q 418 561 479 622 q 271 500 357 500 q 124 561 185 500 m 699 51 q 668 82 699 51 q 638 199 638 113 q 699 346 638 285 q 845 407 760 407 q 992 345 931 407 q 1054 198 1054 283 q 993 51 1054 113 q 846 -10 932 -10 q 699 51 760 -10 m 271 -1 l 760 908 l 846 908 l 356 -1 l 271 -1 z "},"‹":{"ha":389,"x_min":42,"x_max":347,"o":"m 347 576 l 143 351 l 347 126 l 250 126 l 42 351 l 250 576 l 347 576 z "},"›":{"ha":385,"x_min":42,"x_max":347,"o":"m 139 576 l 347 351 l 139 126 l 42 126 l 246 351 l 42 576 l 139 576 z "},"⁄":{"ha":450,"x_min":-97,"x_max":622,"o":"m -97 0 l 536 989 l 622 989 l -12 0 l -97 0 z "},"⁴":{"ha":522,"x_min":49,"x_max":481,"o":"m 481 747 l 481 682 l 390 682 l 390 544 l 321 544 l 321 682 l 49 682 l 49 747 l 288 1140 l 390 1140 l 390 747 l 481 747 m 321 747 l 321 1071 l 122 747 l 321 747 z "},"€":{"ha":808,"x_min":76,"x_max":753,"o":"m 753 807 q 601 833 701 833 q 423 774 500 833 q 315 603 346 715 l 597 603 l 597 535 l 301 535 q 296 458 296 500 q 300 382 296 415 l 597 382 l 597 314 l 313 314 q 422 135 343 199 q 600 71 500 71 q 753 100 700 71 l 753 18 q 590 -11 696 -11 q 356 76 457 -11 q 221 314 254 164 l 76 314 l 76 382 l 211 382 q 207 458 207 415 q 213 535 207 500 l 76 535 l 76 603 l 224 603 q 360 833 260 750 q 600 915 461 915 q 753 889 700 915 l 753 807 z "},"₹":{"ha":744,"x_min":90,"x_max":675,"o":"m 675 936 l 675 857 l 443 857 q 543 697 526 807 l 675 697 l 675 618 l 547 618 q 455 435 540 504 q 231 367 369 367 l 192 367 l 481 0 l 374 0 l 90 367 l 90 443 l 231 443 q 395 489 336 443 q 461 618 454 535 l 90 618 l 90 697 l 456 697 q 231 857 422 857 l 90 857 l 90 936 l 675 936 z "},"™":{"ha":942,"x_min":0,"x_max":897,"o":"m 0 872 l 0 936 l 311 936 l 311 872 l 193 872 l 193 458 l 122 458 l 122 872 l 0 872 m 354 460 l 392 936 l 492 936 l 579 686 l 622 550 q 763 936 647 625 l 865 936 l 897 460 l 825 460 l 810 692 l 803 849 q 663 471 778 775 l 583 471 l 451 849 q 428 460 446 803 l 354 460 z "},"Ω":{"ha":1081,"x_min":76,"x_max":1004,"o":"m 1004 79 l 1004 0 l 603 0 l 603 79 q 792 208 729 100 q 856 488 856 317 q 771 765 856 658 q 535 872 686 872 q 299 765 385 872 q 213 489 213 657 q 284 210 213 321 q 478 79 356 100 l 478 0 l 76 0 l 76 79 l 306 79 q 170 238 217 135 q 124 479 124 342 q 235 824 124 692 q 537 956 347 956 q 835 824 726 956 q 944 479 944 693 q 774 79 944 188 l 1004 79 z "},"∂":{"ha":703,"x_min":56,"x_max":642,"o":"m 333 936 q 544 711 446 868 q 642 385 642 554 q 560 103 642 217 q 324 -11 478 -11 q 127 77 199 -11 q 56 293 56 165 q 143 501 56 421 q 348 581 231 581 q 544 493 465 581 q 414 752 514 628 q 211 936 314 876 l 333 936 m 335 69 q 498 160 443 69 q 556 386 553 250 q 340 503 472 503 q 199 444 253 503 q 144 290 144 386 q 196 131 144 193 q 335 69 247 69 z "},"∆":{"ha":835,"x_min":42,"x_max":793,"o":"m 793 0 l 42 0 l 42 79 l 358 936 l 483 936 l 793 79 l 793 0 m 135 76 l 701 76 l 601 363 l 421 868 q 135 76 360 708 z "},"∏":{"ha":806,"x_min":-62,"x_max":700,"o":"m 700 936 l 700 -250 l 614 -250 l 614 857 l 225 857 l 225 -24 q 22 -256 225 -256 q -62 -240 -26 -256 l -62 -157 q 14 -174 -29 -174 q 139 -37 139 -174 l 139 936 l 700 936 z "},"∑":{"ha":597,"x_min":42,"x_max":660,"o":"m 660 936 l 660 857 l 142 857 l 403 339 l 142 -199 l 660 -199 l 660 -278 l 42 -278 l 42 -199 l 303 339 l 42 857 l 42 936 l 660 936 z "},"−":{"ha":756,"x_min":83,"x_max":672,"o":"m 83 433 l 83 511 l 672 511 l 672 433 l 83 433 z "},"∕":{"ha":450,"x_min":-97,"x_max":622,"o":"m -97 0 l 536 989 l 622 989 l -12 0 l -97 0 z "},"∙":{"ha":308,"x_min":83,"x_max":225,"o":"m 103 417 q 93 427 103 417 q 83 468 83 438 q 103 519 83 499 q 154 539 124 539 q 205 519 185 539 q 225 468 225 499 q 205 417 225 438 q 154 397 185 397 q 103 417 124 397 z "},"√":{"ha":1022,"x_min":47,"x_max":1086,"o":"m 281 571 l 439 138 l 564 -214 q 664 147 604 -50 q 997 1243 936 1040 l 1086 1243 l 632 -278 l 499 -278 l 215 493 l 47 493 l 63 571 l 281 571 z "},"∞":{"ha":1161,"x_min":69,"x_max":1092,"o":"m 858 332 q 893 332 858 332 q 967 374 928 332 q 1007 481 1007 417 q 964 590 1007 546 q 849 635 921 635 q 638 482 742 635 q 740 369 693 407 q 858 332 788 332 m 300 257 q 131 319 192 257 q 69 481 69 381 q 134 644 69 581 q 308 708 199 708 q 455 663 392 708 q 582 535 518 618 q 710 664 646 618 q 872 710 775 710 q 1030 649 968 710 q 1092 488 1092 588 q 1027 323 1092 389 q 865 257 963 257 q 706 300 767 257 q 578 426 644 343 q 300 257 444 257 m 194 594 q 173 573 194 594 q 153 488 153 553 q 195 376 153 422 q 310 331 238 331 q 524 482 417 331 q 465 556 490 526 q 396 610 439 585 q 308 635 353 635 q 194 594 235 635 z "},"≈":{"ha":868,"x_min":81,"x_max":786,"o":"m 599 514 q 437 570 536 514 q 301 626 338 626 q 136 526 204 626 l 81 578 q 292 704 171 704 q 456 649 361 704 q 599 593 551 593 q 721 676 676 593 l 786 632 q 599 514 713 514 m 599 238 q 437 294 536 238 q 301 350 338 350 q 136 250 204 350 l 81 301 q 292 428 171 428 q 456 372 361 428 q 599 317 551 317 q 721 400 676 317 l 786 356 q 599 238 713 238 z "},"≠":{"ha":756,"x_min":83,"x_max":672,"o":"m 672 569 l 456 569 l 371 376 l 672 376 l 672 299 l 338 299 l 282 174 l 211 174 l 267 299 l 83 299 l 83 376 l 300 376 l 385 569 l 83 569 l 83 646 l 418 646 l 474 771 l 544 771 l 489 646 l 672 646 l 672 569 z "},"≤":{"ha":749,"x_min":76,"x_max":665,"o":"m 665 763 l 665 679 l 104 556 l 665 431 l 665 347 l 76 488 l 76 622 l 665 763 m 76 181 l 76 257 l 665 257 l 665 181 l 76 181 z "},"≥":{"ha":749,"x_min":83,"x_max":672,"o":"m 83 763 l 672 622 l 672 488 l 83 347 l 83 431 l 644 556 l 83 679 l 83 763 m 83 181 l 83 257 l 672 257 l 672 181 l 83 181 z "},"◊":{"ha":768,"x_min":81,"x_max":688,"o":"m 438 936 l 688 468 l 438 0 l 324 0 l 81 468 l 324 936 l 438 936 m 383 75 l 588 468 l 383 861 l 181 468 l 383 75 z "},"◌":{"ha":974,"x_min":100,"x_max":894,"o":"m 413 749 q 405 758 413 749 q 396 793 396 767 q 413 837 396 819 q 457 854 431 854 q 501 837 483 854 q 518 793 518 819 q 501 749 518 767 q 457 732 483 732 q 413 749 431 732 m 633 711 q 620 711 633 711 q 589 729 607 711 q 571 774 571 747 q 588 817 571 800 q 633 835 606 835 q 676 817 660 835 q 693 774 693 800 q 676 729 693 747 q 633 711 658 711 m 720 634 q 711 643 720 634 q 703 678 703 651 q 720 722 703 704 q 764 740 738 740 q 808 723 790 740 q 825 678 825 706 q 808 634 825 651 q 764 617 790 617 q 720 634 738 617 m 789 469 q 781 478 789 469 q 772 514 772 486 q 789 558 772 542 q 833 575 806 575 q 877 558 860 575 q 894 514 894 540 q 877 470 894 488 q 833 453 860 453 q 789 469 806 453 m 820 267 q 807 267 820 267 q 776 284 794 267 q 758 328 758 301 q 776 373 758 356 q 820 390 794 390 q 863 372 846 390 q 881 328 881 354 q 863 284 881 301 q 820 267 846 267 m 674 148 q 666 157 674 148 q 657 192 657 165 q 674 235 657 218 q 718 253 692 253 q 763 235 744 253 q 781 192 781 218 q 763 148 781 165 q 718 131 744 131 q 674 148 692 131 m 506 74 q 497 83 506 74 q 489 118 489 92 q 506 162 489 144 q 550 179 522 179 q 595 162 578 179 q 613 118 613 144 q 595 74 613 92 q 550 57 578 57 q 506 74 522 57 m 375 76 q 362 76 375 76 q 331 94 349 76 q 313 139 313 113 q 331 183 313 165 q 375 201 349 201 q 419 183 401 201 q 436 139 436 165 q 419 94 436 113 q 375 76 401 76 m 233 183 q 219 183 233 183 q 189 200 206 183 q 172 244 172 217 q 190 288 172 271 q 233 306 207 306 q 277 288 260 306 q 294 244 294 271 q 277 201 294 218 q 233 183 260 183 m 117 363 q 109 371 117 363 q 100 406 100 379 q 117 450 100 432 q 161 468 135 468 q 205 451 188 468 q 222 406 222 433 q 205 363 222 379 q 161 346 188 346 q 117 363 135 346 m 136 537 q 127 545 136 537 q 118 581 118 554 q 136 624 118 607 q 181 642 154 642 q 225 624 207 642 q 243 581 243 607 q 225 537 243 554 q 181 519 207 519 q 136 537 154 519 m 293 671 q 280 671 293 671 q 249 688 267 671 q 232 733 232 706 q 249 777 232 760 q 293 794 267 794 q 337 777 319 794 q 354 733 354 760 q 337 688 354 706 q 293 671 319 671 z "},"":{"ha":556,"x_min":151,"x_max":379,"o":"m 151 -331 l 274 -71 l 379 -71 l 226 -331 l 151 -331 z "},"ﬀ":{"ha":782,"x_min":42,"x_max":749,"o":"m 749 897 q 683 908 719 908 q 616 876 646 908 q 586 778 586 843 l 586 704 l 747 704 l 747 632 l 586 632 l 586 0 l 501 0 l 501 632 l 256 632 l 256 0 l 171 0 l 171 632 l 42 632 l 42 704 l 171 704 l 171 779 q 223 933 171 876 q 372 989 275 989 q 560 940 468 989 q 692 989 608 989 q 749 981 718 989 l 749 897 m 501 704 l 501 779 q 517 874 501 831 q 371 908 450 908 q 256 778 256 908 l 256 704 l 501 704 z "},"ﬁ":{"ha":692,"x_min":42,"x_max":586,"o":"m 586 704 l 586 0 l 501 0 l 501 632 l 256 632 l 256 0 l 171 0 l 171 632 l 42 632 l 42 704 l 171 704 l 171 779 q 222 932 171 875 q 366 989 272 989 q 542 944 460 989 l 542 861 q 364 908 451 908 q 256 778 256 908 l 256 704 l 586 704 z "},"ﬂ":{"ha":678,"x_min":42,"x_max":572,"o":"m 171 704 l 171 779 q 222 933 171 876 q 374 989 272 989 q 572 926 475 989 l 572 0 l 488 0 l 488 882 q 371 908 422 908 q 256 778 256 908 l 256 704 l 417 704 l 417 632 l 256 632 l 256 0 l 171 0 l 171 632 l 42 632 l 42 704 l 171 704 z "},"ﬃ":{"ha":1022,"x_min":42,"x_max":917,"o":"m 917 704 l 917 0 l 832 0 l 832 632 l 586 632 l 586 0 l 501 0 l 501 632 l 256 632 l 256 0 l 171 0 l 171 632 l 42 632 l 42 704 l 171 704 l 171 779 q 223 933 171 876 q 372 989 275 989 q 560 940 468 989 q 701 989 613 989 q 872 944 790 989 l 872 861 q 694 908 782 908 q 586 778 586 908 l 586 704 l 917 704 m 501 704 l 501 779 q 517 874 501 831 q 371 908 450 908 q 256 778 256 908 l 256 704 l 501 704 z "},"ﬄ":{"ha":1010,"x_min":42,"x_max":904,"o":"m 171 704 l 171 779 q 223 933 171 876 q 372 989 275 989 q 560 940 468 989 q 710 989 613 989 q 904 926 807 989 l 904 0 l 819 0 l 819 882 q 703 908 754 908 q 588 778 588 908 l 588 704 l 749 704 l 749 632 l 588 632 l 588 0 l 503 0 l 503 632 l 256 632 l 256 0 l 171 0 l 171 632 l 42 632 l 42 704 l 171 704 m 503 704 l 503 779 q 518 874 503 831 q 371 908 451 908 q 256 778 256 908 l 256 704 l 503 704 z "}}}
